G04 #@! TF.FileFunction,Legend,Top*
%FSLAX46Y46*%
G04 Gerber Fmt 4.6, Leading zero omitted, Abs format (unit mm)*
G04 Created by KiCad (PCBNEW 4.0.6) date Sunday, July 23, 2017 'AMt' 01:04:53 AM*
%MOMM*%
%LPD*%
G01*
G04 APERTURE LIST*
%ADD10C,0.100000*%
%ADD11C,0.300000*%
%ADD12C,0.120000*%
%ADD13C,0.150000*%
%ADD14C,5.400000*%
%ADD15C,2.000000*%
%ADD16R,2.200000X3.000000*%
%ADD17O,2.200000X3.000000*%
%ADD18C,3.400000*%
%ADD19C,2.760000*%
%ADD20C,2.600000*%
%ADD21O,2.000000X2.000000*%
%ADD22C,2.900000*%
%ADD23R,2.000000X2.000000*%
%ADD24C,1.920000*%
%ADD25C,3.100000*%
%ADD26C,1.900000*%
%ADD27C,2.400000*%
%ADD28O,3.900000X3.900000*%
%ADD29R,2.200000X2.200000*%
%ADD30O,2.200000X2.200000*%
%ADD31R,1.600000X1.600000*%
%ADD32C,1.600000*%
%ADD33R,2.127200X2.127200*%
%ADD34O,2.127200X2.127200*%
G04 APERTURE END LIST*
D10*
D11*
X217203571Y-86521428D02*
X215703571Y-86521428D01*
X217203571Y-85664285D02*
X216346429Y-86307142D01*
X215703571Y-85664285D02*
X216560714Y-86521428D01*
X217203571Y-84378571D02*
X216417857Y-84378571D01*
X216275000Y-84450000D01*
X216203571Y-84592857D01*
X216203571Y-84878571D01*
X216275000Y-85021428D01*
X217132143Y-84378571D02*
X217203571Y-84521428D01*
X217203571Y-84878571D01*
X217132143Y-85021428D01*
X216989286Y-85092857D01*
X216846429Y-85092857D01*
X216703571Y-85021428D01*
X216632143Y-84878571D01*
X216632143Y-84521428D01*
X216560714Y-84378571D01*
X217203571Y-83664285D02*
X216203571Y-83664285D01*
X216346429Y-83664285D02*
X216275000Y-83592857D01*
X216203571Y-83449999D01*
X216203571Y-83235714D01*
X216275000Y-83092857D01*
X216417857Y-83021428D01*
X217203571Y-83021428D01*
X216417857Y-83021428D02*
X216275000Y-82949999D01*
X216203571Y-82807142D01*
X216203571Y-82592857D01*
X216275000Y-82449999D01*
X216417857Y-82378571D01*
X217203571Y-82378571D01*
X217203571Y-81021428D02*
X216417857Y-81021428D01*
X216275000Y-81092857D01*
X216203571Y-81235714D01*
X216203571Y-81521428D01*
X216275000Y-81664285D01*
X217132143Y-81021428D02*
X217203571Y-81164285D01*
X217203571Y-81521428D01*
X217132143Y-81664285D01*
X216989286Y-81735714D01*
X216846429Y-81735714D01*
X216703571Y-81664285D01*
X216632143Y-81521428D01*
X216632143Y-81164285D01*
X216560714Y-81021428D01*
X216203571Y-80307142D02*
X217489286Y-80307142D01*
X217632143Y-80378571D01*
X217703571Y-80521428D01*
X217703571Y-80592856D01*
X215703571Y-80307142D02*
X215775000Y-80378571D01*
X215846429Y-80307142D01*
X215775000Y-80235714D01*
X215703571Y-80307142D01*
X215846429Y-80307142D01*
X217203571Y-79592856D02*
X216203571Y-79592856D01*
X215703571Y-79592856D02*
X215775000Y-79664285D01*
X215846429Y-79592856D01*
X215775000Y-79521428D01*
X215703571Y-79592856D01*
X215846429Y-79592856D01*
X217203571Y-76949999D02*
X217203571Y-77807142D01*
X217203571Y-77378570D02*
X215703571Y-77378570D01*
X215917857Y-77521427D01*
X216060714Y-77664285D01*
X216132143Y-77807142D01*
X217060714Y-76307142D02*
X217132143Y-76235714D01*
X217203571Y-76307142D01*
X217132143Y-76378571D01*
X217060714Y-76307142D01*
X217203571Y-76307142D01*
X215703571Y-75307142D02*
X215703571Y-75164285D01*
X215775000Y-75021428D01*
X215846429Y-74949999D01*
X215989286Y-74878570D01*
X216275000Y-74807142D01*
X216632143Y-74807142D01*
X216917857Y-74878570D01*
X217060714Y-74949999D01*
X217132143Y-75021428D01*
X217203571Y-75164285D01*
X217203571Y-75307142D01*
X217132143Y-75449999D01*
X217060714Y-75521428D01*
X216917857Y-75592856D01*
X216632143Y-75664285D01*
X216275000Y-75664285D01*
X215989286Y-75592856D01*
X215846429Y-75521428D01*
X215775000Y-75449999D01*
X215703571Y-75307142D01*
X219753571Y-95878570D02*
X218253571Y-95878570D01*
X219753571Y-94949998D02*
X219682143Y-95092856D01*
X219539286Y-95164284D01*
X218253571Y-95164284D01*
X218753571Y-94521427D02*
X219753571Y-94164284D01*
X218753571Y-93807142D02*
X219753571Y-94164284D01*
X220110714Y-94307142D01*
X220182143Y-94378570D01*
X220253571Y-94521427D01*
X219753571Y-92592856D02*
X218967857Y-92592856D01*
X218825000Y-92664285D01*
X218753571Y-92807142D01*
X218753571Y-93092856D01*
X218825000Y-93235713D01*
X219682143Y-92592856D02*
X219753571Y-92735713D01*
X219753571Y-93092856D01*
X219682143Y-93235713D01*
X219539286Y-93307142D01*
X219396429Y-93307142D01*
X219253571Y-93235713D01*
X219182143Y-93092856D01*
X219182143Y-92735713D01*
X219110714Y-92592856D01*
X219682143Y-90807142D02*
X219753571Y-90592856D01*
X219753571Y-90235713D01*
X219682143Y-90092856D01*
X219610714Y-90021427D01*
X219467857Y-89949999D01*
X219325000Y-89949999D01*
X219182143Y-90021427D01*
X219110714Y-90092856D01*
X219039286Y-90235713D01*
X218967857Y-90521427D01*
X218896429Y-90664285D01*
X218825000Y-90735713D01*
X218682143Y-90807142D01*
X218539286Y-90807142D01*
X218396429Y-90735713D01*
X218325000Y-90664285D01*
X218253571Y-90521427D01*
X218253571Y-90164285D01*
X218325000Y-89949999D01*
X218753571Y-89521428D02*
X218753571Y-88949999D01*
X218253571Y-89307142D02*
X219539286Y-89307142D01*
X219682143Y-89235714D01*
X219753571Y-89092856D01*
X219753571Y-88949999D01*
X219753571Y-88449999D02*
X218753571Y-88449999D01*
X219039286Y-88449999D02*
X218896429Y-88378571D01*
X218825000Y-88307142D01*
X218753571Y-88164285D01*
X218753571Y-88021428D01*
X218753571Y-86878571D02*
X219753571Y-86878571D01*
X218753571Y-87521428D02*
X219539286Y-87521428D01*
X219682143Y-87450000D01*
X219753571Y-87307142D01*
X219753571Y-87092857D01*
X219682143Y-86950000D01*
X219610714Y-86878571D01*
X219753571Y-86164285D02*
X218253571Y-86164285D01*
X219182143Y-86021428D02*
X219753571Y-85592857D01*
X218753571Y-85592857D02*
X219325000Y-86164285D01*
X219753571Y-84735713D02*
X219682143Y-84878571D01*
X219610714Y-84949999D01*
X219467857Y-85021428D01*
X219039286Y-85021428D01*
X218896429Y-84949999D01*
X218825000Y-84878571D01*
X218753571Y-84735713D01*
X218753571Y-84521428D01*
X218825000Y-84378571D01*
X218896429Y-84307142D01*
X219039286Y-84235713D01*
X219467857Y-84235713D01*
X219610714Y-84307142D01*
X219682143Y-84378571D01*
X219753571Y-84521428D01*
X219753571Y-84735713D01*
X218753571Y-83735713D02*
X219753571Y-83378570D01*
X218753571Y-83021428D01*
X218753571Y-80164285D02*
X219182143Y-81307142D01*
X219610714Y-80164285D01*
X219753571Y-79449999D02*
X218753571Y-79449999D01*
X218253571Y-79449999D02*
X218325000Y-79521428D01*
X218396429Y-79449999D01*
X218325000Y-79378571D01*
X218253571Y-79449999D01*
X218396429Y-79449999D01*
X219753571Y-78521427D02*
X219682143Y-78664285D01*
X219539286Y-78735713D01*
X218253571Y-78735713D01*
X219682143Y-77378571D02*
X219753571Y-77521428D01*
X219753571Y-77807142D01*
X219682143Y-77949999D01*
X219539286Y-78021428D01*
X218967857Y-78021428D01*
X218825000Y-77949999D01*
X218753571Y-77807142D01*
X218753571Y-77521428D01*
X218825000Y-77378571D01*
X218967857Y-77307142D01*
X219110714Y-77307142D01*
X219253571Y-78021428D01*
X218753571Y-76807142D02*
X219753571Y-76449999D01*
X218753571Y-76092857D02*
X219753571Y-76449999D01*
X220110714Y-76592857D01*
X220182143Y-76664285D01*
X220253571Y-76807142D01*
X219039286Y-74592857D02*
X218967857Y-74664285D01*
X218896429Y-74807142D01*
X218896429Y-74950000D01*
X218967857Y-75092857D01*
X219039286Y-75164285D01*
X219182143Y-75235714D01*
X219325000Y-75235714D01*
X219467857Y-75164285D01*
X219539286Y-75092857D01*
X219610714Y-74950000D01*
X219610714Y-74807142D01*
X219539286Y-74664285D01*
X219467857Y-74592857D01*
X218896429Y-74592857D02*
X219467857Y-74592857D01*
X219539286Y-74521428D01*
X219539286Y-74450000D01*
X219467857Y-74307142D01*
X219325000Y-74235714D01*
X218967857Y-74235714D01*
X218753571Y-74378571D01*
X218610714Y-74592857D01*
X218539286Y-74878571D01*
X218610714Y-75164285D01*
X218753571Y-75378571D01*
X218967857Y-75521428D01*
X219253571Y-75592857D01*
X219539286Y-75521428D01*
X219753571Y-75378571D01*
X219896429Y-75164285D01*
X219967857Y-74878571D01*
X219896429Y-74592857D01*
X219753571Y-74378571D01*
X219753571Y-73592857D02*
X218753571Y-73592857D01*
X218253571Y-73592857D02*
X218325000Y-73664286D01*
X218396429Y-73592857D01*
X218325000Y-73521429D01*
X218253571Y-73592857D01*
X218396429Y-73592857D01*
X219753571Y-72664285D02*
X219682143Y-72807143D01*
X219539286Y-72878571D01*
X218253571Y-72878571D01*
X219682143Y-71521429D02*
X219753571Y-71664286D01*
X219753571Y-71950000D01*
X219682143Y-72092857D01*
X219539286Y-72164286D01*
X218967857Y-72164286D01*
X218825000Y-72092857D01*
X218753571Y-71950000D01*
X218753571Y-71664286D01*
X218825000Y-71521429D01*
X218967857Y-71450000D01*
X219110714Y-71450000D01*
X219253571Y-72164286D01*
X218753571Y-70950000D02*
X219753571Y-70592857D01*
X218753571Y-70235715D02*
X219753571Y-70592857D01*
X220110714Y-70735715D01*
X220182143Y-70807143D01*
X220253571Y-70950000D01*
X219610714Y-69664286D02*
X219682143Y-69592858D01*
X219753571Y-69664286D01*
X219682143Y-69735715D01*
X219610714Y-69664286D01*
X219753571Y-69664286D01*
X219753571Y-68950000D02*
X218753571Y-68950000D01*
X219039286Y-68950000D02*
X218896429Y-68878572D01*
X218825000Y-68807143D01*
X218753571Y-68664286D01*
X218753571Y-68521429D01*
X218753571Y-67378572D02*
X219753571Y-67378572D01*
X218753571Y-68021429D02*
X219539286Y-68021429D01*
X219682143Y-67950001D01*
X219753571Y-67807143D01*
X219753571Y-67592858D01*
X219682143Y-67450001D01*
X219610714Y-67378572D01*
X218753571Y-66664286D02*
X219182143Y-65521429D01*
X219610714Y-66664286D01*
D12*
X227286000Y-35000000D02*
G75*
G03X227286000Y-35000000I-2286000J0D01*
G01*
X227286000Y-135000000D02*
G75*
G03X227286000Y-135000000I-2286000J0D01*
G01*
X107286000Y-135000000D02*
G75*
G03X107286000Y-135000000I-2286000J0D01*
G01*
X155310000Y-49760000D02*
X151390000Y-49760000D01*
X155310000Y-47040000D02*
X151390000Y-47040000D01*
X155310000Y-49760000D02*
X155310000Y-49150000D01*
X155310000Y-47650000D02*
X155310000Y-47040000D01*
X151390000Y-49760000D02*
X151390000Y-49150000D01*
X151390000Y-47650000D02*
X151390000Y-47040000D01*
X136010000Y-69360000D02*
X132090000Y-69360000D01*
X136010000Y-66640000D02*
X132090000Y-66640000D01*
X136010000Y-69360000D02*
X136010000Y-68750000D01*
X136010000Y-67250000D02*
X136010000Y-66640000D01*
X132090000Y-69360000D02*
X132090000Y-68750000D01*
X132090000Y-67250000D02*
X132090000Y-66640000D01*
X124702000Y-106030000D02*
X204982000Y-106030000D01*
X204982000Y-106030000D02*
X204982000Y-69750000D01*
X204982000Y-69750000D02*
X125502000Y-69750000D01*
X124702000Y-69750000D02*
X124702000Y-106030000D01*
X124712000Y-69750000D02*
X125502000Y-69750000D01*
X131342000Y-69390000D02*
X134342000Y-69390000D01*
X133042000Y-80390000D02*
X196542000Y-80390000D01*
X132542280Y-94889320D02*
X132542280Y-80890000D01*
X196542660Y-95390000D02*
X133042000Y-95390000D01*
X197042000Y-80890000D02*
X197042000Y-94890000D01*
X197042000Y-80890000D02*
G75*
G03X196542000Y-80390000I-500000J0D01*
G01*
X196542660Y-95389700D02*
G75*
G03X197043040Y-94889320I0J500380D01*
G01*
X132542280Y-94889320D02*
G75*
G03X133042660Y-95389700I500380J0D01*
G01*
X133042660Y-80388460D02*
G75*
G03X132542280Y-80888840I0J-500380D01*
G01*
X127842000Y-75390000D02*
X200842000Y-75390000D01*
X200842000Y-75390000D02*
X200842000Y-100390000D01*
X200842000Y-100390000D02*
X127842000Y-100390000D01*
X127842000Y-100390000D02*
X127842000Y-75390000D01*
D13*
X210000000Y-43000000D02*
X200000000Y-43000000D01*
X200000000Y-30000000D02*
X200000000Y-43000000D01*
X210000000Y-30000000D02*
X210000000Y-43000000D01*
X210000000Y-30000000D02*
X200000000Y-30000000D01*
X190000000Y-43000000D02*
X180000000Y-43000000D01*
X180000000Y-30000000D02*
X180000000Y-43000000D01*
X190000000Y-30000000D02*
X190000000Y-43000000D01*
X190000000Y-30000000D02*
X180000000Y-30000000D01*
X170000000Y-43000000D02*
X160000000Y-43000000D01*
X160000000Y-30000000D02*
X160000000Y-43000000D01*
X170000000Y-30000000D02*
X170000000Y-43000000D01*
X170000000Y-30000000D02*
X160000000Y-30000000D01*
X150000000Y-43000000D02*
X140000000Y-43000000D01*
X140000000Y-30000000D02*
X140000000Y-43000000D01*
X150000000Y-30000000D02*
X150000000Y-43000000D01*
X150000000Y-30000000D02*
X140000000Y-30000000D01*
X130000000Y-43000000D02*
X120000000Y-43000000D01*
X120000000Y-30000000D02*
X120000000Y-43000000D01*
X130000000Y-30000000D02*
X130000000Y-43000000D01*
X130000000Y-30000000D02*
X120000000Y-30000000D01*
D11*
X226613533Y-122400000D02*
G75*
G03X226613533Y-122400000I-15213533J0D01*
G01*
D12*
X176370000Y-50090000D02*
X176370000Y-52710000D01*
X176370000Y-52710000D02*
X182790000Y-52710000D01*
X182790000Y-52710000D02*
X182790000Y-50090000D01*
X182790000Y-50090000D02*
X176370000Y-50090000D01*
X175480000Y-51400000D02*
X176370000Y-51400000D01*
X183680000Y-51400000D02*
X182790000Y-51400000D01*
X115430000Y-101310000D02*
X115430000Y-98690000D01*
X115430000Y-98690000D02*
X109010000Y-98690000D01*
X109010000Y-98690000D02*
X109010000Y-101310000D01*
X109010000Y-101310000D02*
X115430000Y-101310000D01*
X116320000Y-100000000D02*
X115430000Y-100000000D01*
X108120000Y-100000000D02*
X109010000Y-100000000D01*
X189630000Y-123610000D02*
X189630000Y-120990000D01*
X189630000Y-120990000D02*
X183210000Y-120990000D01*
X183210000Y-120990000D02*
X183210000Y-123610000D01*
X183210000Y-123610000D02*
X189630000Y-123610000D01*
X190520000Y-122300000D02*
X189630000Y-122300000D01*
X182320000Y-122300000D02*
X183210000Y-122300000D01*
X176730000Y-65110000D02*
X176730000Y-62490000D01*
X176730000Y-62490000D02*
X170310000Y-62490000D01*
X170310000Y-62490000D02*
X170310000Y-65110000D01*
X170310000Y-65110000D02*
X176730000Y-65110000D01*
X177620000Y-63800000D02*
X176730000Y-63800000D01*
X169420000Y-63800000D02*
X170310000Y-63800000D01*
X195010000Y-35670000D02*
X192390000Y-35670000D01*
X192390000Y-35670000D02*
X192390000Y-42090000D01*
X192390000Y-42090000D02*
X195010000Y-42090000D01*
X195010000Y-42090000D02*
X195010000Y-35670000D01*
X193700000Y-34780000D02*
X193700000Y-35670000D01*
X193700000Y-42980000D02*
X193700000Y-42090000D01*
X175110000Y-35670000D02*
X172490000Y-35670000D01*
X172490000Y-35670000D02*
X172490000Y-42090000D01*
X172490000Y-42090000D02*
X175110000Y-42090000D01*
X175110000Y-42090000D02*
X175110000Y-35670000D01*
X173800000Y-34780000D02*
X173800000Y-35670000D01*
X173800000Y-42980000D02*
X173800000Y-42090000D01*
X154910000Y-35670000D02*
X152290000Y-35670000D01*
X152290000Y-35670000D02*
X152290000Y-42090000D01*
X152290000Y-42090000D02*
X154910000Y-42090000D01*
X154910000Y-42090000D02*
X154910000Y-35670000D01*
X153600000Y-34780000D02*
X153600000Y-35670000D01*
X153600000Y-42980000D02*
X153600000Y-42090000D01*
X134810000Y-35670000D02*
X132190000Y-35670000D01*
X132190000Y-35670000D02*
X132190000Y-42090000D01*
X132190000Y-42090000D02*
X134810000Y-42090000D01*
X134810000Y-42090000D02*
X134810000Y-35670000D01*
X133500000Y-34780000D02*
X133500000Y-35670000D01*
X133500000Y-42980000D02*
X133500000Y-42090000D01*
X117210000Y-40770000D02*
X114590000Y-40770000D01*
X114590000Y-40770000D02*
X114590000Y-47190000D01*
X114590000Y-47190000D02*
X117210000Y-47190000D01*
X117210000Y-47190000D02*
X117210000Y-40770000D01*
X115900000Y-39880000D02*
X115900000Y-40770000D01*
X115900000Y-48080000D02*
X115900000Y-47190000D01*
X171190000Y-54210000D02*
X171190000Y-52440000D01*
X171190000Y-52440000D02*
X135390000Y-52440000D01*
X135390000Y-52440000D02*
X135390000Y-57980000D01*
X135390000Y-57980000D02*
X171190000Y-57980000D01*
X171190000Y-57980000D02*
X171190000Y-56210000D01*
X171190000Y-56210000D02*
G75*
G02X171190000Y-54210000I0J1000000D01*
G01*
X220950000Y-58670000D02*
X229590000Y-58670000D01*
X212570000Y-58670000D02*
X217650000Y-58670000D01*
X220950000Y-46470000D02*
X229590000Y-46470000D01*
X212570000Y-46470000D02*
X217650000Y-46470000D01*
X229590000Y-46470000D02*
X229590000Y-58670000D01*
X212570000Y-58670000D02*
X212570000Y-46470000D01*
X114340000Y-94250000D02*
X112010000Y-94250000D01*
X114340000Y-79260000D02*
X112220000Y-79260000D01*
X114340000Y-94250000D02*
X114340000Y-79260000D01*
X100250000Y-94250000D02*
X100250000Y-79260000D01*
X109050000Y-94250000D02*
X100250000Y-94250000D01*
X108850000Y-79260000D02*
X100250000Y-79260000D01*
X152710000Y-63060000D02*
X148790000Y-63060000D01*
X152710000Y-60340000D02*
X148790000Y-60340000D01*
X152710000Y-63060000D02*
X152710000Y-62450000D01*
X152710000Y-60950000D02*
X152710000Y-60340000D01*
X148790000Y-63060000D02*
X148790000Y-62450000D01*
X148790000Y-60950000D02*
X148790000Y-60340000D01*
X141000000Y-133500000D02*
X145500000Y-133500000D01*
X139750000Y-129500000D02*
X139750000Y-131000000D01*
X145500000Y-127000000D02*
X141000000Y-127000000D01*
X146750000Y-131000000D02*
X146750000Y-129500000D01*
X162875000Y-133500000D02*
X167375000Y-133500000D01*
X161625000Y-129500000D02*
X161625000Y-131000000D01*
X167375000Y-127000000D02*
X162875000Y-127000000D01*
X168625000Y-131000000D02*
X168625000Y-129500000D01*
X184750000Y-133500000D02*
X189250000Y-133500000D01*
X183500000Y-129500000D02*
X183500000Y-131000000D01*
X189250000Y-127000000D02*
X184750000Y-127000000D01*
X190500000Y-131000000D02*
X190500000Y-129500000D01*
X119980000Y-109290000D02*
X109740000Y-109290000D01*
X119980000Y-125180000D02*
X109740000Y-125180000D01*
X119980000Y-125180000D02*
X119980000Y-109290000D01*
X109740000Y-125180000D02*
X109740000Y-109290000D01*
X117400000Y-109290000D02*
X117400000Y-106650000D01*
X114860000Y-109290000D02*
X114860000Y-106666000D01*
X112320000Y-109290000D02*
X112320000Y-106666000D01*
X107286000Y-35000000D02*
G75*
G03X107286000Y-35000000I-2286000J0D01*
G01*
X219879170Y-105096436D02*
G75*
G03X219880000Y-101404004I-979170J1846436D01*
G01*
X217920830Y-105096436D02*
G75*
G02X217920000Y-101404004I979170J1846436D01*
G01*
X217920830Y-105096436D02*
G75*
G03X219880000Y-105095996I979170J1846436D01*
G01*
X218120000Y-103250000D02*
X216850000Y-103250000D01*
X220950000Y-103250000D02*
X219680000Y-103250000D01*
X220950000Y-103290000D02*
X219680000Y-103290000D01*
X218120000Y-103290000D02*
X216850000Y-103290000D01*
X220949000Y-103330000D02*
X219680000Y-103330000D01*
X218120000Y-103330000D02*
X216851000Y-103330000D01*
X220947000Y-103370000D02*
X219680000Y-103370000D01*
X218120000Y-103370000D02*
X216853000Y-103370000D01*
X220944000Y-103410000D02*
X219680000Y-103410000D01*
X218120000Y-103410000D02*
X216856000Y-103410000D01*
X220941000Y-103450000D02*
X219680000Y-103450000D01*
X218120000Y-103450000D02*
X216859000Y-103450000D01*
X220937000Y-103490000D02*
X219680000Y-103490000D01*
X218120000Y-103490000D02*
X216863000Y-103490000D01*
X220932000Y-103530000D02*
X219680000Y-103530000D01*
X218120000Y-103530000D02*
X216868000Y-103530000D01*
X220926000Y-103570000D02*
X219680000Y-103570000D01*
X218120000Y-103570000D02*
X216874000Y-103570000D01*
X220919000Y-103610000D02*
X219680000Y-103610000D01*
X218120000Y-103610000D02*
X216881000Y-103610000D01*
X220912000Y-103650000D02*
X219680000Y-103650000D01*
X218120000Y-103650000D02*
X216888000Y-103650000D01*
X220904000Y-103690000D02*
X219680000Y-103690000D01*
X218120000Y-103690000D02*
X216896000Y-103690000D01*
X220895000Y-103730000D02*
X219680000Y-103730000D01*
X218120000Y-103730000D02*
X216905000Y-103730000D01*
X220885000Y-103770000D02*
X219680000Y-103770000D01*
X218120000Y-103770000D02*
X216915000Y-103770000D01*
X220874000Y-103810000D02*
X219680000Y-103810000D01*
X218120000Y-103810000D02*
X216926000Y-103810000D01*
X220863000Y-103850000D02*
X219680000Y-103850000D01*
X218120000Y-103850000D02*
X216937000Y-103850000D01*
X220850000Y-103890000D02*
X219680000Y-103890000D01*
X218120000Y-103890000D02*
X216950000Y-103890000D01*
X220837000Y-103930000D02*
X219680000Y-103930000D01*
X218120000Y-103930000D02*
X216963000Y-103930000D01*
X220823000Y-103971000D02*
X219680000Y-103971000D01*
X218120000Y-103971000D02*
X216977000Y-103971000D01*
X220807000Y-104011000D02*
X219680000Y-104011000D01*
X218120000Y-104011000D02*
X216993000Y-104011000D01*
X220791000Y-104051000D02*
X219680000Y-104051000D01*
X218120000Y-104051000D02*
X217009000Y-104051000D01*
X220774000Y-104091000D02*
X219680000Y-104091000D01*
X218120000Y-104091000D02*
X217026000Y-104091000D01*
X220756000Y-104131000D02*
X219680000Y-104131000D01*
X218120000Y-104131000D02*
X217044000Y-104131000D01*
X220737000Y-104171000D02*
X219680000Y-104171000D01*
X218120000Y-104171000D02*
X217063000Y-104171000D01*
X220717000Y-104211000D02*
X219680000Y-104211000D01*
X218120000Y-104211000D02*
X217083000Y-104211000D01*
X220696000Y-104251000D02*
X219680000Y-104251000D01*
X218120000Y-104251000D02*
X217104000Y-104251000D01*
X220673000Y-104291000D02*
X219680000Y-104291000D01*
X218120000Y-104291000D02*
X217127000Y-104291000D01*
X220650000Y-104331000D02*
X219680000Y-104331000D01*
X218120000Y-104331000D02*
X217150000Y-104331000D01*
X220625000Y-104371000D02*
X219680000Y-104371000D01*
X218120000Y-104371000D02*
X217175000Y-104371000D01*
X220599000Y-104411000D02*
X219680000Y-104411000D01*
X218120000Y-104411000D02*
X217201000Y-104411000D01*
X220572000Y-104451000D02*
X219680000Y-104451000D01*
X218120000Y-104451000D02*
X217228000Y-104451000D01*
X220543000Y-104491000D02*
X219680000Y-104491000D01*
X218120000Y-104491000D02*
X217257000Y-104491000D01*
X220513000Y-104531000D02*
X219680000Y-104531000D01*
X218120000Y-104531000D02*
X217287000Y-104531000D01*
X220481000Y-104571000D02*
X219680000Y-104571000D01*
X218120000Y-104571000D02*
X217319000Y-104571000D01*
X220447000Y-104611000D02*
X219680000Y-104611000D01*
X218120000Y-104611000D02*
X217353000Y-104611000D01*
X220412000Y-104651000D02*
X219680000Y-104651000D01*
X218120000Y-104651000D02*
X217388000Y-104651000D01*
X220375000Y-104691000D02*
X219680000Y-104691000D01*
X218120000Y-104691000D02*
X217425000Y-104691000D01*
X220336000Y-104731000D02*
X219680000Y-104731000D01*
X218120000Y-104731000D02*
X217464000Y-104731000D01*
X220295000Y-104771000D02*
X219680000Y-104771000D01*
X218120000Y-104771000D02*
X217505000Y-104771000D01*
X220251000Y-104811000D02*
X217549000Y-104811000D01*
X220205000Y-104851000D02*
X217595000Y-104851000D01*
X220156000Y-104891000D02*
X217644000Y-104891000D01*
X220104000Y-104931000D02*
X217696000Y-104931000D01*
X220048000Y-104971000D02*
X217752000Y-104971000D01*
X219988000Y-105011000D02*
X217812000Y-105011000D01*
X219923000Y-105051000D02*
X217877000Y-105051000D01*
X219852000Y-105091000D02*
X217948000Y-105091000D01*
X219774000Y-105131000D02*
X218026000Y-105131000D01*
X219686000Y-105171000D02*
X218114000Y-105171000D01*
X219586000Y-105211000D02*
X218214000Y-105211000D01*
X219467000Y-105251000D02*
X218333000Y-105251000D01*
X219315000Y-105291000D02*
X218485000Y-105291000D01*
X219065000Y-105331000D02*
X218735000Y-105331000D01*
X218900000Y-100800000D02*
X218900000Y-101700000D01*
X219350000Y-101250000D02*
X218450000Y-101250000D01*
D13*
X150133334Y-48957143D02*
X150085715Y-49004762D01*
X149942858Y-49052381D01*
X149847620Y-49052381D01*
X149704762Y-49004762D01*
X149609524Y-48909524D01*
X149561905Y-48814286D01*
X149514286Y-48623810D01*
X149514286Y-48480952D01*
X149561905Y-48290476D01*
X149609524Y-48195238D01*
X149704762Y-48100000D01*
X149847620Y-48052381D01*
X149942858Y-48052381D01*
X150085715Y-48100000D01*
X150133334Y-48147619D01*
X151085715Y-49052381D02*
X150514286Y-49052381D01*
X150800000Y-49052381D02*
X150800000Y-48052381D01*
X150704762Y-48195238D01*
X150609524Y-48290476D01*
X150514286Y-48338095D01*
X133751334Y-66001143D02*
X133703715Y-66048762D01*
X133560858Y-66096381D01*
X133465620Y-66096381D01*
X133322762Y-66048762D01*
X133227524Y-65953524D01*
X133179905Y-65858286D01*
X133132286Y-65667810D01*
X133132286Y-65524952D01*
X133179905Y-65334476D01*
X133227524Y-65239238D01*
X133322762Y-65144000D01*
X133465620Y-65096381D01*
X133560858Y-65096381D01*
X133703715Y-65144000D01*
X133751334Y-65191619D01*
X134132286Y-65191619D02*
X134179905Y-65144000D01*
X134275143Y-65096381D01*
X134513239Y-65096381D01*
X134608477Y-65144000D01*
X134656096Y-65191619D01*
X134703715Y-65286857D01*
X134703715Y-65382095D01*
X134656096Y-65524952D01*
X134084667Y-66096381D01*
X134703715Y-66096381D01*
X204666667Y-31992381D02*
X204666667Y-32706667D01*
X204619047Y-32849524D01*
X204523809Y-32944762D01*
X204380952Y-32992381D01*
X204285714Y-32992381D01*
X205666667Y-32992381D02*
X205095238Y-32992381D01*
X205380952Y-32992381D02*
X205380952Y-31992381D01*
X205285714Y-32135238D01*
X205190476Y-32230476D01*
X205095238Y-32278095D01*
X184666667Y-31992381D02*
X184666667Y-32706667D01*
X184619047Y-32849524D01*
X184523809Y-32944762D01*
X184380952Y-32992381D01*
X184285714Y-32992381D01*
X185095238Y-32087619D02*
X185142857Y-32040000D01*
X185238095Y-31992381D01*
X185476191Y-31992381D01*
X185571429Y-32040000D01*
X185619048Y-32087619D01*
X185666667Y-32182857D01*
X185666667Y-32278095D01*
X185619048Y-32420952D01*
X185047619Y-32992381D01*
X185666667Y-32992381D01*
X164666667Y-31992381D02*
X164666667Y-32706667D01*
X164619047Y-32849524D01*
X164523809Y-32944762D01*
X164380952Y-32992381D01*
X164285714Y-32992381D01*
X165047619Y-31992381D02*
X165666667Y-31992381D01*
X165333333Y-32373333D01*
X165476191Y-32373333D01*
X165571429Y-32420952D01*
X165619048Y-32468571D01*
X165666667Y-32563810D01*
X165666667Y-32801905D01*
X165619048Y-32897143D01*
X165571429Y-32944762D01*
X165476191Y-32992381D01*
X165190476Y-32992381D01*
X165095238Y-32944762D01*
X165047619Y-32897143D01*
X144666667Y-31992381D02*
X144666667Y-32706667D01*
X144619047Y-32849524D01*
X144523809Y-32944762D01*
X144380952Y-32992381D01*
X144285714Y-32992381D01*
X145571429Y-32325714D02*
X145571429Y-32992381D01*
X145333333Y-31944762D02*
X145095238Y-32659048D01*
X145714286Y-32659048D01*
X124666667Y-31992381D02*
X124666667Y-32706667D01*
X124619047Y-32849524D01*
X124523809Y-32944762D01*
X124380952Y-32992381D01*
X124285714Y-32992381D01*
X125619048Y-31992381D02*
X125142857Y-31992381D01*
X125095238Y-32468571D01*
X125142857Y-32420952D01*
X125238095Y-32373333D01*
X125476191Y-32373333D01*
X125571429Y-32420952D01*
X125619048Y-32468571D01*
X125666667Y-32563810D01*
X125666667Y-32801905D01*
X125619048Y-32897143D01*
X125571429Y-32944762D01*
X125476191Y-32992381D01*
X125238095Y-32992381D01*
X125142857Y-32944762D01*
X125095238Y-32897143D01*
D11*
X221877619Y-122728571D02*
X223782381Y-122728571D01*
X222830000Y-123680952D02*
X222830000Y-121776190D01*
D13*
X179433334Y-51752381D02*
X179100000Y-51276190D01*
X178861905Y-51752381D02*
X178861905Y-50752381D01*
X179242858Y-50752381D01*
X179338096Y-50800000D01*
X179385715Y-50847619D01*
X179433334Y-50942857D01*
X179433334Y-51085714D01*
X179385715Y-51180952D01*
X179338096Y-51228571D01*
X179242858Y-51276190D01*
X178861905Y-51276190D01*
X180385715Y-51752381D02*
X179814286Y-51752381D01*
X180100000Y-51752381D02*
X180100000Y-50752381D01*
X180004762Y-50895238D01*
X179909524Y-50990476D01*
X179814286Y-51038095D01*
X112099334Y-100478381D02*
X111766000Y-100002190D01*
X111527905Y-100478381D02*
X111527905Y-99478381D01*
X111908858Y-99478381D01*
X112004096Y-99526000D01*
X112051715Y-99573619D01*
X112099334Y-99668857D01*
X112099334Y-99811714D01*
X112051715Y-99906952D01*
X112004096Y-99954571D01*
X111908858Y-100002190D01*
X111527905Y-100002190D01*
X112480286Y-99573619D02*
X112527905Y-99526000D01*
X112623143Y-99478381D01*
X112861239Y-99478381D01*
X112956477Y-99526000D01*
X113004096Y-99573619D01*
X113051715Y-99668857D01*
X113051715Y-99764095D01*
X113004096Y-99906952D01*
X112432667Y-100478381D01*
X113051715Y-100478381D01*
X186233334Y-122752381D02*
X185900000Y-122276190D01*
X185661905Y-122752381D02*
X185661905Y-121752381D01*
X186042858Y-121752381D01*
X186138096Y-121800000D01*
X186185715Y-121847619D01*
X186233334Y-121942857D01*
X186233334Y-122085714D01*
X186185715Y-122180952D01*
X186138096Y-122228571D01*
X186042858Y-122276190D01*
X185661905Y-122276190D01*
X186566667Y-121752381D02*
X187185715Y-121752381D01*
X186852381Y-122133333D01*
X186995239Y-122133333D01*
X187090477Y-122180952D01*
X187138096Y-122228571D01*
X187185715Y-122323810D01*
X187185715Y-122561905D01*
X187138096Y-122657143D01*
X187090477Y-122704762D01*
X186995239Y-122752381D01*
X186709524Y-122752381D01*
X186614286Y-122704762D01*
X186566667Y-122657143D01*
X173333334Y-64252381D02*
X173000000Y-63776190D01*
X172761905Y-64252381D02*
X172761905Y-63252381D01*
X173142858Y-63252381D01*
X173238096Y-63300000D01*
X173285715Y-63347619D01*
X173333334Y-63442857D01*
X173333334Y-63585714D01*
X173285715Y-63680952D01*
X173238096Y-63728571D01*
X173142858Y-63776190D01*
X172761905Y-63776190D01*
X174238096Y-63252381D02*
X173761905Y-63252381D01*
X173714286Y-63728571D01*
X173761905Y-63680952D01*
X173857143Y-63633333D01*
X174095239Y-63633333D01*
X174190477Y-63680952D01*
X174238096Y-63728571D01*
X174285715Y-63823810D01*
X174285715Y-64061905D01*
X174238096Y-64157143D01*
X174190477Y-64204762D01*
X174095239Y-64252381D01*
X173857143Y-64252381D01*
X173761905Y-64204762D01*
X173714286Y-64157143D01*
X194252381Y-39066666D02*
X193776190Y-39400000D01*
X194252381Y-39638095D02*
X193252381Y-39638095D01*
X193252381Y-39257142D01*
X193300000Y-39161904D01*
X193347619Y-39114285D01*
X193442857Y-39066666D01*
X193585714Y-39066666D01*
X193680952Y-39114285D01*
X193728571Y-39161904D01*
X193776190Y-39257142D01*
X193776190Y-39638095D01*
X193252381Y-38209523D02*
X193252381Y-38400000D01*
X193300000Y-38495238D01*
X193347619Y-38542857D01*
X193490476Y-38638095D01*
X193680952Y-38685714D01*
X194061905Y-38685714D01*
X194157143Y-38638095D01*
X194204762Y-38590476D01*
X194252381Y-38495238D01*
X194252381Y-38304761D01*
X194204762Y-38209523D01*
X194157143Y-38161904D01*
X194061905Y-38114285D01*
X193823810Y-38114285D01*
X193728571Y-38161904D01*
X193680952Y-38209523D01*
X193633333Y-38304761D01*
X193633333Y-38495238D01*
X193680952Y-38590476D01*
X193728571Y-38638095D01*
X193823810Y-38685714D01*
X174252381Y-38866666D02*
X173776190Y-39200000D01*
X174252381Y-39438095D02*
X173252381Y-39438095D01*
X173252381Y-39057142D01*
X173300000Y-38961904D01*
X173347619Y-38914285D01*
X173442857Y-38866666D01*
X173585714Y-38866666D01*
X173680952Y-38914285D01*
X173728571Y-38961904D01*
X173776190Y-39057142D01*
X173776190Y-39438095D01*
X173252381Y-38533333D02*
X173252381Y-37866666D01*
X174252381Y-38295238D01*
X154152381Y-38966666D02*
X153676190Y-39300000D01*
X154152381Y-39538095D02*
X153152381Y-39538095D01*
X153152381Y-39157142D01*
X153200000Y-39061904D01*
X153247619Y-39014285D01*
X153342857Y-38966666D01*
X153485714Y-38966666D01*
X153580952Y-39014285D01*
X153628571Y-39061904D01*
X153676190Y-39157142D01*
X153676190Y-39538095D01*
X153580952Y-38395238D02*
X153533333Y-38490476D01*
X153485714Y-38538095D01*
X153390476Y-38585714D01*
X153342857Y-38585714D01*
X153247619Y-38538095D01*
X153200000Y-38490476D01*
X153152381Y-38395238D01*
X153152381Y-38204761D01*
X153200000Y-38109523D01*
X153247619Y-38061904D01*
X153342857Y-38014285D01*
X153390476Y-38014285D01*
X153485714Y-38061904D01*
X153533333Y-38109523D01*
X153580952Y-38204761D01*
X153580952Y-38395238D01*
X153628571Y-38490476D01*
X153676190Y-38538095D01*
X153771429Y-38585714D01*
X153961905Y-38585714D01*
X154057143Y-38538095D01*
X154104762Y-38490476D01*
X154152381Y-38395238D01*
X154152381Y-38204761D01*
X154104762Y-38109523D01*
X154057143Y-38061904D01*
X153961905Y-38014285D01*
X153771429Y-38014285D01*
X153676190Y-38061904D01*
X153628571Y-38109523D01*
X153580952Y-38204761D01*
X133952381Y-39066666D02*
X133476190Y-39400000D01*
X133952381Y-39638095D02*
X132952381Y-39638095D01*
X132952381Y-39257142D01*
X133000000Y-39161904D01*
X133047619Y-39114285D01*
X133142857Y-39066666D01*
X133285714Y-39066666D01*
X133380952Y-39114285D01*
X133428571Y-39161904D01*
X133476190Y-39257142D01*
X133476190Y-39638095D01*
X133952381Y-38590476D02*
X133952381Y-38400000D01*
X133904762Y-38304761D01*
X133857143Y-38257142D01*
X133714286Y-38161904D01*
X133523810Y-38114285D01*
X133142857Y-38114285D01*
X133047619Y-38161904D01*
X133000000Y-38209523D01*
X132952381Y-38304761D01*
X132952381Y-38495238D01*
X133000000Y-38590476D01*
X133047619Y-38638095D01*
X133142857Y-38685714D01*
X133380952Y-38685714D01*
X133476190Y-38638095D01*
X133523810Y-38590476D01*
X133571429Y-38495238D01*
X133571429Y-38304761D01*
X133523810Y-38209523D01*
X133476190Y-38161904D01*
X133380952Y-38114285D01*
X116352381Y-44342857D02*
X115876190Y-44676191D01*
X116352381Y-44914286D02*
X115352381Y-44914286D01*
X115352381Y-44533333D01*
X115400000Y-44438095D01*
X115447619Y-44390476D01*
X115542857Y-44342857D01*
X115685714Y-44342857D01*
X115780952Y-44390476D01*
X115828571Y-44438095D01*
X115876190Y-44533333D01*
X115876190Y-44914286D01*
X116352381Y-43390476D02*
X116352381Y-43961905D01*
X116352381Y-43676191D02*
X115352381Y-43676191D01*
X115495238Y-43771429D01*
X115590476Y-43866667D01*
X115638095Y-43961905D01*
X115352381Y-42771429D02*
X115352381Y-42676190D01*
X115400000Y-42580952D01*
X115447619Y-42533333D01*
X115542857Y-42485714D01*
X115733333Y-42438095D01*
X115971429Y-42438095D01*
X116161905Y-42485714D01*
X116257143Y-42533333D01*
X116304762Y-42580952D01*
X116352381Y-42676190D01*
X116352381Y-42771429D01*
X116304762Y-42866667D01*
X116257143Y-42914286D01*
X116161905Y-42961905D01*
X115971429Y-43009524D01*
X115733333Y-43009524D01*
X115542857Y-42961905D01*
X115447619Y-42914286D01*
X115400000Y-42866667D01*
X115352381Y-42771429D01*
X225102381Y-55450952D02*
X225911905Y-55450952D01*
X226007143Y-55403333D01*
X226054762Y-55355714D01*
X226102381Y-55260476D01*
X226102381Y-55069999D01*
X226054762Y-54974761D01*
X226007143Y-54927142D01*
X225911905Y-54879523D01*
X225102381Y-54879523D01*
X226054762Y-54450952D02*
X226102381Y-54308095D01*
X226102381Y-54069999D01*
X226054762Y-53974761D01*
X226007143Y-53927142D01*
X225911905Y-53879523D01*
X225816667Y-53879523D01*
X225721429Y-53927142D01*
X225673810Y-53974761D01*
X225626190Y-54069999D01*
X225578571Y-54260476D01*
X225530952Y-54355714D01*
X225483333Y-54403333D01*
X225388095Y-54450952D01*
X225292857Y-54450952D01*
X225197619Y-54403333D01*
X225150000Y-54355714D01*
X225102381Y-54260476D01*
X225102381Y-54022380D01*
X225150000Y-53879523D01*
X225578571Y-53117618D02*
X225626190Y-52974761D01*
X225673810Y-52927142D01*
X225769048Y-52879523D01*
X225911905Y-52879523D01*
X226007143Y-52927142D01*
X226054762Y-52974761D01*
X226102381Y-53069999D01*
X226102381Y-53450952D01*
X225102381Y-53450952D01*
X225102381Y-53117618D01*
X225150000Y-53022380D01*
X225197619Y-52974761D01*
X225292857Y-52927142D01*
X225388095Y-52927142D01*
X225483333Y-52974761D01*
X225530952Y-53022380D01*
X225578571Y-53117618D01*
X225578571Y-53450952D01*
X226197619Y-52689047D02*
X226197619Y-51927142D01*
X226102381Y-51689047D02*
X225102381Y-51689047D01*
X226102381Y-51212857D02*
X225102381Y-51212857D01*
X226102381Y-50641428D01*
X225102381Y-50641428D01*
X226102381Y-49641428D02*
X226102381Y-50212857D01*
X226102381Y-49927143D02*
X225102381Y-49927143D01*
X225245238Y-50022381D01*
X225340476Y-50117619D01*
X225388095Y-50212857D01*
X109952381Y-90047619D02*
X110761905Y-90047619D01*
X110857143Y-90000000D01*
X110904762Y-89952381D01*
X110952381Y-89857143D01*
X110952381Y-89666666D01*
X110904762Y-89571428D01*
X110857143Y-89523809D01*
X110761905Y-89476190D01*
X109952381Y-89476190D01*
X110904762Y-89047619D02*
X110952381Y-88904762D01*
X110952381Y-88666666D01*
X110904762Y-88571428D01*
X110857143Y-88523809D01*
X110761905Y-88476190D01*
X110666667Y-88476190D01*
X110571429Y-88523809D01*
X110523810Y-88571428D01*
X110476190Y-88666666D01*
X110428571Y-88857143D01*
X110380952Y-88952381D01*
X110333333Y-89000000D01*
X110238095Y-89047619D01*
X110142857Y-89047619D01*
X110047619Y-89000000D01*
X110000000Y-88952381D01*
X109952381Y-88857143D01*
X109952381Y-88619047D01*
X110000000Y-88476190D01*
X110428571Y-87714285D02*
X110476190Y-87571428D01*
X110523810Y-87523809D01*
X110619048Y-87476190D01*
X110761905Y-87476190D01*
X110857143Y-87523809D01*
X110904762Y-87571428D01*
X110952381Y-87666666D01*
X110952381Y-88047619D01*
X109952381Y-88047619D01*
X109952381Y-87714285D01*
X110000000Y-87619047D01*
X110047619Y-87571428D01*
X110142857Y-87523809D01*
X110238095Y-87523809D01*
X110333333Y-87571428D01*
X110380952Y-87619047D01*
X110428571Y-87714285D01*
X110428571Y-88047619D01*
X111047619Y-87285714D02*
X111047619Y-86523809D01*
X109952381Y-86095238D02*
X109952381Y-85904761D01*
X110000000Y-85809523D01*
X110095238Y-85714285D01*
X110285714Y-85666666D01*
X110619048Y-85666666D01*
X110809524Y-85714285D01*
X110904762Y-85809523D01*
X110952381Y-85904761D01*
X110952381Y-86095238D01*
X110904762Y-86190476D01*
X110809524Y-86285714D01*
X110619048Y-86333333D01*
X110285714Y-86333333D01*
X110095238Y-86285714D01*
X110000000Y-86190476D01*
X109952381Y-86095238D01*
X109952381Y-85238095D02*
X110761905Y-85238095D01*
X110857143Y-85190476D01*
X110904762Y-85142857D01*
X110952381Y-85047619D01*
X110952381Y-84857142D01*
X110904762Y-84761904D01*
X110857143Y-84714285D01*
X110761905Y-84666666D01*
X109952381Y-84666666D01*
X109952381Y-84333333D02*
X109952381Y-83761904D01*
X110952381Y-84047619D02*
X109952381Y-84047619D01*
X110952381Y-82904761D02*
X110952381Y-83476190D01*
X110952381Y-83190476D02*
X109952381Y-83190476D01*
X110095238Y-83285714D01*
X110190476Y-83380952D01*
X110238095Y-83476190D01*
X150583334Y-64417143D02*
X150535715Y-64464762D01*
X150392858Y-64512381D01*
X150297620Y-64512381D01*
X150154762Y-64464762D01*
X150059524Y-64369524D01*
X150011905Y-64274286D01*
X149964286Y-64083810D01*
X149964286Y-63940952D01*
X150011905Y-63750476D01*
X150059524Y-63655238D01*
X150154762Y-63560000D01*
X150297620Y-63512381D01*
X150392858Y-63512381D01*
X150535715Y-63560000D01*
X150583334Y-63607619D01*
X150916667Y-63512381D02*
X151535715Y-63512381D01*
X151202381Y-63893333D01*
X151345239Y-63893333D01*
X151440477Y-63940952D01*
X151488096Y-63988571D01*
X151535715Y-64083810D01*
X151535715Y-64321905D01*
X151488096Y-64417143D01*
X151440477Y-64464762D01*
X151345239Y-64512381D01*
X151059524Y-64512381D01*
X150964286Y-64464762D01*
X150916667Y-64417143D01*
X141966667Y-130704762D02*
X142109524Y-130752381D01*
X142347620Y-130752381D01*
X142442858Y-130704762D01*
X142490477Y-130657143D01*
X142538096Y-130561905D01*
X142538096Y-130466667D01*
X142490477Y-130371429D01*
X142442858Y-130323810D01*
X142347620Y-130276190D01*
X142157143Y-130228571D01*
X142061905Y-130180952D01*
X142014286Y-130133333D01*
X141966667Y-130038095D01*
X141966667Y-129942857D01*
X142014286Y-129847619D01*
X142061905Y-129800000D01*
X142157143Y-129752381D01*
X142395239Y-129752381D01*
X142538096Y-129800000D01*
X142871429Y-129752381D02*
X143109524Y-130752381D01*
X143300001Y-130038095D01*
X143490477Y-130752381D01*
X143728572Y-129752381D01*
X144633334Y-130752381D02*
X144061905Y-130752381D01*
X144347619Y-130752381D02*
X144347619Y-129752381D01*
X144252381Y-129895238D01*
X144157143Y-129990476D01*
X144061905Y-130038095D01*
X163766667Y-130704762D02*
X163909524Y-130752381D01*
X164147620Y-130752381D01*
X164242858Y-130704762D01*
X164290477Y-130657143D01*
X164338096Y-130561905D01*
X164338096Y-130466667D01*
X164290477Y-130371429D01*
X164242858Y-130323810D01*
X164147620Y-130276190D01*
X163957143Y-130228571D01*
X163861905Y-130180952D01*
X163814286Y-130133333D01*
X163766667Y-130038095D01*
X163766667Y-129942857D01*
X163814286Y-129847619D01*
X163861905Y-129800000D01*
X163957143Y-129752381D01*
X164195239Y-129752381D01*
X164338096Y-129800000D01*
X164671429Y-129752381D02*
X164909524Y-130752381D01*
X165100001Y-130038095D01*
X165290477Y-130752381D01*
X165528572Y-129752381D01*
X165861905Y-129847619D02*
X165909524Y-129800000D01*
X166004762Y-129752381D01*
X166242858Y-129752381D01*
X166338096Y-129800000D01*
X166385715Y-129847619D01*
X166433334Y-129942857D01*
X166433334Y-130038095D01*
X166385715Y-130180952D01*
X165814286Y-130752381D01*
X166433334Y-130752381D01*
X185666667Y-130704762D02*
X185809524Y-130752381D01*
X186047620Y-130752381D01*
X186142858Y-130704762D01*
X186190477Y-130657143D01*
X186238096Y-130561905D01*
X186238096Y-130466667D01*
X186190477Y-130371429D01*
X186142858Y-130323810D01*
X186047620Y-130276190D01*
X185857143Y-130228571D01*
X185761905Y-130180952D01*
X185714286Y-130133333D01*
X185666667Y-130038095D01*
X185666667Y-129942857D01*
X185714286Y-129847619D01*
X185761905Y-129800000D01*
X185857143Y-129752381D01*
X186095239Y-129752381D01*
X186238096Y-129800000D01*
X186571429Y-129752381D02*
X186809524Y-130752381D01*
X187000001Y-130038095D01*
X187190477Y-130752381D01*
X187428572Y-129752381D01*
X187714286Y-129752381D02*
X188333334Y-129752381D01*
X188000000Y-130133333D01*
X188142858Y-130133333D01*
X188238096Y-130180952D01*
X188285715Y-130228571D01*
X188333334Y-130323810D01*
X188333334Y-130561905D01*
X188285715Y-130657143D01*
X188238096Y-130704762D01*
X188142858Y-130752381D01*
X187857143Y-130752381D01*
X187761905Y-130704762D01*
X187714286Y-130657143D01*
X114764762Y-126727619D02*
X114669524Y-126680000D01*
X114574286Y-126584762D01*
X114431429Y-126441905D01*
X114336190Y-126394286D01*
X114240952Y-126394286D01*
X114288571Y-126632381D02*
X114193333Y-126584762D01*
X114098095Y-126489524D01*
X114050476Y-126299048D01*
X114050476Y-125965714D01*
X114098095Y-125775238D01*
X114193333Y-125680000D01*
X114288571Y-125632381D01*
X114479048Y-125632381D01*
X114574286Y-125680000D01*
X114669524Y-125775238D01*
X114717143Y-125965714D01*
X114717143Y-126299048D01*
X114669524Y-126489524D01*
X114574286Y-126584762D01*
X114479048Y-126632381D01*
X114288571Y-126632381D01*
X115669524Y-126632381D02*
X115098095Y-126632381D01*
X115383809Y-126632381D02*
X115383809Y-125632381D01*
X115288571Y-125775238D01*
X115193333Y-125870476D01*
X115098095Y-125918095D01*
X222567143Y-103916666D02*
X222614762Y-103964285D01*
X222662381Y-104107142D01*
X222662381Y-104202380D01*
X222614762Y-104345238D01*
X222519524Y-104440476D01*
X222424286Y-104488095D01*
X222233810Y-104535714D01*
X222090952Y-104535714D01*
X221900476Y-104488095D01*
X221805238Y-104440476D01*
X221710000Y-104345238D01*
X221662381Y-104202380D01*
X221662381Y-104107142D01*
X221710000Y-103964285D01*
X221757619Y-103916666D01*
X222662381Y-103488095D02*
X221662381Y-103488095D01*
X221662381Y-103107142D01*
X221710000Y-103011904D01*
X221757619Y-102964285D01*
X221852857Y-102916666D01*
X221995714Y-102916666D01*
X222090952Y-102964285D01*
X222138571Y-103011904D01*
X222186190Y-103107142D01*
X222186190Y-103488095D01*
X222662381Y-101964285D02*
X222662381Y-102535714D01*
X222662381Y-102250000D02*
X221662381Y-102250000D01*
X221805238Y-102345238D01*
X221900476Y-102440476D01*
X221948095Y-102535714D01*
%LPC*%
D14*
X225000000Y-35000000D03*
X225000000Y-135000000D03*
X105000000Y-135000000D03*
D15*
X154600000Y-48400000D03*
X152100000Y-48400000D03*
X135300000Y-68000000D03*
X132800000Y-68000000D03*
D16*
X132842000Y-72390000D03*
D17*
X135382000Y-72390000D03*
X137922000Y-72390000D03*
X140462000Y-72390000D03*
X143002000Y-72390000D03*
X145542000Y-72390000D03*
X148082000Y-72390000D03*
X150622000Y-72390000D03*
X153162000Y-72390000D03*
X155702000Y-72390000D03*
X158242000Y-72390000D03*
X160782000Y-72390000D03*
X163322000Y-72390000D03*
X165862000Y-72390000D03*
X168402000Y-72390000D03*
X170942000Y-72390000D03*
D18*
X127342900Y-72390000D03*
X127342900Y-103390700D03*
X202341480Y-103390700D03*
X202342000Y-72390000D03*
D15*
X203470000Y-38300000D03*
X204490000Y-40540000D03*
X205510000Y-38300000D03*
X206530000Y-40540000D03*
D19*
X200000000Y-36000000D03*
X210000000Y-36000000D03*
D15*
X183470000Y-38300000D03*
X184490000Y-40540000D03*
X185510000Y-38300000D03*
X186530000Y-40540000D03*
D19*
X180000000Y-36000000D03*
X190000000Y-36000000D03*
D15*
X163470000Y-38300000D03*
X164490000Y-40540000D03*
X165510000Y-38300000D03*
X166530000Y-40540000D03*
D19*
X160000000Y-36000000D03*
X170000000Y-36000000D03*
D15*
X143470000Y-38300000D03*
X144490000Y-40540000D03*
X145510000Y-38300000D03*
X146530000Y-40540000D03*
D19*
X140000000Y-36000000D03*
X150000000Y-36000000D03*
D15*
X123470000Y-38300000D03*
X124490000Y-40540000D03*
X125510000Y-38300000D03*
X126530000Y-40540000D03*
D19*
X120000000Y-36000000D03*
X130000000Y-36000000D03*
D20*
X218900000Y-122400000D03*
X203900000Y-122400000D03*
D15*
X174500000Y-51400000D03*
D21*
X184660000Y-51400000D03*
D15*
X117300000Y-100000000D03*
D21*
X107140000Y-100000000D03*
D15*
X191500000Y-122300000D03*
D21*
X181340000Y-122300000D03*
D15*
X178600000Y-63800000D03*
D21*
X168440000Y-63800000D03*
D15*
X193700000Y-33800000D03*
D21*
X193700000Y-43960000D03*
D15*
X173800000Y-33800000D03*
D21*
X173800000Y-43960000D03*
D15*
X153600000Y-33800000D03*
D21*
X153600000Y-43960000D03*
D15*
X133500000Y-33800000D03*
D21*
X133500000Y-43960000D03*
D15*
X115900000Y-38900000D03*
D21*
X115900000Y-49060000D03*
D22*
X190800000Y-115740000D03*
X193300000Y-110700000D03*
X188300000Y-110700000D03*
X137500000Y-115740000D03*
X140000000Y-110700000D03*
X135000000Y-110700000D03*
D23*
X169800000Y-51400000D03*
D21*
X136780000Y-59020000D03*
X167260000Y-51400000D03*
X139320000Y-59020000D03*
X164720000Y-51400000D03*
X141860000Y-59020000D03*
X162180000Y-51400000D03*
X144400000Y-59020000D03*
X159640000Y-51400000D03*
X146940000Y-59020000D03*
X157100000Y-51400000D03*
X149480000Y-59020000D03*
X154560000Y-51400000D03*
X152020000Y-59020000D03*
X152020000Y-51400000D03*
X154560000Y-59020000D03*
X149480000Y-51400000D03*
X157100000Y-59020000D03*
X146940000Y-51400000D03*
X159640000Y-59020000D03*
X144400000Y-51400000D03*
X162180000Y-59020000D03*
X141860000Y-51400000D03*
X164720000Y-59020000D03*
X139320000Y-51400000D03*
X167260000Y-59020000D03*
X136780000Y-51400000D03*
X169800000Y-59020000D03*
D24*
X214600000Y-53840000D03*
X214600000Y-51300000D03*
X216600000Y-51300000D03*
X216600000Y-53840000D03*
D25*
X219300000Y-58570000D03*
X219300000Y-46570000D03*
D26*
X113200000Y-90310000D03*
X113200000Y-87770000D03*
X113200000Y-85740000D03*
X113200000Y-83200000D03*
D18*
X110530000Y-93360000D03*
X110530000Y-79640000D03*
D15*
X152000000Y-61700000D03*
X149500000Y-61700000D03*
D27*
X140000000Y-132500000D03*
X140000000Y-128000000D03*
X146500000Y-132500000D03*
X146500000Y-128000000D03*
X161875000Y-132500000D03*
X161875000Y-128000000D03*
X168375000Y-132500000D03*
X168375000Y-128000000D03*
X183750000Y-132500000D03*
X183750000Y-128000000D03*
X190250000Y-132500000D03*
X190250000Y-128000000D03*
D28*
X114860000Y-122260000D03*
D29*
X117400000Y-105600000D03*
D30*
X114860000Y-105600000D03*
X112320000Y-105600000D03*
D14*
X105000000Y-35000000D03*
D31*
X218900000Y-102500000D03*
D32*
X218900000Y-104000000D03*
D33*
X110800000Y-58700000D03*
D34*
X108260000Y-58700000D03*
X110800000Y-61240000D03*
X108260000Y-61240000D03*
X110800000Y-63780000D03*
X108260000Y-63780000D03*
X110800000Y-66320000D03*
X108260000Y-66320000D03*
X110800000Y-68860000D03*
X108260000Y-68860000D03*
M02*
