M48
;DRILL file {KiCad 4.0.6} date Sunday, July 23, 2017 'AMt' 01:05:11 AM
;FORMAT={-:-/ absolute / metric / decimal}
FMAT,2
METRIC,TZ
T1C0.400
T2C0.600
T3C0.800
T4C0.810
T5C0.900
T6C1.000
T7C1.016
T8C1.100
T9C1.200
T10C2.300
T11C2.500
T12C3.300
T13C2.360
T14C3.500
%
G90
G05
M71
T1
X123.9Y-63.7
X127.8Y-65.2
T2
X218.9Y-102.5
X218.9Y-104.
T3
X107.14Y-100.
X115.9Y-38.9
X115.9Y-49.06
X117.3Y-100.
X132.8Y-68.
X133.5Y-33.8
X133.5Y-43.96
X135.3Y-68.
X136.78Y-51.4
X136.78Y-59.02
X139.32Y-51.4
X139.32Y-59.02
X141.86Y-51.4
X141.86Y-59.02
X144.4Y-51.4
X144.4Y-59.02
X146.94Y-51.4
X146.94Y-59.02
X149.48Y-51.4
X149.48Y-59.02
X149.5Y-61.7
X152.Y-61.7
X152.02Y-51.4
X152.02Y-59.02
X152.1Y-48.4
X153.6Y-33.8
X153.6Y-43.96
X154.56Y-51.4
X154.56Y-59.02
X154.6Y-48.4
X157.1Y-51.4
X157.1Y-59.02
X159.64Y-51.4
X159.64Y-59.02
X162.18Y-51.4
X162.18Y-59.02
X164.72Y-51.4
X164.72Y-59.02
X167.26Y-51.4
X167.26Y-59.02
X168.44Y-63.8
X169.8Y-51.4
X169.8Y-59.02
X173.8Y-33.8
X173.8Y-43.96
X174.5Y-51.4
X178.6Y-63.8
X181.34Y-122.3
X184.66Y-51.4
X191.5Y-122.3
X193.7Y-33.8
X193.7Y-43.96
T4
X214.6Y-51.3
X214.6Y-53.84
X216.6Y-51.3
X216.6Y-53.84
T5
X123.47Y-38.3
X124.49Y-40.54
X125.51Y-38.3
X126.53Y-40.54
X143.47Y-38.3
X144.49Y-40.54
X145.51Y-38.3
X146.53Y-40.54
X163.47Y-38.3
X164.49Y-40.54
X165.51Y-38.3
X166.53Y-40.54
X183.47Y-38.3
X184.49Y-40.54
X185.51Y-38.3
X186.53Y-40.54
X203.47Y-38.3
X204.49Y-40.54
X205.51Y-38.3
X206.53Y-40.54
T6
X112.32Y-105.6
X113.2Y-83.2
X113.2Y-85.74
X113.2Y-87.77
X113.2Y-90.31
X114.86Y-105.6
X117.4Y-105.6
T7
X108.26Y-58.7
X108.26Y-61.24
X108.26Y-63.78
X108.26Y-66.32
X108.26Y-68.86
X110.8Y-58.7
X110.8Y-61.24
X110.8Y-63.78
X110.8Y-66.32
X110.8Y-68.86
T8
X140.Y-128.
X140.Y-132.5
X146.5Y-128.
X146.5Y-132.5
X161.875Y-128.
X161.875Y-132.5
X168.375Y-128.
X168.375Y-132.5
X183.75Y-128.
X183.75Y-132.5
X190.25Y-128.
X190.25Y-132.5
X203.9Y-122.4
X218.9Y-122.4
T9
X132.842Y-72.39
X135.Y-110.7
X135.382Y-72.39
X137.5Y-115.74
X137.922Y-72.39
X140.Y-110.7
X140.462Y-72.39
X143.002Y-72.39
X145.542Y-72.39
X148.082Y-72.39
X150.622Y-72.39
X153.162Y-72.39
X155.702Y-72.39
X158.242Y-72.39
X160.782Y-72.39
X163.322Y-72.39
X165.862Y-72.39
X168.402Y-72.39
X170.942Y-72.39
X188.3Y-110.7
X190.8Y-115.74
X193.3Y-110.7
T10
X110.53Y-79.64
X110.53Y-93.36
X219.3Y-46.57
X219.3Y-58.57
T11
X127.343Y-72.39
X127.343Y-103.391
X202.341Y-103.391
X202.342Y-72.39
T12
X105.Y-35.
X105.Y-135.
X225.Y-35.
X225.Y-135.
T13
X120.Y-36.
X130.Y-36.
X140.Y-36.
X150.Y-36.
X160.Y-36.
X170.Y-36.
X180.Y-36.
X190.Y-36.
X200.Y-36.
X210.Y-36.
T14
X114.86Y-122.26
T0
M30
