G04 #@! TF.FileFunction,Legend,Bot*
%FSLAX46Y46*%
G04 Gerber Fmt 4.6, Leading zero omitted, Abs format (unit mm)*
G04 Created by KiCad (PCBNEW 4.0.6) date Sunday, July 23, 2017 'AMt' 01:04:53 AM*
%MOMM*%
%LPD*%
G01*
G04 APERTURE LIST*
%ADD10C,0.100000*%
%ADD11C,0.150000*%
%ADD12C,0.120000*%
%ADD13C,5.400000*%
%ADD14C,2.000000*%
%ADD15R,2.200000X3.000000*%
%ADD16O,2.200000X3.000000*%
%ADD17C,3.400000*%
%ADD18C,2.760000*%
%ADD19C,2.600000*%
%ADD20O,2.000000X2.000000*%
%ADD21C,2.900000*%
%ADD22R,2.000000X2.000000*%
%ADD23C,1.920000*%
%ADD24C,3.100000*%
%ADD25C,1.900000*%
%ADD26C,2.400000*%
%ADD27O,3.900000X3.900000*%
%ADD28R,2.200000X2.200000*%
%ADD29O,2.200000X2.200000*%
%ADD30R,1.600000X1.600000*%
%ADD31C,1.600000*%
%ADD32R,2.127200X2.127200*%
%ADD33O,2.127200X2.127200*%
G04 APERTURE END LIST*
D10*
D11*
X193809524Y-106852381D02*
X193476191Y-107852381D01*
X193142857Y-106852381D01*
X192619048Y-106852381D02*
X192428571Y-106852381D01*
X192333333Y-106900000D01*
X192238095Y-106995238D01*
X192190476Y-107185714D01*
X192190476Y-107519048D01*
X192238095Y-107709524D01*
X192333333Y-107804762D01*
X192428571Y-107852381D01*
X192619048Y-107852381D01*
X192714286Y-107804762D01*
X192809524Y-107709524D01*
X192857143Y-107519048D01*
X192857143Y-107185714D01*
X192809524Y-106995238D01*
X192714286Y-106900000D01*
X192619048Y-106852381D01*
X191285714Y-107852381D02*
X191761905Y-107852381D01*
X191761905Y-106852381D01*
X190952381Y-106852381D02*
X190952381Y-107661905D01*
X190904762Y-107757143D01*
X190857143Y-107804762D01*
X190761905Y-107852381D01*
X190571428Y-107852381D01*
X190476190Y-107804762D01*
X190428571Y-107757143D01*
X190380952Y-107661905D01*
X190380952Y-106852381D01*
X189904762Y-107852381D02*
X189904762Y-106852381D01*
X189571428Y-107566667D01*
X189238095Y-106852381D01*
X189238095Y-107852381D01*
X188761905Y-107328571D02*
X188428571Y-107328571D01*
X188285714Y-107852381D02*
X188761905Y-107852381D01*
X188761905Y-106852381D01*
X188285714Y-106852381D01*
X141004762Y-107657143D02*
X141052381Y-107704762D01*
X141195238Y-107752381D01*
X141290476Y-107752381D01*
X141433334Y-107704762D01*
X141528572Y-107609524D01*
X141576191Y-107514286D01*
X141623810Y-107323810D01*
X141623810Y-107180952D01*
X141576191Y-106990476D01*
X141528572Y-106895238D01*
X141433334Y-106800000D01*
X141290476Y-106752381D01*
X141195238Y-106752381D01*
X141052381Y-106800000D01*
X141004762Y-106847619D01*
X140385715Y-106752381D02*
X140195238Y-106752381D01*
X140100000Y-106800000D01*
X140004762Y-106895238D01*
X139957143Y-107085714D01*
X139957143Y-107419048D01*
X140004762Y-107609524D01*
X140100000Y-107704762D01*
X140195238Y-107752381D01*
X140385715Y-107752381D01*
X140480953Y-107704762D01*
X140576191Y-107609524D01*
X140623810Y-107419048D01*
X140623810Y-107085714D01*
X140576191Y-106895238D01*
X140480953Y-106800000D01*
X140385715Y-106752381D01*
X139528572Y-107752381D02*
X139528572Y-106752381D01*
X138957143Y-107752381D01*
X138957143Y-106752381D01*
X138623810Y-106752381D02*
X138052381Y-106752381D01*
X138338096Y-107752381D02*
X138338096Y-106752381D01*
X137147619Y-107752381D02*
X137480953Y-107276190D01*
X137719048Y-107752381D02*
X137719048Y-106752381D01*
X137338095Y-106752381D01*
X137242857Y-106800000D01*
X137195238Y-106847619D01*
X137147619Y-106942857D01*
X137147619Y-107085714D01*
X137195238Y-107180952D01*
X137242857Y-107228571D01*
X137338095Y-107276190D01*
X137719048Y-107276190D01*
X136766667Y-107466667D02*
X136290476Y-107466667D01*
X136861905Y-107752381D02*
X136528572Y-106752381D01*
X136195238Y-107752381D01*
X135909524Y-107704762D02*
X135766667Y-107752381D01*
X135528571Y-107752381D01*
X135433333Y-107704762D01*
X135385714Y-107657143D01*
X135338095Y-107561905D01*
X135338095Y-107466667D01*
X135385714Y-107371429D01*
X135433333Y-107323810D01*
X135528571Y-107276190D01*
X135719048Y-107228571D01*
X135814286Y-107180952D01*
X135861905Y-107133333D01*
X135909524Y-107038095D01*
X135909524Y-106942857D01*
X135861905Y-106847619D01*
X135814286Y-106800000D01*
X135719048Y-106752381D01*
X135480952Y-106752381D01*
X135338095Y-106800000D01*
X135052381Y-106752381D02*
X134480952Y-106752381D01*
X134766667Y-107752381D02*
X134766667Y-106752381D01*
D12*
X194150000Y-109550000D02*
X194150000Y-109300000D01*
X194150000Y-109300000D02*
X193900000Y-109300000D01*
X193900000Y-109300000D02*
X193900000Y-109050000D01*
X193900000Y-109050000D02*
X192650000Y-109050000D01*
X192650000Y-109050000D02*
X192650000Y-109300000D01*
X192650000Y-109300000D02*
X189000000Y-109300000D01*
X189000000Y-109300000D02*
X189000000Y-109050000D01*
X189000000Y-109050000D02*
X187700000Y-109050000D01*
X187700000Y-109050000D02*
X187700000Y-109300000D01*
X187700000Y-109300000D02*
X187400000Y-109300000D01*
X187400000Y-109300000D02*
X187400000Y-109550000D01*
X191950000Y-116600000D02*
X192850000Y-116600000D01*
X192850000Y-116600000D02*
X194200000Y-115100000D01*
X194200000Y-115100000D02*
X194200000Y-111800000D01*
X187400000Y-111800000D02*
X187400000Y-115150000D01*
X187400000Y-115150000D02*
X188750000Y-116600000D01*
X188750000Y-116600000D02*
X189650000Y-116600000D01*
X140850000Y-109550000D02*
X140850000Y-109300000D01*
X140850000Y-109300000D02*
X140600000Y-109300000D01*
X140600000Y-109300000D02*
X140600000Y-109050000D01*
X140600000Y-109050000D02*
X139350000Y-109050000D01*
X139350000Y-109050000D02*
X139350000Y-109300000D01*
X139350000Y-109300000D02*
X135700000Y-109300000D01*
X135700000Y-109300000D02*
X135700000Y-109050000D01*
X135700000Y-109050000D02*
X134400000Y-109050000D01*
X134400000Y-109050000D02*
X134400000Y-109300000D01*
X134400000Y-109300000D02*
X134100000Y-109300000D01*
X134100000Y-109300000D02*
X134100000Y-109550000D01*
X138650000Y-116600000D02*
X139550000Y-116600000D01*
X139550000Y-116600000D02*
X140900000Y-115100000D01*
X140900000Y-115100000D02*
X140900000Y-111800000D01*
X134100000Y-111800000D02*
X134100000Y-115150000D01*
X134100000Y-115150000D02*
X135450000Y-116600000D01*
X135450000Y-116600000D02*
X136350000Y-116600000D01*
X104730000Y-53370000D02*
X104730000Y-74190000D01*
X104730000Y-74190000D02*
X114330000Y-74190000D01*
X114330000Y-74190000D02*
X114330000Y-53370000D01*
X114330000Y-53370000D02*
X104730000Y-53370000D01*
D11*
X191152381Y-112104762D02*
X190676190Y-111771428D01*
X191152381Y-111533333D02*
X190152381Y-111533333D01*
X190152381Y-111914286D01*
X190200000Y-112009524D01*
X190247619Y-112057143D01*
X190342857Y-112104762D01*
X190485714Y-112104762D01*
X190580952Y-112057143D01*
X190628571Y-112009524D01*
X190676190Y-111914286D01*
X190676190Y-111533333D01*
X190152381Y-112390476D02*
X191152381Y-112723809D01*
X190152381Y-113057143D01*
X191152381Y-113914286D02*
X191152381Y-113342857D01*
X191152381Y-113628571D02*
X190152381Y-113628571D01*
X190295238Y-113533333D01*
X190390476Y-113438095D01*
X190438095Y-113342857D01*
X137995238Y-113452381D02*
X138328572Y-112976190D01*
X138566667Y-113452381D02*
X138566667Y-112452381D01*
X138185714Y-112452381D01*
X138090476Y-112500000D01*
X138042857Y-112547619D01*
X137995238Y-112642857D01*
X137995238Y-112785714D01*
X138042857Y-112880952D01*
X138090476Y-112928571D01*
X138185714Y-112976190D01*
X138566667Y-112976190D01*
X137709524Y-112452381D02*
X137376191Y-113452381D01*
X137042857Y-112452381D01*
X136757143Y-112547619D02*
X136709524Y-112500000D01*
X136614286Y-112452381D01*
X136376190Y-112452381D01*
X136280952Y-112500000D01*
X136233333Y-112547619D01*
X136185714Y-112642857D01*
X136185714Y-112738095D01*
X136233333Y-112880952D01*
X136804762Y-113452381D01*
X136185714Y-113452381D01*
D12*
X112972381Y-59005715D02*
X112972381Y-58434286D01*
X112972381Y-58720000D02*
X111972381Y-58720000D01*
X112115238Y-58624762D01*
X112210476Y-58529524D01*
X112258095Y-58434286D01*
%LPC*%
D13*
X225000000Y-35000000D03*
X225000000Y-135000000D03*
X105000000Y-135000000D03*
D14*
X154600000Y-48400000D03*
X152100000Y-48400000D03*
X135300000Y-68000000D03*
X132800000Y-68000000D03*
D15*
X132842000Y-72390000D03*
D16*
X135382000Y-72390000D03*
X137922000Y-72390000D03*
X140462000Y-72390000D03*
X143002000Y-72390000D03*
X145542000Y-72390000D03*
X148082000Y-72390000D03*
X150622000Y-72390000D03*
X153162000Y-72390000D03*
X155702000Y-72390000D03*
X158242000Y-72390000D03*
X160782000Y-72390000D03*
X163322000Y-72390000D03*
X165862000Y-72390000D03*
X168402000Y-72390000D03*
X170942000Y-72390000D03*
D17*
X127342900Y-72390000D03*
X127342900Y-103390700D03*
X202341480Y-103390700D03*
X202342000Y-72390000D03*
D14*
X203470000Y-38300000D03*
X204490000Y-40540000D03*
X205510000Y-38300000D03*
X206530000Y-40540000D03*
D18*
X200000000Y-36000000D03*
X210000000Y-36000000D03*
D14*
X183470000Y-38300000D03*
X184490000Y-40540000D03*
X185510000Y-38300000D03*
X186530000Y-40540000D03*
D18*
X180000000Y-36000000D03*
X190000000Y-36000000D03*
D14*
X163470000Y-38300000D03*
X164490000Y-40540000D03*
X165510000Y-38300000D03*
X166530000Y-40540000D03*
D18*
X160000000Y-36000000D03*
X170000000Y-36000000D03*
D14*
X143470000Y-38300000D03*
X144490000Y-40540000D03*
X145510000Y-38300000D03*
X146530000Y-40540000D03*
D18*
X140000000Y-36000000D03*
X150000000Y-36000000D03*
D14*
X123470000Y-38300000D03*
X124490000Y-40540000D03*
X125510000Y-38300000D03*
X126530000Y-40540000D03*
D18*
X120000000Y-36000000D03*
X130000000Y-36000000D03*
D19*
X218900000Y-122400000D03*
X203900000Y-122400000D03*
D14*
X174500000Y-51400000D03*
D20*
X184660000Y-51400000D03*
D14*
X117300000Y-100000000D03*
D20*
X107140000Y-100000000D03*
D14*
X191500000Y-122300000D03*
D20*
X181340000Y-122300000D03*
D14*
X178600000Y-63800000D03*
D20*
X168440000Y-63800000D03*
D14*
X193700000Y-33800000D03*
D20*
X193700000Y-43960000D03*
D14*
X173800000Y-33800000D03*
D20*
X173800000Y-43960000D03*
D14*
X153600000Y-33800000D03*
D20*
X153600000Y-43960000D03*
D14*
X133500000Y-33800000D03*
D20*
X133500000Y-43960000D03*
D14*
X115900000Y-38900000D03*
D20*
X115900000Y-49060000D03*
D21*
X190800000Y-115740000D03*
X193300000Y-110700000D03*
X188300000Y-110700000D03*
X137500000Y-115740000D03*
X140000000Y-110700000D03*
X135000000Y-110700000D03*
D22*
X169800000Y-51400000D03*
D20*
X136780000Y-59020000D03*
X167260000Y-51400000D03*
X139320000Y-59020000D03*
X164720000Y-51400000D03*
X141860000Y-59020000D03*
X162180000Y-51400000D03*
X144400000Y-59020000D03*
X159640000Y-51400000D03*
X146940000Y-59020000D03*
X157100000Y-51400000D03*
X149480000Y-59020000D03*
X154560000Y-51400000D03*
X152020000Y-59020000D03*
X152020000Y-51400000D03*
X154560000Y-59020000D03*
X149480000Y-51400000D03*
X157100000Y-59020000D03*
X146940000Y-51400000D03*
X159640000Y-59020000D03*
X144400000Y-51400000D03*
X162180000Y-59020000D03*
X141860000Y-51400000D03*
X164720000Y-59020000D03*
X139320000Y-51400000D03*
X167260000Y-59020000D03*
X136780000Y-51400000D03*
X169800000Y-59020000D03*
D23*
X214600000Y-53840000D03*
X214600000Y-51300000D03*
X216600000Y-51300000D03*
X216600000Y-53840000D03*
D24*
X219300000Y-58570000D03*
X219300000Y-46570000D03*
D25*
X113200000Y-90310000D03*
X113200000Y-87770000D03*
X113200000Y-85740000D03*
X113200000Y-83200000D03*
D17*
X110530000Y-93360000D03*
X110530000Y-79640000D03*
D14*
X152000000Y-61700000D03*
X149500000Y-61700000D03*
D26*
X140000000Y-132500000D03*
X140000000Y-128000000D03*
X146500000Y-132500000D03*
X146500000Y-128000000D03*
X161875000Y-132500000D03*
X161875000Y-128000000D03*
X168375000Y-132500000D03*
X168375000Y-128000000D03*
X183750000Y-132500000D03*
X183750000Y-128000000D03*
X190250000Y-132500000D03*
X190250000Y-128000000D03*
D27*
X114860000Y-122260000D03*
D28*
X117400000Y-105600000D03*
D29*
X114860000Y-105600000D03*
X112320000Y-105600000D03*
D13*
X105000000Y-35000000D03*
D30*
X218900000Y-102500000D03*
D31*
X218900000Y-104000000D03*
D32*
X110800000Y-58700000D03*
D33*
X108260000Y-58700000D03*
X110800000Y-61240000D03*
X108260000Y-61240000D03*
X110800000Y-63780000D03*
X108260000Y-63780000D03*
X110800000Y-66320000D03*
X108260000Y-66320000D03*
X110800000Y-68860000D03*
X108260000Y-68860000D03*
M02*
