G04 #@! TF.FileFunction,Copper,L2,Bot,Signal*
%FSLAX46Y46*%
G04 Gerber Fmt 4.6, Leading zero omitted, Abs format (unit mm)*
G04 Created by KiCad (PCBNEW 4.0.6) date Sunday, July 23, 2017 'AMt' 01:04:53 AM*
%MOMM*%
%LPD*%
G01*
G04 APERTURE LIST*
%ADD10C,0.100000*%
%ADD11C,5.000000*%
%ADD12C,1.600000*%
%ADD13R,1.800000X2.600000*%
%ADD14O,1.800000X2.600000*%
%ADD15C,3.000000*%
%ADD16C,2.200000*%
%ADD17O,1.600000X1.600000*%
%ADD18C,2.500000*%
%ADD19R,1.600000X1.600000*%
%ADD20C,1.520000*%
%ADD21C,2.700000*%
%ADD22C,1.500000*%
%ADD23C,2.000000*%
%ADD24R,1.800000X1.800000*%
%ADD25O,1.800000X1.800000*%
%ADD26R,1.200000X1.200000*%
%ADD27C,1.200000*%
%ADD28R,1.727200X1.727200*%
%ADD29O,1.727200X1.727200*%
%ADD30C,0.600000*%
%ADD31C,0.500000*%
%ADD32C,0.250000*%
%ADD33C,0.254000*%
G04 APERTURE END LIST*
D10*
D11*
X225000000Y-35000000D03*
X225000000Y-135000000D03*
X105000000Y-135000000D03*
D12*
X154600000Y-48400000D03*
X152100000Y-48400000D03*
X135300000Y-68000000D03*
X132800000Y-68000000D03*
D13*
X132842000Y-72390000D03*
D14*
X135382000Y-72390000D03*
X137922000Y-72390000D03*
X140462000Y-72390000D03*
X143002000Y-72390000D03*
X145542000Y-72390000D03*
X148082000Y-72390000D03*
X150622000Y-72390000D03*
X153162000Y-72390000D03*
X155702000Y-72390000D03*
X158242000Y-72390000D03*
X160782000Y-72390000D03*
X163322000Y-72390000D03*
X165862000Y-72390000D03*
X168402000Y-72390000D03*
X170942000Y-72390000D03*
D15*
X127342900Y-72390000D03*
X127342900Y-103390700D03*
X202341480Y-103390700D03*
X202342000Y-72390000D03*
D12*
X203470000Y-38300000D03*
X204490000Y-40540000D03*
X205510000Y-38300000D03*
X206530000Y-40540000D03*
X183470000Y-38300000D03*
X184490000Y-40540000D03*
X185510000Y-38300000D03*
X186530000Y-40540000D03*
X163470000Y-38300000D03*
X164490000Y-40540000D03*
X165510000Y-38300000D03*
X166530000Y-40540000D03*
X143470000Y-38300000D03*
X144490000Y-40540000D03*
X145510000Y-38300000D03*
X146530000Y-40540000D03*
X123470000Y-38300000D03*
X124490000Y-40540000D03*
X125510000Y-38300000D03*
X126530000Y-40540000D03*
D16*
X218900000Y-122400000D03*
X203900000Y-122400000D03*
D12*
X174500000Y-51400000D03*
D17*
X184660000Y-51400000D03*
D12*
X117300000Y-100000000D03*
D17*
X107140000Y-100000000D03*
D12*
X191500000Y-122300000D03*
D17*
X181340000Y-122300000D03*
D12*
X178600000Y-63800000D03*
D17*
X168440000Y-63800000D03*
D12*
X193700000Y-33800000D03*
D17*
X193700000Y-43960000D03*
D12*
X173800000Y-33800000D03*
D17*
X173800000Y-43960000D03*
D12*
X153600000Y-33800000D03*
D17*
X153600000Y-43960000D03*
D12*
X133500000Y-33800000D03*
D17*
X133500000Y-43960000D03*
D12*
X115900000Y-38900000D03*
D17*
X115900000Y-49060000D03*
D18*
X190800000Y-115740000D03*
X193300000Y-110700000D03*
X188300000Y-110700000D03*
X137500000Y-115740000D03*
X140000000Y-110700000D03*
X135000000Y-110700000D03*
D19*
X169800000Y-51400000D03*
D17*
X136780000Y-59020000D03*
X167260000Y-51400000D03*
X139320000Y-59020000D03*
X164720000Y-51400000D03*
X141860000Y-59020000D03*
X162180000Y-51400000D03*
X144400000Y-59020000D03*
X159640000Y-51400000D03*
X146940000Y-59020000D03*
X157100000Y-51400000D03*
X149480000Y-59020000D03*
X154560000Y-51400000D03*
X152020000Y-59020000D03*
X152020000Y-51400000D03*
X154560000Y-59020000D03*
X149480000Y-51400000D03*
X157100000Y-59020000D03*
X146940000Y-51400000D03*
X159640000Y-59020000D03*
X144400000Y-51400000D03*
X162180000Y-59020000D03*
X141860000Y-51400000D03*
X164720000Y-59020000D03*
X139320000Y-51400000D03*
X167260000Y-59020000D03*
X136780000Y-51400000D03*
X169800000Y-59020000D03*
D20*
X214600000Y-53840000D03*
X214600000Y-51300000D03*
X216600000Y-51300000D03*
X216600000Y-53840000D03*
D21*
X219300000Y-58570000D03*
X219300000Y-46570000D03*
D22*
X113200000Y-90310000D03*
X113200000Y-87770000D03*
X113200000Y-85740000D03*
X113200000Y-83200000D03*
D15*
X110530000Y-93360000D03*
X110530000Y-79640000D03*
D12*
X152000000Y-61700000D03*
X149500000Y-61700000D03*
D23*
X140000000Y-132500000D03*
X140000000Y-128000000D03*
X146500000Y-132500000D03*
X146500000Y-128000000D03*
X161875000Y-132500000D03*
X161875000Y-128000000D03*
X168375000Y-132500000D03*
X168375000Y-128000000D03*
X183750000Y-132500000D03*
X183750000Y-128000000D03*
X190250000Y-132500000D03*
X190250000Y-128000000D03*
D24*
X117400000Y-105600000D03*
D25*
X114860000Y-105600000D03*
X112320000Y-105600000D03*
D11*
X105000000Y-35000000D03*
D26*
X218900000Y-102500000D03*
D27*
X218900000Y-104000000D03*
D28*
X110800000Y-58700000D03*
D29*
X108260000Y-58700000D03*
X110800000Y-61240000D03*
X108260000Y-61240000D03*
X110800000Y-63780000D03*
X108260000Y-63780000D03*
X110800000Y-66320000D03*
X108260000Y-66320000D03*
X110800000Y-68860000D03*
X108260000Y-68860000D03*
D30*
X127800000Y-65200000D03*
X123900000Y-63700000D03*
D31*
X178600000Y-63800000D02*
X178600000Y-62100000D01*
X152700000Y-64900000D02*
X149500000Y-61700000D01*
X155900000Y-64900000D02*
X152700000Y-64900000D01*
X159600000Y-61200000D02*
X155900000Y-64900000D01*
X177700000Y-61200000D02*
X159600000Y-61200000D01*
X178600000Y-62100000D02*
X177700000Y-61200000D01*
D32*
X138100000Y-72568000D02*
X137922000Y-72390000D01*
X183750000Y-128000000D02*
X183750000Y-70350000D01*
X183750000Y-70350000D02*
X179600000Y-66200000D01*
X179600000Y-66200000D02*
X151580000Y-66200000D01*
X151580000Y-66200000D02*
X144400000Y-59020000D01*
X141860000Y-59020000D02*
X141860000Y-59240000D01*
X141860000Y-59240000D02*
X135900000Y-65200000D01*
X152775000Y-118900000D02*
X161875000Y-128000000D01*
X133800000Y-118900000D02*
X152775000Y-118900000D01*
X123100000Y-108200000D02*
X133800000Y-118900000D01*
X123100000Y-69900000D02*
X123100000Y-108200000D01*
X127800000Y-65200000D02*
X124900000Y-68100000D01*
X124900000Y-68100000D02*
X123100000Y-69900000D01*
X135900000Y-65200000D02*
X127800000Y-65200000D01*
X141860000Y-59020000D02*
X141860000Y-59060000D01*
X141860000Y-59060000D02*
X151200000Y-68400000D01*
X151200000Y-68400000D02*
X173800000Y-68400000D01*
X173800000Y-68400000D02*
X175200000Y-69800000D01*
X175200000Y-69800000D02*
X175200000Y-108800000D01*
X175200000Y-108800000D02*
X168375000Y-115625000D01*
X168375000Y-115625000D02*
X168375000Y-128000000D01*
X167100000Y-54100000D02*
X169800000Y-51400000D01*
X133500000Y-54100000D02*
X167100000Y-54100000D01*
X123900000Y-63700000D02*
X133500000Y-54100000D01*
X204200000Y-122100000D02*
X204300000Y-122000000D01*
X136780000Y-59020000D02*
X138900000Y-56900000D01*
X218900000Y-100000000D02*
X218900000Y-102500000D01*
X175800000Y-56900000D02*
X218900000Y-100000000D01*
X138900000Y-56900000D02*
X175800000Y-56900000D01*
X117300000Y-100000000D02*
X117300000Y-68400000D01*
X125900000Y-51400000D02*
X136780000Y-51400000D01*
X121900000Y-55400000D02*
X125900000Y-51400000D01*
X121900000Y-63800000D02*
X121900000Y-55400000D01*
X117300000Y-68400000D02*
X121900000Y-63800000D01*
X139320000Y-59020000D02*
X139320000Y-59280000D01*
X139320000Y-59280000D02*
X134900000Y-63700000D01*
X134900000Y-63700000D02*
X127100000Y-63700000D01*
X127100000Y-63700000D02*
X121400000Y-69400000D01*
X121400000Y-69400000D02*
X121400000Y-109000000D01*
X121400000Y-109000000D02*
X140000000Y-127600000D01*
X140000000Y-127600000D02*
X140000000Y-128000000D01*
X140000000Y-128000000D02*
X140000000Y-127600000D01*
D33*
G36*
X229290000Y-139290000D02*
X100710000Y-139290000D01*
X100710000Y-135620854D01*
X101864457Y-135620854D01*
X102340727Y-136773515D01*
X103221847Y-137656174D01*
X104373674Y-138134454D01*
X105620854Y-138135543D01*
X106773515Y-137659273D01*
X107656174Y-136778153D01*
X108134454Y-135626326D01*
X108134458Y-135620854D01*
X221864457Y-135620854D01*
X222340727Y-136773515D01*
X223221847Y-137656174D01*
X224373674Y-138134454D01*
X225620854Y-138135543D01*
X226773515Y-137659273D01*
X227656174Y-136778153D01*
X228134454Y-135626326D01*
X228135543Y-134379146D01*
X227659273Y-133226485D01*
X226778153Y-132343826D01*
X225626326Y-131865546D01*
X224379146Y-131864457D01*
X223226485Y-132340727D01*
X222343826Y-133221847D01*
X221865546Y-134373674D01*
X221864457Y-135620854D01*
X108134458Y-135620854D01*
X108135543Y-134379146D01*
X107835313Y-133652532D01*
X139027073Y-133652532D01*
X139125736Y-133919387D01*
X139735461Y-134145908D01*
X140385460Y-134121856D01*
X140874264Y-133919387D01*
X140972927Y-133652532D01*
X145527073Y-133652532D01*
X145625736Y-133919387D01*
X146235461Y-134145908D01*
X146885460Y-134121856D01*
X147374264Y-133919387D01*
X147472927Y-133652532D01*
X160902073Y-133652532D01*
X161000736Y-133919387D01*
X161610461Y-134145908D01*
X162260460Y-134121856D01*
X162749264Y-133919387D01*
X162847927Y-133652532D01*
X167402073Y-133652532D01*
X167500736Y-133919387D01*
X168110461Y-134145908D01*
X168760460Y-134121856D01*
X169249264Y-133919387D01*
X169347927Y-133652532D01*
X182777073Y-133652532D01*
X182875736Y-133919387D01*
X183485461Y-134145908D01*
X184135460Y-134121856D01*
X184624264Y-133919387D01*
X184722927Y-133652532D01*
X189277073Y-133652532D01*
X189375736Y-133919387D01*
X189985461Y-134145908D01*
X190635460Y-134121856D01*
X191124264Y-133919387D01*
X191222927Y-133652532D01*
X190250000Y-132679605D01*
X189277073Y-133652532D01*
X184722927Y-133652532D01*
X183750000Y-132679605D01*
X182777073Y-133652532D01*
X169347927Y-133652532D01*
X168375000Y-132679605D01*
X167402073Y-133652532D01*
X162847927Y-133652532D01*
X161875000Y-132679605D01*
X160902073Y-133652532D01*
X147472927Y-133652532D01*
X146500000Y-132679605D01*
X145527073Y-133652532D01*
X140972927Y-133652532D01*
X140000000Y-132679605D01*
X139027073Y-133652532D01*
X107835313Y-133652532D01*
X107659273Y-133226485D01*
X106778153Y-132343826D01*
X106517181Y-132235461D01*
X138354092Y-132235461D01*
X138378144Y-132885460D01*
X138580613Y-133374264D01*
X138847468Y-133472927D01*
X139820395Y-132500000D01*
X140179605Y-132500000D01*
X141152532Y-133472927D01*
X141419387Y-133374264D01*
X141645908Y-132764539D01*
X141626331Y-132235461D01*
X144854092Y-132235461D01*
X144878144Y-132885460D01*
X145080613Y-133374264D01*
X145347468Y-133472927D01*
X146320395Y-132500000D01*
X146679605Y-132500000D01*
X147652532Y-133472927D01*
X147919387Y-133374264D01*
X148145908Y-132764539D01*
X148126331Y-132235461D01*
X160229092Y-132235461D01*
X160253144Y-132885460D01*
X160455613Y-133374264D01*
X160722468Y-133472927D01*
X161695395Y-132500000D01*
X162054605Y-132500000D01*
X163027532Y-133472927D01*
X163294387Y-133374264D01*
X163520908Y-132764539D01*
X163501331Y-132235461D01*
X166729092Y-132235461D01*
X166753144Y-132885460D01*
X166955613Y-133374264D01*
X167222468Y-133472927D01*
X168195395Y-132500000D01*
X168554605Y-132500000D01*
X169527532Y-133472927D01*
X169794387Y-133374264D01*
X170020908Y-132764539D01*
X170001331Y-132235461D01*
X182104092Y-132235461D01*
X182128144Y-132885460D01*
X182330613Y-133374264D01*
X182597468Y-133472927D01*
X183570395Y-132500000D01*
X183929605Y-132500000D01*
X184902532Y-133472927D01*
X185169387Y-133374264D01*
X185395908Y-132764539D01*
X185376331Y-132235461D01*
X188604092Y-132235461D01*
X188628144Y-132885460D01*
X188830613Y-133374264D01*
X189097468Y-133472927D01*
X190070395Y-132500000D01*
X190429605Y-132500000D01*
X191402532Y-133472927D01*
X191669387Y-133374264D01*
X191895908Y-132764539D01*
X191871856Y-132114540D01*
X191669387Y-131625736D01*
X191402532Y-131527073D01*
X190429605Y-132500000D01*
X190070395Y-132500000D01*
X189097468Y-131527073D01*
X188830613Y-131625736D01*
X188604092Y-132235461D01*
X185376331Y-132235461D01*
X185371856Y-132114540D01*
X185169387Y-131625736D01*
X184902532Y-131527073D01*
X183929605Y-132500000D01*
X183570395Y-132500000D01*
X182597468Y-131527073D01*
X182330613Y-131625736D01*
X182104092Y-132235461D01*
X170001331Y-132235461D01*
X169996856Y-132114540D01*
X169794387Y-131625736D01*
X169527532Y-131527073D01*
X168554605Y-132500000D01*
X168195395Y-132500000D01*
X167222468Y-131527073D01*
X166955613Y-131625736D01*
X166729092Y-132235461D01*
X163501331Y-132235461D01*
X163496856Y-132114540D01*
X163294387Y-131625736D01*
X163027532Y-131527073D01*
X162054605Y-132500000D01*
X161695395Y-132500000D01*
X160722468Y-131527073D01*
X160455613Y-131625736D01*
X160229092Y-132235461D01*
X148126331Y-132235461D01*
X148121856Y-132114540D01*
X147919387Y-131625736D01*
X147652532Y-131527073D01*
X146679605Y-132500000D01*
X146320395Y-132500000D01*
X145347468Y-131527073D01*
X145080613Y-131625736D01*
X144854092Y-132235461D01*
X141626331Y-132235461D01*
X141621856Y-132114540D01*
X141419387Y-131625736D01*
X141152532Y-131527073D01*
X140179605Y-132500000D01*
X139820395Y-132500000D01*
X138847468Y-131527073D01*
X138580613Y-131625736D01*
X138354092Y-132235461D01*
X106517181Y-132235461D01*
X105626326Y-131865546D01*
X104379146Y-131864457D01*
X103226485Y-132340727D01*
X102343826Y-133221847D01*
X101865546Y-134373674D01*
X101864457Y-135620854D01*
X100710000Y-135620854D01*
X100710000Y-131347468D01*
X139027073Y-131347468D01*
X140000000Y-132320395D01*
X140972927Y-131347468D01*
X145527073Y-131347468D01*
X146500000Y-132320395D01*
X147472927Y-131347468D01*
X160902073Y-131347468D01*
X161875000Y-132320395D01*
X162847927Y-131347468D01*
X167402073Y-131347468D01*
X168375000Y-132320395D01*
X169347927Y-131347468D01*
X182777073Y-131347468D01*
X183750000Y-132320395D01*
X184722927Y-131347468D01*
X189277073Y-131347468D01*
X190250000Y-132320395D01*
X191222927Y-131347468D01*
X191124264Y-131080613D01*
X190514539Y-130854092D01*
X189864540Y-130878144D01*
X189375736Y-131080613D01*
X189277073Y-131347468D01*
X184722927Y-131347468D01*
X184624264Y-131080613D01*
X184014539Y-130854092D01*
X183364540Y-130878144D01*
X182875736Y-131080613D01*
X182777073Y-131347468D01*
X169347927Y-131347468D01*
X169249264Y-131080613D01*
X168639539Y-130854092D01*
X167989540Y-130878144D01*
X167500736Y-131080613D01*
X167402073Y-131347468D01*
X162847927Y-131347468D01*
X162749264Y-131080613D01*
X162139539Y-130854092D01*
X161489540Y-130878144D01*
X161000736Y-131080613D01*
X160902073Y-131347468D01*
X147472927Y-131347468D01*
X147374264Y-131080613D01*
X146764539Y-130854092D01*
X146114540Y-130878144D01*
X145625736Y-131080613D01*
X145527073Y-131347468D01*
X140972927Y-131347468D01*
X140874264Y-131080613D01*
X140264539Y-130854092D01*
X139614540Y-130878144D01*
X139125736Y-131080613D01*
X139027073Y-131347468D01*
X100710000Y-131347468D01*
X100710000Y-122260000D01*
X112428275Y-122260000D01*
X112609822Y-123172700D01*
X113126825Y-123946450D01*
X113900575Y-124463453D01*
X114813275Y-124645000D01*
X114906725Y-124645000D01*
X115819425Y-124463453D01*
X116593175Y-123946450D01*
X117110178Y-123172700D01*
X117291725Y-122260000D01*
X117110178Y-121347300D01*
X116593175Y-120573550D01*
X115819425Y-120056547D01*
X114906725Y-119875000D01*
X114813275Y-119875000D01*
X113900575Y-120056547D01*
X113126825Y-120573550D01*
X112609822Y-121347300D01*
X112428275Y-122260000D01*
X100710000Y-122260000D01*
X100710000Y-105964740D01*
X110828964Y-105964740D01*
X111007760Y-106396417D01*
X111412424Y-106837966D01*
X111955258Y-107091046D01*
X112193000Y-106970997D01*
X112193000Y-105727000D01*
X110949622Y-105727000D01*
X110828964Y-105964740D01*
X100710000Y-105964740D01*
X100710000Y-105235260D01*
X110828964Y-105235260D01*
X110949622Y-105473000D01*
X112193000Y-105473000D01*
X112193000Y-104229003D01*
X112447000Y-104229003D01*
X112447000Y-105473000D01*
X112467000Y-105473000D01*
X112467000Y-105727000D01*
X112447000Y-105727000D01*
X112447000Y-106970997D01*
X112684742Y-107091046D01*
X113227576Y-106837966D01*
X113585499Y-106447418D01*
X113744519Y-106685409D01*
X114242509Y-107018155D01*
X114829928Y-107135000D01*
X114890072Y-107135000D01*
X115477491Y-107018155D01*
X115898026Y-106737163D01*
X116035910Y-106951441D01*
X116248110Y-107096431D01*
X116500000Y-107147440D01*
X118300000Y-107147440D01*
X118535317Y-107103162D01*
X118751441Y-106964090D01*
X118896431Y-106751890D01*
X118947440Y-106500000D01*
X118947440Y-104700000D01*
X118903162Y-104464683D01*
X118764090Y-104248559D01*
X118551890Y-104103569D01*
X118300000Y-104052560D01*
X116500000Y-104052560D01*
X116264683Y-104096838D01*
X116048559Y-104235910D01*
X115903569Y-104448110D01*
X115900281Y-104464344D01*
X115477491Y-104181845D01*
X114890072Y-104065000D01*
X114829928Y-104065000D01*
X114242509Y-104181845D01*
X113744519Y-104514591D01*
X113585499Y-104752582D01*
X113227576Y-104362034D01*
X112684742Y-104108954D01*
X112447000Y-104229003D01*
X112193000Y-104229003D01*
X111955258Y-104108954D01*
X111412424Y-104362034D01*
X111007760Y-104803583D01*
X110828964Y-105235260D01*
X100710000Y-105235260D01*
X100710000Y-100349039D01*
X105748096Y-100349039D01*
X105908959Y-100737423D01*
X106284866Y-101152389D01*
X106790959Y-101391914D01*
X107013000Y-101270629D01*
X107013000Y-100127000D01*
X107267000Y-100127000D01*
X107267000Y-101270629D01*
X107489041Y-101391914D01*
X107995134Y-101152389D01*
X108371041Y-100737423D01*
X108531904Y-100349039D01*
X108496275Y-100284187D01*
X115864752Y-100284187D01*
X116082757Y-100811800D01*
X116486077Y-101215824D01*
X117013309Y-101434750D01*
X117584187Y-101435248D01*
X118111800Y-101217243D01*
X118515824Y-100813923D01*
X118734750Y-100286691D01*
X118735248Y-99715813D01*
X118517243Y-99188200D01*
X118113923Y-98784176D01*
X118060000Y-98761785D01*
X118060000Y-69400000D01*
X120640000Y-69400000D01*
X120640000Y-109000000D01*
X120697852Y-109290839D01*
X120862599Y-109537401D01*
X138551087Y-127225889D01*
X138365284Y-127673352D01*
X138364716Y-128323795D01*
X138613106Y-128924943D01*
X139072637Y-129385278D01*
X139673352Y-129634716D01*
X140323795Y-129635284D01*
X140924943Y-129386894D01*
X141385278Y-128927363D01*
X141634716Y-128326648D01*
X141634718Y-128323795D01*
X144864716Y-128323795D01*
X145113106Y-128924943D01*
X145572637Y-129385278D01*
X146173352Y-129634716D01*
X146823795Y-129635284D01*
X147424943Y-129386894D01*
X147885278Y-128927363D01*
X148134716Y-128326648D01*
X148135284Y-127676205D01*
X147886894Y-127075057D01*
X147427363Y-126614722D01*
X146826648Y-126365284D01*
X146176205Y-126364716D01*
X145575057Y-126613106D01*
X145114722Y-127072637D01*
X144865284Y-127673352D01*
X144864716Y-128323795D01*
X141634718Y-128323795D01*
X141635284Y-127676205D01*
X141386894Y-127075057D01*
X140927363Y-126614722D01*
X140326648Y-126365284D01*
X139839661Y-126364859D01*
X122160000Y-108685198D01*
X122160000Y-69714802D01*
X126867691Y-65007111D01*
X126865162Y-65013201D01*
X126865121Y-65060077D01*
X122562599Y-69362599D01*
X122397852Y-69609161D01*
X122340000Y-69900000D01*
X122340000Y-108200000D01*
X122397852Y-108490839D01*
X122562599Y-108737401D01*
X133262599Y-119437401D01*
X133509161Y-119602148D01*
X133800000Y-119660000D01*
X152460198Y-119660000D01*
X160308725Y-127508527D01*
X160240284Y-127673352D01*
X160239716Y-128323795D01*
X160488106Y-128924943D01*
X160947637Y-129385278D01*
X161548352Y-129634716D01*
X162198795Y-129635284D01*
X162799943Y-129386894D01*
X163260278Y-128927363D01*
X163509716Y-128326648D01*
X163510284Y-127676205D01*
X163261894Y-127075057D01*
X162802363Y-126614722D01*
X162201648Y-126365284D01*
X161551205Y-126364716D01*
X161383721Y-126433919D01*
X153312401Y-118362599D01*
X153065839Y-118197852D01*
X152775000Y-118140000D01*
X134114802Y-118140000D01*
X132088107Y-116113305D01*
X135614674Y-116113305D01*
X135901043Y-116806372D01*
X136430839Y-117337093D01*
X137123405Y-117624672D01*
X137873305Y-117625326D01*
X138566372Y-117338957D01*
X139097093Y-116809161D01*
X139384672Y-116116595D01*
X139385326Y-115366695D01*
X139098957Y-114673628D01*
X138569161Y-114142907D01*
X137876595Y-113855328D01*
X137126695Y-113854674D01*
X136433628Y-114141043D01*
X135902907Y-114670839D01*
X135615328Y-115363405D01*
X135614674Y-116113305D01*
X132088107Y-116113305D01*
X127048107Y-111073305D01*
X133114674Y-111073305D01*
X133401043Y-111766372D01*
X133930839Y-112297093D01*
X134623405Y-112584672D01*
X135373305Y-112585326D01*
X136066372Y-112298957D01*
X136332472Y-112033320D01*
X138846285Y-112033320D01*
X138975533Y-112326123D01*
X139675806Y-112594388D01*
X140425435Y-112574250D01*
X141024467Y-112326123D01*
X141153715Y-112033320D01*
X140000000Y-110879605D01*
X138846285Y-112033320D01*
X136332472Y-112033320D01*
X136597093Y-111769161D01*
X136884672Y-111076595D01*
X136885283Y-110375806D01*
X138105612Y-110375806D01*
X138125750Y-111125435D01*
X138373877Y-111724467D01*
X138666680Y-111853715D01*
X139820395Y-110700000D01*
X140179605Y-110700000D01*
X141333320Y-111853715D01*
X141626123Y-111724467D01*
X141894388Y-111024194D01*
X141874250Y-110274565D01*
X141626123Y-109675533D01*
X141333320Y-109546285D01*
X140179605Y-110700000D01*
X139820395Y-110700000D01*
X138666680Y-109546285D01*
X138373877Y-109675533D01*
X138105612Y-110375806D01*
X136885283Y-110375806D01*
X136885326Y-110326695D01*
X136598957Y-109633628D01*
X136332475Y-109366680D01*
X138846285Y-109366680D01*
X140000000Y-110520395D01*
X141153715Y-109366680D01*
X141024467Y-109073877D01*
X140324194Y-108805612D01*
X139574565Y-108825750D01*
X138975533Y-109073877D01*
X138846285Y-109366680D01*
X136332475Y-109366680D01*
X136069161Y-109102907D01*
X135376595Y-108815328D01*
X134626695Y-108814674D01*
X133933628Y-109101043D01*
X133402907Y-109630839D01*
X133115328Y-110323405D01*
X133114674Y-111073305D01*
X127048107Y-111073305D01*
X123860000Y-107885198D01*
X123860000Y-103813515D01*
X125207530Y-103813515D01*
X125531880Y-104598500D01*
X126131941Y-105199609D01*
X126916359Y-105525328D01*
X127765715Y-105526070D01*
X128550700Y-105201720D01*
X129151809Y-104601659D01*
X129477528Y-103817241D01*
X129478270Y-102967885D01*
X129153920Y-102182900D01*
X128553859Y-101581791D01*
X127769441Y-101256072D01*
X126920085Y-101255330D01*
X126135100Y-101579680D01*
X125533991Y-102179741D01*
X125208272Y-102964159D01*
X125207530Y-103813515D01*
X123860000Y-103813515D01*
X123860000Y-72812815D01*
X125207530Y-72812815D01*
X125531880Y-73597800D01*
X126131941Y-74198909D01*
X126916359Y-74524628D01*
X127765715Y-74525370D01*
X128550700Y-74201020D01*
X129151809Y-73600959D01*
X129477528Y-72816541D01*
X129477650Y-72675750D01*
X131307000Y-72675750D01*
X131307000Y-73816310D01*
X131403673Y-74049699D01*
X131582302Y-74228327D01*
X131815691Y-74325000D01*
X132556250Y-74325000D01*
X132715000Y-74166250D01*
X132715000Y-72517000D01*
X131465750Y-72517000D01*
X131307000Y-72675750D01*
X129477650Y-72675750D01*
X129478270Y-71967185D01*
X129153920Y-71182200D01*
X128935791Y-70963690D01*
X131307000Y-70963690D01*
X131307000Y-72104250D01*
X131465750Y-72263000D01*
X132715000Y-72263000D01*
X132715000Y-70613750D01*
X132969000Y-70613750D01*
X132969000Y-72263000D01*
X132989000Y-72263000D01*
X132989000Y-72517000D01*
X132969000Y-72517000D01*
X132969000Y-74166250D01*
X133127750Y-74325000D01*
X133868309Y-74325000D01*
X134101698Y-74228327D01*
X134280327Y-74049699D01*
X134328098Y-73934370D01*
X134794581Y-74246064D01*
X135382000Y-74362909D01*
X135969419Y-74246064D01*
X136467409Y-73913318D01*
X136652000Y-73637058D01*
X136836591Y-73913318D01*
X137334581Y-74246064D01*
X137922000Y-74362909D01*
X138509419Y-74246064D01*
X139007409Y-73913318D01*
X139192000Y-73637058D01*
X139376591Y-73913318D01*
X139874581Y-74246064D01*
X140462000Y-74362909D01*
X141049419Y-74246064D01*
X141547409Y-73913318D01*
X141738192Y-73627790D01*
X142006394Y-73965212D01*
X142531914Y-74256756D01*
X142637260Y-74281036D01*
X142875000Y-74160378D01*
X142875000Y-72517000D01*
X142855000Y-72517000D01*
X142855000Y-72263000D01*
X142875000Y-72263000D01*
X142875000Y-70619622D01*
X143129000Y-70619622D01*
X143129000Y-72263000D01*
X143149000Y-72263000D01*
X143149000Y-72517000D01*
X143129000Y-72517000D01*
X143129000Y-74160378D01*
X143366740Y-74281036D01*
X143472086Y-74256756D01*
X143997606Y-73965212D01*
X144265808Y-73627790D01*
X144456591Y-73913318D01*
X144954581Y-74246064D01*
X145542000Y-74362909D01*
X146129419Y-74246064D01*
X146627409Y-73913318D01*
X146812000Y-73637058D01*
X146996591Y-73913318D01*
X147494581Y-74246064D01*
X148082000Y-74362909D01*
X148669419Y-74246064D01*
X149167409Y-73913318D01*
X149352000Y-73637058D01*
X149536591Y-73913318D01*
X150034581Y-74246064D01*
X150622000Y-74362909D01*
X151209419Y-74246064D01*
X151707409Y-73913318D01*
X151892000Y-73637058D01*
X152076591Y-73913318D01*
X152574581Y-74246064D01*
X153162000Y-74362909D01*
X153749419Y-74246064D01*
X154247409Y-73913318D01*
X154432000Y-73637058D01*
X154616591Y-73913318D01*
X155114581Y-74246064D01*
X155702000Y-74362909D01*
X156289419Y-74246064D01*
X156787409Y-73913318D01*
X156972000Y-73637058D01*
X157156591Y-73913318D01*
X157654581Y-74246064D01*
X158242000Y-74362909D01*
X158829419Y-74246064D01*
X159327409Y-73913318D01*
X159512000Y-73637058D01*
X159696591Y-73913318D01*
X160194581Y-74246064D01*
X160782000Y-74362909D01*
X161369419Y-74246064D01*
X161867409Y-73913318D01*
X162052000Y-73637058D01*
X162236591Y-73913318D01*
X162734581Y-74246064D01*
X163322000Y-74362909D01*
X163909419Y-74246064D01*
X164407409Y-73913318D01*
X164592000Y-73637058D01*
X164776591Y-73913318D01*
X165274581Y-74246064D01*
X165862000Y-74362909D01*
X166449419Y-74246064D01*
X166947409Y-73913318D01*
X167132000Y-73637058D01*
X167316591Y-73913318D01*
X167814581Y-74246064D01*
X168402000Y-74362909D01*
X168989419Y-74246064D01*
X169487409Y-73913318D01*
X169678192Y-73627790D01*
X169946394Y-73965212D01*
X170471914Y-74256756D01*
X170577260Y-74281036D01*
X170815000Y-74160378D01*
X170815000Y-72517000D01*
X171069000Y-72517000D01*
X171069000Y-74160378D01*
X171306740Y-74281036D01*
X171412086Y-74256756D01*
X171937606Y-73965212D01*
X172311554Y-73494752D01*
X172477000Y-72917000D01*
X172477000Y-72517000D01*
X171069000Y-72517000D01*
X170815000Y-72517000D01*
X170795000Y-72517000D01*
X170795000Y-72263000D01*
X170815000Y-72263000D01*
X170815000Y-70619622D01*
X171069000Y-70619622D01*
X171069000Y-72263000D01*
X172477000Y-72263000D01*
X172477000Y-71863000D01*
X172311554Y-71285248D01*
X171937606Y-70814788D01*
X171412086Y-70523244D01*
X171306740Y-70498964D01*
X171069000Y-70619622D01*
X170815000Y-70619622D01*
X170577260Y-70498964D01*
X170471914Y-70523244D01*
X169946394Y-70814788D01*
X169678192Y-71152210D01*
X169487409Y-70866682D01*
X168989419Y-70533936D01*
X168402000Y-70417091D01*
X167814581Y-70533936D01*
X167316591Y-70866682D01*
X167132000Y-71142942D01*
X166947409Y-70866682D01*
X166449419Y-70533936D01*
X165862000Y-70417091D01*
X165274581Y-70533936D01*
X164776591Y-70866682D01*
X164592000Y-71142942D01*
X164407409Y-70866682D01*
X163909419Y-70533936D01*
X163322000Y-70417091D01*
X162734581Y-70533936D01*
X162236591Y-70866682D01*
X162052000Y-71142942D01*
X161867409Y-70866682D01*
X161369419Y-70533936D01*
X160782000Y-70417091D01*
X160194581Y-70533936D01*
X159696591Y-70866682D01*
X159512000Y-71142942D01*
X159327409Y-70866682D01*
X158829419Y-70533936D01*
X158242000Y-70417091D01*
X157654581Y-70533936D01*
X157156591Y-70866682D01*
X156972000Y-71142942D01*
X156787409Y-70866682D01*
X156289419Y-70533936D01*
X155702000Y-70417091D01*
X155114581Y-70533936D01*
X154616591Y-70866682D01*
X154432000Y-71142942D01*
X154247409Y-70866682D01*
X153749419Y-70533936D01*
X153162000Y-70417091D01*
X152574581Y-70533936D01*
X152076591Y-70866682D01*
X151892000Y-71142942D01*
X151707409Y-70866682D01*
X151209419Y-70533936D01*
X150622000Y-70417091D01*
X150034581Y-70533936D01*
X149536591Y-70866682D01*
X149352000Y-71142942D01*
X149167409Y-70866682D01*
X148669419Y-70533936D01*
X148082000Y-70417091D01*
X147494581Y-70533936D01*
X146996591Y-70866682D01*
X146812000Y-71142942D01*
X146627409Y-70866682D01*
X146129419Y-70533936D01*
X145542000Y-70417091D01*
X144954581Y-70533936D01*
X144456591Y-70866682D01*
X144265808Y-71152210D01*
X143997606Y-70814788D01*
X143472086Y-70523244D01*
X143366740Y-70498964D01*
X143129000Y-70619622D01*
X142875000Y-70619622D01*
X142637260Y-70498964D01*
X142531914Y-70523244D01*
X142006394Y-70814788D01*
X141738192Y-71152210D01*
X141547409Y-70866682D01*
X141049419Y-70533936D01*
X140462000Y-70417091D01*
X139874581Y-70533936D01*
X139376591Y-70866682D01*
X139192000Y-71142942D01*
X139007409Y-70866682D01*
X138509419Y-70533936D01*
X137922000Y-70417091D01*
X137334581Y-70533936D01*
X136836591Y-70866682D01*
X136652000Y-71142942D01*
X136467409Y-70866682D01*
X135969419Y-70533936D01*
X135382000Y-70417091D01*
X134794581Y-70533936D01*
X134328098Y-70845630D01*
X134280327Y-70730301D01*
X134101698Y-70551673D01*
X133868309Y-70455000D01*
X133127750Y-70455000D01*
X132969000Y-70613750D01*
X132715000Y-70613750D01*
X132556250Y-70455000D01*
X131815691Y-70455000D01*
X131582302Y-70551673D01*
X131403673Y-70730301D01*
X131307000Y-70963690D01*
X128935791Y-70963690D01*
X128553859Y-70581091D01*
X127769441Y-70255372D01*
X126920085Y-70254630D01*
X126135100Y-70578980D01*
X125533991Y-71179041D01*
X125208272Y-71963459D01*
X125207530Y-72812815D01*
X123860000Y-72812815D01*
X123860000Y-70214802D01*
X125067057Y-69007745D01*
X131971861Y-69007745D01*
X132045995Y-69253864D01*
X132583223Y-69446965D01*
X133153454Y-69419778D01*
X133554005Y-69253864D01*
X133628139Y-69007745D01*
X132800000Y-68179605D01*
X131971861Y-69007745D01*
X125067057Y-69007745D01*
X126291579Y-67783223D01*
X131353035Y-67783223D01*
X131380222Y-68353454D01*
X131546136Y-68754005D01*
X131792255Y-68828139D01*
X132620395Y-68000000D01*
X132979605Y-68000000D01*
X133807745Y-68828139D01*
X134053864Y-68754005D01*
X134056196Y-68747517D01*
X134082757Y-68811800D01*
X134486077Y-69215824D01*
X135013309Y-69434750D01*
X135584187Y-69435248D01*
X136111800Y-69217243D01*
X136515824Y-68813923D01*
X136734750Y-68286691D01*
X136735248Y-67715813D01*
X136517243Y-67188200D01*
X136113923Y-66784176D01*
X135586691Y-66565250D01*
X135015813Y-66564752D01*
X134488200Y-66782757D01*
X134084176Y-67186077D01*
X134056577Y-67252544D01*
X134053864Y-67245995D01*
X133807745Y-67171861D01*
X132979605Y-68000000D01*
X132620395Y-68000000D01*
X131792255Y-67171861D01*
X131546136Y-67245995D01*
X131353035Y-67783223D01*
X126291579Y-67783223D01*
X127082547Y-66992255D01*
X131971861Y-66992255D01*
X132800000Y-67820395D01*
X133628139Y-66992255D01*
X133554005Y-66746136D01*
X133016777Y-66553035D01*
X132446546Y-66580222D01*
X132045995Y-66746136D01*
X131971861Y-66992255D01*
X127082547Y-66992255D01*
X127939680Y-66135122D01*
X127985167Y-66135162D01*
X128328943Y-65993117D01*
X128362118Y-65960000D01*
X135900000Y-65960000D01*
X136190839Y-65902148D01*
X136437401Y-65737401D01*
X141719614Y-60455188D01*
X141860000Y-60483113D01*
X142150522Y-60425324D01*
X150662599Y-68937401D01*
X150909161Y-69102148D01*
X151200000Y-69160000D01*
X173485198Y-69160000D01*
X174440000Y-70114802D01*
X174440000Y-108485198D01*
X167837599Y-115087599D01*
X167672852Y-115334161D01*
X167615000Y-115625000D01*
X167615000Y-126544953D01*
X167450057Y-126613106D01*
X166989722Y-127072637D01*
X166740284Y-127673352D01*
X166739716Y-128323795D01*
X166988106Y-128924943D01*
X167447637Y-129385278D01*
X168048352Y-129634716D01*
X168698795Y-129635284D01*
X169299943Y-129386894D01*
X169760278Y-128927363D01*
X170009716Y-128326648D01*
X170010284Y-127676205D01*
X169761894Y-127075057D01*
X169302363Y-126614722D01*
X169135000Y-126545227D01*
X169135000Y-122300000D01*
X179876887Y-122300000D01*
X179986120Y-122849151D01*
X180297189Y-123314698D01*
X180762736Y-123625767D01*
X181311887Y-123735000D01*
X181368113Y-123735000D01*
X181917264Y-123625767D01*
X182382811Y-123314698D01*
X182693880Y-122849151D01*
X182803113Y-122300000D01*
X182693880Y-121750849D01*
X182382811Y-121285302D01*
X181917264Y-120974233D01*
X181368113Y-120865000D01*
X181311887Y-120865000D01*
X180762736Y-120974233D01*
X180297189Y-121285302D01*
X179986120Y-121750849D01*
X179876887Y-122300000D01*
X169135000Y-122300000D01*
X169135000Y-115939802D01*
X175737401Y-109337401D01*
X175902148Y-109090839D01*
X175960000Y-108800000D01*
X175960000Y-69800000D01*
X175902148Y-69509161D01*
X175737401Y-69262599D01*
X174337401Y-67862599D01*
X174090839Y-67697852D01*
X173800000Y-67640000D01*
X151514802Y-67640000D01*
X144347465Y-60472663D01*
X144400000Y-60483113D01*
X144723886Y-60418688D01*
X151042599Y-66737401D01*
X151289160Y-66902148D01*
X151580000Y-66960000D01*
X179285198Y-66960000D01*
X182990000Y-70664802D01*
X182990000Y-126544953D01*
X182825057Y-126613106D01*
X182364722Y-127072637D01*
X182115284Y-127673352D01*
X182114716Y-128323795D01*
X182363106Y-128924943D01*
X182822637Y-129385278D01*
X183423352Y-129634716D01*
X184073795Y-129635284D01*
X184674943Y-129386894D01*
X185135278Y-128927363D01*
X185384716Y-128326648D01*
X185384718Y-128323795D01*
X188614716Y-128323795D01*
X188863106Y-128924943D01*
X189322637Y-129385278D01*
X189923352Y-129634716D01*
X190573795Y-129635284D01*
X191174943Y-129386894D01*
X191635278Y-128927363D01*
X191884716Y-128326648D01*
X191885284Y-127676205D01*
X191636894Y-127075057D01*
X191177363Y-126614722D01*
X190576648Y-126365284D01*
X189926205Y-126364716D01*
X189325057Y-126613106D01*
X188864722Y-127072637D01*
X188615284Y-127673352D01*
X188614716Y-128323795D01*
X185384718Y-128323795D01*
X185385284Y-127676205D01*
X185136894Y-127075057D01*
X184677363Y-126614722D01*
X184510000Y-126545227D01*
X184510000Y-122584187D01*
X190064752Y-122584187D01*
X190282757Y-123111800D01*
X190686077Y-123515824D01*
X191213309Y-123734750D01*
X191784187Y-123735248D01*
X192311800Y-123517243D01*
X192715824Y-123113923D01*
X192869596Y-122743599D01*
X202164699Y-122743599D01*
X202428281Y-123381515D01*
X202915918Y-123870004D01*
X203553373Y-124134699D01*
X204243599Y-124135301D01*
X204881515Y-123871719D01*
X205370004Y-123384082D01*
X205634699Y-122746627D01*
X205634701Y-122743599D01*
X217164699Y-122743599D01*
X217428281Y-123381515D01*
X217915918Y-123870004D01*
X218553373Y-124134699D01*
X219243599Y-124135301D01*
X219881515Y-123871719D01*
X220370004Y-123384082D01*
X220634699Y-122746627D01*
X220635301Y-122056401D01*
X220371719Y-121418485D01*
X219884082Y-120929996D01*
X219246627Y-120665301D01*
X218556401Y-120664699D01*
X217918485Y-120928281D01*
X217429996Y-121415918D01*
X217165301Y-122053373D01*
X217164699Y-122743599D01*
X205634701Y-122743599D01*
X205635301Y-122056401D01*
X205371719Y-121418485D01*
X204884082Y-120929996D01*
X204246627Y-120665301D01*
X203556401Y-120664699D01*
X202918485Y-120928281D01*
X202429996Y-121415918D01*
X202165301Y-122053373D01*
X202164699Y-122743599D01*
X192869596Y-122743599D01*
X192934750Y-122586691D01*
X192935248Y-122015813D01*
X192717243Y-121488200D01*
X192313923Y-121084176D01*
X191786691Y-120865250D01*
X191215813Y-120864752D01*
X190688200Y-121082757D01*
X190284176Y-121486077D01*
X190065250Y-122013309D01*
X190064752Y-122584187D01*
X184510000Y-122584187D01*
X184510000Y-116113305D01*
X188914674Y-116113305D01*
X189201043Y-116806372D01*
X189730839Y-117337093D01*
X190423405Y-117624672D01*
X191173305Y-117625326D01*
X191866372Y-117338957D01*
X192397093Y-116809161D01*
X192684672Y-116116595D01*
X192685326Y-115366695D01*
X192398957Y-114673628D01*
X191869161Y-114142907D01*
X191176595Y-113855328D01*
X190426695Y-113854674D01*
X189733628Y-114141043D01*
X189202907Y-114670839D01*
X188915328Y-115363405D01*
X188914674Y-116113305D01*
X184510000Y-116113305D01*
X184510000Y-111073305D01*
X186414674Y-111073305D01*
X186701043Y-111766372D01*
X187230839Y-112297093D01*
X187923405Y-112584672D01*
X188673305Y-112585326D01*
X189366372Y-112298957D01*
X189632472Y-112033320D01*
X192146285Y-112033320D01*
X192275533Y-112326123D01*
X192975806Y-112594388D01*
X193725435Y-112574250D01*
X194324467Y-112326123D01*
X194453715Y-112033320D01*
X193300000Y-110879605D01*
X192146285Y-112033320D01*
X189632472Y-112033320D01*
X189897093Y-111769161D01*
X190184672Y-111076595D01*
X190185283Y-110375806D01*
X191405612Y-110375806D01*
X191425750Y-111125435D01*
X191673877Y-111724467D01*
X191966680Y-111853715D01*
X193120395Y-110700000D01*
X193479605Y-110700000D01*
X194633320Y-111853715D01*
X194926123Y-111724467D01*
X195194388Y-111024194D01*
X195174250Y-110274565D01*
X194926123Y-109675533D01*
X194633320Y-109546285D01*
X193479605Y-110700000D01*
X193120395Y-110700000D01*
X191966680Y-109546285D01*
X191673877Y-109675533D01*
X191405612Y-110375806D01*
X190185283Y-110375806D01*
X190185326Y-110326695D01*
X189898957Y-109633628D01*
X189632475Y-109366680D01*
X192146285Y-109366680D01*
X193300000Y-110520395D01*
X194453715Y-109366680D01*
X194324467Y-109073877D01*
X193624194Y-108805612D01*
X192874565Y-108825750D01*
X192275533Y-109073877D01*
X192146285Y-109366680D01*
X189632475Y-109366680D01*
X189369161Y-109102907D01*
X188676595Y-108815328D01*
X187926695Y-108814674D01*
X187233628Y-109101043D01*
X186702907Y-109630839D01*
X186415328Y-110323405D01*
X186414674Y-111073305D01*
X184510000Y-111073305D01*
X184510000Y-103813515D01*
X200206110Y-103813515D01*
X200530460Y-104598500D01*
X201130521Y-105199609D01*
X201914939Y-105525328D01*
X202764295Y-105526070D01*
X203549280Y-105201720D01*
X204150389Y-104601659D01*
X204476108Y-103817241D01*
X204476850Y-102967885D01*
X204152500Y-102182900D01*
X203552439Y-101581791D01*
X202768021Y-101256072D01*
X201918665Y-101255330D01*
X201133680Y-101579680D01*
X200532571Y-102179741D01*
X200206852Y-102964159D01*
X200206110Y-103813515D01*
X184510000Y-103813515D01*
X184510000Y-70350000D01*
X184452148Y-70059161D01*
X184452148Y-70059160D01*
X184287401Y-69812599D01*
X180137401Y-65662599D01*
X179890839Y-65497852D01*
X179600000Y-65440000D01*
X156611580Y-65440000D01*
X158251579Y-63800000D01*
X166976887Y-63800000D01*
X167086120Y-64349151D01*
X167397189Y-64814698D01*
X167862736Y-65125767D01*
X168411887Y-65235000D01*
X168468113Y-65235000D01*
X169017264Y-65125767D01*
X169482811Y-64814698D01*
X169793880Y-64349151D01*
X169903113Y-63800000D01*
X169793880Y-63250849D01*
X169482811Y-62785302D01*
X169017264Y-62474233D01*
X168468113Y-62365000D01*
X168411887Y-62365000D01*
X167862736Y-62474233D01*
X167397189Y-62785302D01*
X167086120Y-63250849D01*
X166976887Y-63800000D01*
X158251579Y-63800000D01*
X159966579Y-62085000D01*
X177333420Y-62085000D01*
X177715000Y-62466579D01*
X177715000Y-62655829D01*
X177384176Y-62986077D01*
X177165250Y-63513309D01*
X177164752Y-64084187D01*
X177382757Y-64611800D01*
X177786077Y-65015824D01*
X178313309Y-65234750D01*
X178884187Y-65235248D01*
X179411800Y-65017243D01*
X179815824Y-64613923D01*
X180034750Y-64086691D01*
X180035248Y-63515813D01*
X179817243Y-62988200D01*
X179485000Y-62655377D01*
X179485000Y-62100005D01*
X179485001Y-62100000D01*
X179417633Y-61761325D01*
X179376657Y-61700000D01*
X179225790Y-61474210D01*
X179225787Y-61474208D01*
X178325790Y-60574210D01*
X178282319Y-60545164D01*
X178038675Y-60382367D01*
X177982484Y-60371190D01*
X177700000Y-60314999D01*
X177699995Y-60315000D01*
X170437271Y-60315000D01*
X170814698Y-60062811D01*
X171125767Y-59597264D01*
X171235000Y-59048113D01*
X171235000Y-58991887D01*
X171125767Y-58442736D01*
X170814698Y-57977189D01*
X170349151Y-57666120D01*
X170318384Y-57660000D01*
X175485198Y-57660000D01*
X218140000Y-100314802D01*
X218140000Y-101282666D01*
X218064683Y-101296838D01*
X217848559Y-101435910D01*
X217703569Y-101648110D01*
X217652560Y-101900000D01*
X217652560Y-103100000D01*
X217696838Y-103335317D01*
X217783099Y-103469370D01*
X217665215Y-103753266D01*
X217664786Y-104244579D01*
X217852408Y-104698657D01*
X218199515Y-105046371D01*
X218653266Y-105234785D01*
X219144579Y-105235214D01*
X219598657Y-105047592D01*
X219946371Y-104700485D01*
X220134785Y-104246734D01*
X220135214Y-103755421D01*
X220016696Y-103468586D01*
X220096431Y-103351890D01*
X220147440Y-103100000D01*
X220147440Y-101900000D01*
X220103162Y-101664683D01*
X219964090Y-101448559D01*
X219751890Y-101303569D01*
X219660000Y-101284961D01*
X219660000Y-100000000D01*
X219602148Y-99709161D01*
X219437401Y-99462599D01*
X192787617Y-72812815D01*
X200206630Y-72812815D01*
X200530980Y-73597800D01*
X201131041Y-74198909D01*
X201915459Y-74524628D01*
X202764815Y-74525370D01*
X203549800Y-74201020D01*
X204150909Y-73600959D01*
X204476628Y-72816541D01*
X204477370Y-71967185D01*
X204153020Y-71182200D01*
X203552959Y-70581091D01*
X202768541Y-70255372D01*
X201919185Y-70254630D01*
X201134200Y-70578980D01*
X200533091Y-71179041D01*
X200207372Y-71963459D01*
X200206630Y-72812815D01*
X192787617Y-72812815D01*
X179950395Y-59975593D01*
X218074012Y-59975593D01*
X218215478Y-60278782D01*
X218951955Y-60563737D01*
X219741418Y-60545164D01*
X220384522Y-60278782D01*
X220525988Y-59975593D01*
X219300000Y-58749605D01*
X218074012Y-59975593D01*
X179950395Y-59975593D01*
X178196757Y-58221955D01*
X217306263Y-58221955D01*
X217324836Y-59011418D01*
X217591218Y-59654522D01*
X217894407Y-59795988D01*
X219120395Y-58570000D01*
X219479605Y-58570000D01*
X220705593Y-59795988D01*
X221008782Y-59654522D01*
X221293737Y-58918045D01*
X221275164Y-58128582D01*
X221008782Y-57485478D01*
X220705593Y-57344012D01*
X219479605Y-58570000D01*
X219120395Y-58570000D01*
X217894407Y-57344012D01*
X217591218Y-57485478D01*
X217306263Y-58221955D01*
X178196757Y-58221955D01*
X177139209Y-57164407D01*
X218074012Y-57164407D01*
X219300000Y-58390395D01*
X220525988Y-57164407D01*
X220384522Y-56861218D01*
X219648045Y-56576263D01*
X218858582Y-56594836D01*
X218215478Y-56861218D01*
X218074012Y-57164407D01*
X177139209Y-57164407D01*
X176337401Y-56362599D01*
X176090839Y-56197852D01*
X175800000Y-56140000D01*
X138900000Y-56140000D01*
X138609161Y-56197852D01*
X138362599Y-56362599D01*
X137103886Y-57621312D01*
X136780000Y-57556887D01*
X136230849Y-57666120D01*
X135765302Y-57977189D01*
X135454233Y-58442736D01*
X135345000Y-58991887D01*
X135345000Y-59048113D01*
X135454233Y-59597264D01*
X135765302Y-60062811D01*
X136230849Y-60373880D01*
X136780000Y-60483113D01*
X137107162Y-60418036D01*
X134585198Y-62940000D01*
X127100000Y-62940000D01*
X126809160Y-62997852D01*
X126562599Y-63162599D01*
X120862599Y-68862599D01*
X120697852Y-69109161D01*
X120640000Y-69400000D01*
X118060000Y-69400000D01*
X118060000Y-68714802D01*
X122437401Y-64337401D01*
X122602148Y-64090840D01*
X122643059Y-63885167D01*
X122964838Y-63885167D01*
X123106883Y-64228943D01*
X123369673Y-64492192D01*
X123713201Y-64634838D01*
X124085167Y-64635162D01*
X124428943Y-64493117D01*
X124692192Y-64230327D01*
X124834838Y-63886799D01*
X124834879Y-63839923D01*
X133814802Y-54860000D01*
X167100000Y-54860000D01*
X167390839Y-54802148D01*
X167637401Y-54637401D01*
X169427362Y-52847440D01*
X170600000Y-52847440D01*
X170835317Y-52803162D01*
X171051441Y-52664090D01*
X171196431Y-52451890D01*
X171247440Y-52200000D01*
X171247440Y-51684187D01*
X173064752Y-51684187D01*
X173282757Y-52211800D01*
X173686077Y-52615824D01*
X174213309Y-52834750D01*
X174784187Y-52835248D01*
X175311800Y-52617243D01*
X175715824Y-52213923D01*
X175934750Y-51686691D01*
X175935000Y-51400000D01*
X183196887Y-51400000D01*
X183306120Y-51949151D01*
X183617189Y-52414698D01*
X184082736Y-52725767D01*
X184631887Y-52835000D01*
X184688113Y-52835000D01*
X185237264Y-52725767D01*
X185702811Y-52414698D01*
X186013880Y-51949151D01*
X186088051Y-51576265D01*
X213204758Y-51576265D01*
X213416687Y-52089172D01*
X213808764Y-52481934D01*
X214020738Y-52569954D01*
X213810828Y-52656687D01*
X213418066Y-53048764D01*
X213205242Y-53561300D01*
X213204758Y-54116265D01*
X213416687Y-54629172D01*
X213808764Y-55021934D01*
X214321300Y-55234758D01*
X214876265Y-55235242D01*
X215389172Y-55023313D01*
X215600024Y-54812829D01*
X215808764Y-55021934D01*
X216321300Y-55234758D01*
X216876265Y-55235242D01*
X217389172Y-55023313D01*
X217781934Y-54631236D01*
X217994758Y-54118700D01*
X217995242Y-53563735D01*
X217783313Y-53050828D01*
X217391236Y-52658066D01*
X217195066Y-52576609D01*
X217329941Y-52520742D01*
X217399159Y-52278764D01*
X216600000Y-51479605D01*
X215800841Y-52278764D01*
X215870059Y-52520742D01*
X216014862Y-52572382D01*
X215810828Y-52656687D01*
X215599976Y-52867171D01*
X215391236Y-52658066D01*
X215179262Y-52570046D01*
X215389172Y-52483313D01*
X215781934Y-52091236D01*
X215890419Y-51829976D01*
X216420395Y-51300000D01*
X216779605Y-51300000D01*
X217578764Y-52099159D01*
X217820742Y-52029941D01*
X218007155Y-51507220D01*
X217979341Y-50952951D01*
X217820742Y-50570059D01*
X217578764Y-50500841D01*
X216779605Y-51300000D01*
X216420395Y-51300000D01*
X215890405Y-50770010D01*
X215783313Y-50510828D01*
X215594052Y-50321236D01*
X215800841Y-50321236D01*
X216600000Y-51120395D01*
X217399159Y-50321236D01*
X217329941Y-50079258D01*
X216807220Y-49892845D01*
X216252951Y-49920659D01*
X215870059Y-50079258D01*
X215800841Y-50321236D01*
X215594052Y-50321236D01*
X215391236Y-50118066D01*
X214878700Y-49905242D01*
X214323735Y-49904758D01*
X213810828Y-50116687D01*
X213418066Y-50508764D01*
X213205242Y-51021300D01*
X213204758Y-51576265D01*
X186088051Y-51576265D01*
X186123113Y-51400000D01*
X186013880Y-50850849D01*
X185702811Y-50385302D01*
X185237264Y-50074233D01*
X184688113Y-49965000D01*
X184631887Y-49965000D01*
X184082736Y-50074233D01*
X183617189Y-50385302D01*
X183306120Y-50850849D01*
X183196887Y-51400000D01*
X175935000Y-51400000D01*
X175935248Y-51115813D01*
X175717243Y-50588200D01*
X175313923Y-50184176D01*
X174786691Y-49965250D01*
X174215813Y-49964752D01*
X173688200Y-50182757D01*
X173284176Y-50586077D01*
X173065250Y-51113309D01*
X173064752Y-51684187D01*
X171247440Y-51684187D01*
X171247440Y-50600000D01*
X171203162Y-50364683D01*
X171064090Y-50148559D01*
X170851890Y-50003569D01*
X170600000Y-49952560D01*
X169000000Y-49952560D01*
X168764683Y-49996838D01*
X168548559Y-50135910D01*
X168403569Y-50348110D01*
X168372185Y-50503089D01*
X168274698Y-50357189D01*
X167809151Y-50046120D01*
X167260000Y-49936887D01*
X166710849Y-50046120D01*
X166245302Y-50357189D01*
X165990000Y-50739275D01*
X165734698Y-50357189D01*
X165269151Y-50046120D01*
X164720000Y-49936887D01*
X164170849Y-50046120D01*
X163705302Y-50357189D01*
X163450000Y-50739275D01*
X163194698Y-50357189D01*
X162729151Y-50046120D01*
X162180000Y-49936887D01*
X161630849Y-50046120D01*
X161165302Y-50357189D01*
X160910000Y-50739275D01*
X160654698Y-50357189D01*
X160189151Y-50046120D01*
X159640000Y-49936887D01*
X159090849Y-50046120D01*
X158625302Y-50357189D01*
X158370000Y-50739275D01*
X158114698Y-50357189D01*
X157649151Y-50046120D01*
X157100000Y-49936887D01*
X156550849Y-50046120D01*
X156085302Y-50357189D01*
X155830000Y-50739275D01*
X155574698Y-50357189D01*
X155109151Y-50046120D01*
X154560000Y-49936887D01*
X154010849Y-50046120D01*
X153545302Y-50357189D01*
X153275014Y-50761703D01*
X153172389Y-50544866D01*
X152757423Y-50168959D01*
X152369039Y-50008096D01*
X152147000Y-50130085D01*
X152147000Y-51273000D01*
X152167000Y-51273000D01*
X152167000Y-51527000D01*
X152147000Y-51527000D01*
X152147000Y-52669915D01*
X152369039Y-52791904D01*
X152757423Y-52631041D01*
X153172389Y-52255134D01*
X153275014Y-52038297D01*
X153545302Y-52442811D01*
X154010849Y-52753880D01*
X154560000Y-52863113D01*
X155109151Y-52753880D01*
X155574698Y-52442811D01*
X155830000Y-52060725D01*
X156085302Y-52442811D01*
X156550849Y-52753880D01*
X157100000Y-52863113D01*
X157649151Y-52753880D01*
X158114698Y-52442811D01*
X158370000Y-52060725D01*
X158625302Y-52442811D01*
X159090849Y-52753880D01*
X159640000Y-52863113D01*
X160189151Y-52753880D01*
X160654698Y-52442811D01*
X160910000Y-52060725D01*
X161165302Y-52442811D01*
X161630849Y-52753880D01*
X162180000Y-52863113D01*
X162729151Y-52753880D01*
X163194698Y-52442811D01*
X163450000Y-52060725D01*
X163705302Y-52442811D01*
X164170849Y-52753880D01*
X164720000Y-52863113D01*
X165269151Y-52753880D01*
X165734698Y-52442811D01*
X165990000Y-52060725D01*
X166245302Y-52442811D01*
X166710849Y-52753880D01*
X167260000Y-52863113D01*
X167262603Y-52862595D01*
X166785198Y-53340000D01*
X133500000Y-53340000D01*
X133209160Y-53397852D01*
X132962599Y-53562599D01*
X123760320Y-62764878D01*
X123714833Y-62764838D01*
X123371057Y-62906883D01*
X123107808Y-63169673D01*
X122965162Y-63513201D01*
X122964838Y-63885167D01*
X122643059Y-63885167D01*
X122660000Y-63800000D01*
X122660000Y-55714802D01*
X126214802Y-52160000D01*
X135576333Y-52160000D01*
X135765302Y-52442811D01*
X136230849Y-52753880D01*
X136780000Y-52863113D01*
X137329151Y-52753880D01*
X137794698Y-52442811D01*
X138050000Y-52060725D01*
X138305302Y-52442811D01*
X138770849Y-52753880D01*
X139320000Y-52863113D01*
X139869151Y-52753880D01*
X140334698Y-52442811D01*
X140590000Y-52060725D01*
X140845302Y-52442811D01*
X141310849Y-52753880D01*
X141860000Y-52863113D01*
X142409151Y-52753880D01*
X142874698Y-52442811D01*
X143130000Y-52060725D01*
X143385302Y-52442811D01*
X143850849Y-52753880D01*
X144400000Y-52863113D01*
X144949151Y-52753880D01*
X145414698Y-52442811D01*
X145670000Y-52060725D01*
X145925302Y-52442811D01*
X146390849Y-52753880D01*
X146940000Y-52863113D01*
X147489151Y-52753880D01*
X147954698Y-52442811D01*
X148210000Y-52060725D01*
X148465302Y-52442811D01*
X148930849Y-52753880D01*
X149480000Y-52863113D01*
X150029151Y-52753880D01*
X150494698Y-52442811D01*
X150764986Y-52038297D01*
X150867611Y-52255134D01*
X151282577Y-52631041D01*
X151670961Y-52791904D01*
X151893000Y-52669915D01*
X151893000Y-51527000D01*
X151873000Y-51527000D01*
X151873000Y-51273000D01*
X151893000Y-51273000D01*
X151893000Y-50130085D01*
X151670961Y-50008096D01*
X151282577Y-50168959D01*
X150867611Y-50544866D01*
X150764986Y-50761703D01*
X150494698Y-50357189D01*
X150029151Y-50046120D01*
X149480000Y-49936887D01*
X148930849Y-50046120D01*
X148465302Y-50357189D01*
X148210000Y-50739275D01*
X147954698Y-50357189D01*
X147489151Y-50046120D01*
X146940000Y-49936887D01*
X146390849Y-50046120D01*
X145925302Y-50357189D01*
X145670000Y-50739275D01*
X145414698Y-50357189D01*
X144949151Y-50046120D01*
X144400000Y-49936887D01*
X143850849Y-50046120D01*
X143385302Y-50357189D01*
X143130000Y-50739275D01*
X142874698Y-50357189D01*
X142409151Y-50046120D01*
X141860000Y-49936887D01*
X141310849Y-50046120D01*
X140845302Y-50357189D01*
X140590000Y-50739275D01*
X140334698Y-50357189D01*
X139869151Y-50046120D01*
X139320000Y-49936887D01*
X138770849Y-50046120D01*
X138305302Y-50357189D01*
X138050000Y-50739275D01*
X137794698Y-50357189D01*
X137329151Y-50046120D01*
X136780000Y-49936887D01*
X136230849Y-50046120D01*
X135765302Y-50357189D01*
X135576333Y-50640000D01*
X125900000Y-50640000D01*
X125609160Y-50697852D01*
X125362599Y-50862599D01*
X121362599Y-54862599D01*
X121197852Y-55109161D01*
X121140000Y-55400000D01*
X121140000Y-63485198D01*
X116762599Y-67862599D01*
X116597852Y-68109161D01*
X116540000Y-68400000D01*
X116540000Y-98761354D01*
X116488200Y-98782757D01*
X116084176Y-99186077D01*
X115865250Y-99713309D01*
X115864752Y-100284187D01*
X108496275Y-100284187D01*
X108409915Y-100127000D01*
X107267000Y-100127000D01*
X107013000Y-100127000D01*
X105870085Y-100127000D01*
X105748096Y-100349039D01*
X100710000Y-100349039D01*
X100710000Y-99650961D01*
X105748096Y-99650961D01*
X105870085Y-99873000D01*
X107013000Y-99873000D01*
X107013000Y-98729371D01*
X107267000Y-98729371D01*
X107267000Y-99873000D01*
X108409915Y-99873000D01*
X108531904Y-99650961D01*
X108371041Y-99262577D01*
X107995134Y-98847611D01*
X107489041Y-98608086D01*
X107267000Y-98729371D01*
X107013000Y-98729371D01*
X106790959Y-98608086D01*
X106284866Y-98847611D01*
X105908959Y-99262577D01*
X105748096Y-99650961D01*
X100710000Y-99650961D01*
X100710000Y-94873970D01*
X109195635Y-94873970D01*
X109355418Y-95192739D01*
X110146187Y-95502723D01*
X110995387Y-95486497D01*
X111704582Y-95192739D01*
X111864365Y-94873970D01*
X110530000Y-93539605D01*
X109195635Y-94873970D01*
X100710000Y-94873970D01*
X100710000Y-92976187D01*
X108387277Y-92976187D01*
X108403503Y-93825387D01*
X108697261Y-94534582D01*
X109016030Y-94694365D01*
X110350395Y-93360000D01*
X110709605Y-93360000D01*
X112043970Y-94694365D01*
X112362739Y-94534582D01*
X112672723Y-93743813D01*
X112656497Y-92894613D01*
X112362739Y-92185418D01*
X112043970Y-92025635D01*
X110709605Y-93360000D01*
X110350395Y-93360000D01*
X109016030Y-92025635D01*
X108697261Y-92185418D01*
X108387277Y-92976187D01*
X100710000Y-92976187D01*
X100710000Y-91846030D01*
X109195635Y-91846030D01*
X110530000Y-93180395D01*
X111864365Y-91846030D01*
X111704582Y-91527261D01*
X110913813Y-91217277D01*
X110064613Y-91233503D01*
X109355418Y-91527261D01*
X109195635Y-91846030D01*
X100710000Y-91846030D01*
X100710000Y-83474285D01*
X111814760Y-83474285D01*
X112025169Y-83983515D01*
X112414436Y-84373461D01*
X112646870Y-84469976D01*
X112416485Y-84565169D01*
X112026539Y-84954436D01*
X111815241Y-85463298D01*
X111814760Y-86014285D01*
X112025169Y-86523515D01*
X112256313Y-86755062D01*
X112026539Y-86984436D01*
X111815241Y-87493298D01*
X111814760Y-88044285D01*
X112025169Y-88553515D01*
X112414436Y-88943461D01*
X112646870Y-89039976D01*
X112416485Y-89135169D01*
X112026539Y-89524436D01*
X111815241Y-90033298D01*
X111814760Y-90584285D01*
X112025169Y-91093515D01*
X112414436Y-91483461D01*
X112923298Y-91694759D01*
X113474285Y-91695240D01*
X113983515Y-91484831D01*
X114373461Y-91095564D01*
X114584759Y-90586702D01*
X114585240Y-90035715D01*
X114374831Y-89526485D01*
X113985564Y-89136539D01*
X113753130Y-89040024D01*
X113983515Y-88944831D01*
X114373461Y-88555564D01*
X114584759Y-88046702D01*
X114585240Y-87495715D01*
X114374831Y-86986485D01*
X114143687Y-86754938D01*
X114373461Y-86525564D01*
X114584759Y-86016702D01*
X114585240Y-85465715D01*
X114374831Y-84956485D01*
X113985564Y-84566539D01*
X113753130Y-84470024D01*
X113983515Y-84374831D01*
X114373461Y-83985564D01*
X114584759Y-83476702D01*
X114585240Y-82925715D01*
X114374831Y-82416485D01*
X113985564Y-82026539D01*
X113476702Y-81815241D01*
X112925715Y-81814760D01*
X112416485Y-82025169D01*
X112026539Y-82414436D01*
X111815241Y-82923298D01*
X111814760Y-83474285D01*
X100710000Y-83474285D01*
X100710000Y-81153970D01*
X109195635Y-81153970D01*
X109355418Y-81472739D01*
X110146187Y-81782723D01*
X110995387Y-81766497D01*
X111704582Y-81472739D01*
X111864365Y-81153970D01*
X110530000Y-79819605D01*
X109195635Y-81153970D01*
X100710000Y-81153970D01*
X100710000Y-79256187D01*
X108387277Y-79256187D01*
X108403503Y-80105387D01*
X108697261Y-80814582D01*
X109016030Y-80974365D01*
X110350395Y-79640000D01*
X110709605Y-79640000D01*
X112043970Y-80974365D01*
X112362739Y-80814582D01*
X112672723Y-80023813D01*
X112656497Y-79174613D01*
X112362739Y-78465418D01*
X112043970Y-78305635D01*
X110709605Y-79640000D01*
X110350395Y-79640000D01*
X109016030Y-78305635D01*
X108697261Y-78465418D01*
X108387277Y-79256187D01*
X100710000Y-79256187D01*
X100710000Y-78126030D01*
X109195635Y-78126030D01*
X110530000Y-79460395D01*
X111864365Y-78126030D01*
X111704582Y-77807261D01*
X110913813Y-77497277D01*
X110064613Y-77513503D01*
X109355418Y-77807261D01*
X109195635Y-78126030D01*
X100710000Y-78126030D01*
X100710000Y-69219027D01*
X106805032Y-69219027D01*
X107053179Y-69748490D01*
X107485053Y-70142688D01*
X107900974Y-70314958D01*
X108133000Y-70193817D01*
X108133000Y-68987000D01*
X106925531Y-68987000D01*
X106805032Y-69219027D01*
X100710000Y-69219027D01*
X100710000Y-66679027D01*
X106805032Y-66679027D01*
X107053179Y-67208490D01*
X107471152Y-67590000D01*
X107053179Y-67971510D01*
X106805032Y-68500973D01*
X106925531Y-68733000D01*
X108133000Y-68733000D01*
X108133000Y-66447000D01*
X106925531Y-66447000D01*
X106805032Y-66679027D01*
X100710000Y-66679027D01*
X100710000Y-64139027D01*
X106805032Y-64139027D01*
X107053179Y-64668490D01*
X107471152Y-65050000D01*
X107053179Y-65431510D01*
X106805032Y-65960973D01*
X106925531Y-66193000D01*
X108133000Y-66193000D01*
X108133000Y-63907000D01*
X106925531Y-63907000D01*
X106805032Y-64139027D01*
X100710000Y-64139027D01*
X100710000Y-61599027D01*
X106805032Y-61599027D01*
X107053179Y-62128490D01*
X107471152Y-62510000D01*
X107053179Y-62891510D01*
X106805032Y-63420973D01*
X106925531Y-63653000D01*
X108133000Y-63653000D01*
X108133000Y-61367000D01*
X106925531Y-61367000D01*
X106805032Y-61599027D01*
X100710000Y-61599027D01*
X100710000Y-58670641D01*
X106761400Y-58670641D01*
X106761400Y-58729359D01*
X106875474Y-59302848D01*
X107200330Y-59789029D01*
X107471161Y-59969992D01*
X107053179Y-60351510D01*
X106805032Y-60880973D01*
X106925531Y-61113000D01*
X108133000Y-61113000D01*
X108133000Y-61093000D01*
X108387000Y-61093000D01*
X108387000Y-61113000D01*
X108407000Y-61113000D01*
X108407000Y-61367000D01*
X108387000Y-61367000D01*
X108387000Y-63653000D01*
X108407000Y-63653000D01*
X108407000Y-63907000D01*
X108387000Y-63907000D01*
X108387000Y-66193000D01*
X108407000Y-66193000D01*
X108407000Y-66447000D01*
X108387000Y-66447000D01*
X108387000Y-68733000D01*
X108407000Y-68733000D01*
X108407000Y-68987000D01*
X108387000Y-68987000D01*
X108387000Y-70193817D01*
X108619026Y-70314958D01*
X109034947Y-70142688D01*
X109466821Y-69748490D01*
X109524336Y-69625772D01*
X109740330Y-69949029D01*
X110226511Y-70273885D01*
X110800000Y-70387959D01*
X111373489Y-70273885D01*
X111859670Y-69949029D01*
X112184526Y-69462848D01*
X112298600Y-68889359D01*
X112298600Y-68830641D01*
X112184526Y-68257152D01*
X111859670Y-67770971D01*
X111588828Y-67590000D01*
X111859670Y-67409029D01*
X112184526Y-66922848D01*
X112298600Y-66349359D01*
X112298600Y-66290641D01*
X112184526Y-65717152D01*
X111859670Y-65230971D01*
X111588828Y-65050000D01*
X111859670Y-64869029D01*
X112184526Y-64382848D01*
X112298600Y-63809359D01*
X112298600Y-63750641D01*
X112184526Y-63177152D01*
X111859670Y-62690971D01*
X111588828Y-62510000D01*
X111859670Y-62329029D01*
X112184526Y-61842848D01*
X112298600Y-61269359D01*
X112298600Y-61210641D01*
X112184526Y-60637152D01*
X111873426Y-60171558D01*
X111898917Y-60166762D01*
X112115041Y-60027690D01*
X112260031Y-59815490D01*
X112311040Y-59563600D01*
X112311040Y-57836400D01*
X112266762Y-57601083D01*
X112127690Y-57384959D01*
X111915490Y-57239969D01*
X111663600Y-57188960D01*
X109936400Y-57188960D01*
X109701083Y-57233238D01*
X109484959Y-57372310D01*
X109339969Y-57584510D01*
X109331136Y-57628131D01*
X109319670Y-57610971D01*
X108833489Y-57286115D01*
X108260000Y-57172041D01*
X107686511Y-57286115D01*
X107200330Y-57610971D01*
X106875474Y-58097152D01*
X106761400Y-58670641D01*
X100710000Y-58670641D01*
X100710000Y-49031887D01*
X114465000Y-49031887D01*
X114465000Y-49088113D01*
X114574233Y-49637264D01*
X114885302Y-50102811D01*
X115350849Y-50413880D01*
X115900000Y-50523113D01*
X116449151Y-50413880D01*
X116914698Y-50102811D01*
X117225767Y-49637264D01*
X117271421Y-49407745D01*
X151271861Y-49407745D01*
X151345995Y-49653864D01*
X151883223Y-49846965D01*
X152453454Y-49819778D01*
X152854005Y-49653864D01*
X152928139Y-49407745D01*
X152100000Y-48579605D01*
X151271861Y-49407745D01*
X117271421Y-49407745D01*
X117335000Y-49088113D01*
X117335000Y-49031887D01*
X117225767Y-48482736D01*
X117025639Y-48183223D01*
X150653035Y-48183223D01*
X150680222Y-48753454D01*
X150846136Y-49154005D01*
X151092255Y-49228139D01*
X151920395Y-48400000D01*
X152279605Y-48400000D01*
X153107745Y-49228139D01*
X153353864Y-49154005D01*
X153356196Y-49147517D01*
X153382757Y-49211800D01*
X153786077Y-49615824D01*
X154313309Y-49834750D01*
X154884187Y-49835248D01*
X155411800Y-49617243D01*
X155815824Y-49213923D01*
X156034750Y-48686691D01*
X156035248Y-48115813D01*
X155977311Y-47975593D01*
X218074012Y-47975593D01*
X218215478Y-48278782D01*
X218951955Y-48563737D01*
X219741418Y-48545164D01*
X220384522Y-48278782D01*
X220525988Y-47975593D01*
X219300000Y-46749605D01*
X218074012Y-47975593D01*
X155977311Y-47975593D01*
X155817243Y-47588200D01*
X155413923Y-47184176D01*
X154886691Y-46965250D01*
X154315813Y-46964752D01*
X153788200Y-47182757D01*
X153384176Y-47586077D01*
X153356577Y-47652544D01*
X153353864Y-47645995D01*
X153107745Y-47571861D01*
X152279605Y-48400000D01*
X151920395Y-48400000D01*
X151092255Y-47571861D01*
X150846136Y-47645995D01*
X150653035Y-48183223D01*
X117025639Y-48183223D01*
X116914698Y-48017189D01*
X116449151Y-47706120D01*
X115900000Y-47596887D01*
X115350849Y-47706120D01*
X114885302Y-48017189D01*
X114574233Y-48482736D01*
X114465000Y-49031887D01*
X100710000Y-49031887D01*
X100710000Y-47392255D01*
X151271861Y-47392255D01*
X152100000Y-48220395D01*
X152928139Y-47392255D01*
X152854005Y-47146136D01*
X152316777Y-46953035D01*
X151746546Y-46980222D01*
X151345995Y-47146136D01*
X151271861Y-47392255D01*
X100710000Y-47392255D01*
X100710000Y-46221955D01*
X217306263Y-46221955D01*
X217324836Y-47011418D01*
X217591218Y-47654522D01*
X217894407Y-47795988D01*
X219120395Y-46570000D01*
X219479605Y-46570000D01*
X220705593Y-47795988D01*
X221008782Y-47654522D01*
X221293737Y-46918045D01*
X221275164Y-46128582D01*
X221008782Y-45485478D01*
X220705593Y-45344012D01*
X219479605Y-46570000D01*
X219120395Y-46570000D01*
X217894407Y-45344012D01*
X217591218Y-45485478D01*
X217306263Y-46221955D01*
X100710000Y-46221955D01*
X100710000Y-43931887D01*
X132065000Y-43931887D01*
X132065000Y-43988113D01*
X132174233Y-44537264D01*
X132485302Y-45002811D01*
X132950849Y-45313880D01*
X133500000Y-45423113D01*
X134049151Y-45313880D01*
X134514698Y-45002811D01*
X134825767Y-44537264D01*
X134935000Y-43988113D01*
X134935000Y-43931887D01*
X152165000Y-43931887D01*
X152165000Y-43988113D01*
X152274233Y-44537264D01*
X152585302Y-45002811D01*
X153050849Y-45313880D01*
X153600000Y-45423113D01*
X154149151Y-45313880D01*
X154614698Y-45002811D01*
X154925767Y-44537264D01*
X155035000Y-43988113D01*
X155035000Y-43931887D01*
X172365000Y-43931887D01*
X172365000Y-43988113D01*
X172474233Y-44537264D01*
X172785302Y-45002811D01*
X173250849Y-45313880D01*
X173800000Y-45423113D01*
X174349151Y-45313880D01*
X174814698Y-45002811D01*
X175125767Y-44537264D01*
X175235000Y-43988113D01*
X175235000Y-43931887D01*
X192265000Y-43931887D01*
X192265000Y-43988113D01*
X192374233Y-44537264D01*
X192685302Y-45002811D01*
X193150849Y-45313880D01*
X193700000Y-45423113D01*
X194249151Y-45313880D01*
X194472852Y-45164407D01*
X218074012Y-45164407D01*
X219300000Y-46390395D01*
X220525988Y-45164407D01*
X220384522Y-44861218D01*
X219648045Y-44576263D01*
X218858582Y-44594836D01*
X218215478Y-44861218D01*
X218074012Y-45164407D01*
X194472852Y-45164407D01*
X194714698Y-45002811D01*
X195025767Y-44537264D01*
X195135000Y-43988113D01*
X195135000Y-43931887D01*
X195025767Y-43382736D01*
X194714698Y-42917189D01*
X194249151Y-42606120D01*
X193700000Y-42496887D01*
X193150849Y-42606120D01*
X192685302Y-42917189D01*
X192374233Y-43382736D01*
X192265000Y-43931887D01*
X175235000Y-43931887D01*
X175125767Y-43382736D01*
X174814698Y-42917189D01*
X174349151Y-42606120D01*
X173800000Y-42496887D01*
X173250849Y-42606120D01*
X172785302Y-42917189D01*
X172474233Y-43382736D01*
X172365000Y-43931887D01*
X155035000Y-43931887D01*
X154925767Y-43382736D01*
X154614698Y-42917189D01*
X154149151Y-42606120D01*
X153600000Y-42496887D01*
X153050849Y-42606120D01*
X152585302Y-42917189D01*
X152274233Y-43382736D01*
X152165000Y-43931887D01*
X134935000Y-43931887D01*
X134825767Y-43382736D01*
X134514698Y-42917189D01*
X134049151Y-42606120D01*
X133500000Y-42496887D01*
X132950849Y-42606120D01*
X132485302Y-42917189D01*
X132174233Y-43382736D01*
X132065000Y-43931887D01*
X100710000Y-43931887D01*
X100710000Y-39184187D01*
X114464752Y-39184187D01*
X114682757Y-39711800D01*
X115086077Y-40115824D01*
X115613309Y-40334750D01*
X116184187Y-40335248D01*
X116711800Y-40117243D01*
X117115824Y-39713923D01*
X117284483Y-39307745D01*
X122641861Y-39307745D01*
X122715995Y-39553864D01*
X123253223Y-39746965D01*
X123265751Y-39746368D01*
X123055250Y-40253309D01*
X123054752Y-40824187D01*
X123272757Y-41351800D01*
X123676077Y-41755824D01*
X124203309Y-41974750D01*
X124774187Y-41975248D01*
X125301800Y-41757243D01*
X125510009Y-41549397D01*
X125716077Y-41755824D01*
X126243309Y-41974750D01*
X126814187Y-41975248D01*
X127341800Y-41757243D01*
X127745824Y-41353923D01*
X127964750Y-40826691D01*
X127965248Y-40255813D01*
X127747243Y-39728200D01*
X127343923Y-39324176D01*
X127304353Y-39307745D01*
X142641861Y-39307745D01*
X142715995Y-39553864D01*
X143253223Y-39746965D01*
X143265751Y-39746368D01*
X143055250Y-40253309D01*
X143054752Y-40824187D01*
X143272757Y-41351800D01*
X143676077Y-41755824D01*
X144203309Y-41974750D01*
X144774187Y-41975248D01*
X145301800Y-41757243D01*
X145510009Y-41549397D01*
X145716077Y-41755824D01*
X146243309Y-41974750D01*
X146814187Y-41975248D01*
X147341800Y-41757243D01*
X147745824Y-41353923D01*
X147964750Y-40826691D01*
X147965248Y-40255813D01*
X147747243Y-39728200D01*
X147343923Y-39324176D01*
X147304353Y-39307745D01*
X162641861Y-39307745D01*
X162715995Y-39553864D01*
X163253223Y-39746965D01*
X163265751Y-39746368D01*
X163055250Y-40253309D01*
X163054752Y-40824187D01*
X163272757Y-41351800D01*
X163676077Y-41755824D01*
X164203309Y-41974750D01*
X164774187Y-41975248D01*
X165301800Y-41757243D01*
X165510009Y-41549397D01*
X165716077Y-41755824D01*
X166243309Y-41974750D01*
X166814187Y-41975248D01*
X167341800Y-41757243D01*
X167745824Y-41353923D01*
X167964750Y-40826691D01*
X167965248Y-40255813D01*
X167747243Y-39728200D01*
X167343923Y-39324176D01*
X167304353Y-39307745D01*
X182641861Y-39307745D01*
X182715995Y-39553864D01*
X183253223Y-39746965D01*
X183265751Y-39746368D01*
X183055250Y-40253309D01*
X183054752Y-40824187D01*
X183272757Y-41351800D01*
X183676077Y-41755824D01*
X184203309Y-41974750D01*
X184774187Y-41975248D01*
X185301800Y-41757243D01*
X185510009Y-41549397D01*
X185716077Y-41755824D01*
X186243309Y-41974750D01*
X186814187Y-41975248D01*
X187341800Y-41757243D01*
X187745824Y-41353923D01*
X187964750Y-40826691D01*
X187965248Y-40255813D01*
X187747243Y-39728200D01*
X187343923Y-39324176D01*
X187304353Y-39307745D01*
X202641861Y-39307745D01*
X202715995Y-39553864D01*
X203253223Y-39746965D01*
X203265751Y-39746368D01*
X203055250Y-40253309D01*
X203054752Y-40824187D01*
X203272757Y-41351800D01*
X203676077Y-41755824D01*
X204203309Y-41974750D01*
X204774187Y-41975248D01*
X205301800Y-41757243D01*
X205510009Y-41549397D01*
X205716077Y-41755824D01*
X206243309Y-41974750D01*
X206814187Y-41975248D01*
X207341800Y-41757243D01*
X207745824Y-41353923D01*
X207964750Y-40826691D01*
X207965248Y-40255813D01*
X207747243Y-39728200D01*
X207343923Y-39324176D01*
X206816691Y-39105250D01*
X206594379Y-39105056D01*
X206763864Y-39054005D01*
X206956965Y-38516777D01*
X206929778Y-37946546D01*
X206763864Y-37545995D01*
X206517745Y-37471861D01*
X205689605Y-38300000D01*
X205703748Y-38314142D01*
X205524142Y-38493748D01*
X205510000Y-38479605D01*
X205495858Y-38493748D01*
X205316252Y-38314142D01*
X205330395Y-38300000D01*
X204828145Y-37797750D01*
X204723864Y-37545995D01*
X204512820Y-37482426D01*
X204502255Y-37471861D01*
X204490000Y-37475552D01*
X204477745Y-37471861D01*
X204467180Y-37482426D01*
X204256136Y-37545995D01*
X204173383Y-37776223D01*
X203649605Y-38300000D01*
X203663748Y-38314143D01*
X203484142Y-38493748D01*
X203470000Y-38479605D01*
X202641861Y-39307745D01*
X187304353Y-39307745D01*
X186816691Y-39105250D01*
X186594379Y-39105056D01*
X186763864Y-39054005D01*
X186956965Y-38516777D01*
X186936295Y-38083223D01*
X202023035Y-38083223D01*
X202050222Y-38653454D01*
X202216136Y-39054005D01*
X202462255Y-39128139D01*
X203290395Y-38300000D01*
X202462255Y-37471861D01*
X202216136Y-37545995D01*
X202023035Y-38083223D01*
X186936295Y-38083223D01*
X186929778Y-37946546D01*
X186763864Y-37545995D01*
X186517745Y-37471861D01*
X185689605Y-38300000D01*
X185703748Y-38314142D01*
X185524142Y-38493748D01*
X185510000Y-38479605D01*
X185495858Y-38493748D01*
X185316252Y-38314142D01*
X185330395Y-38300000D01*
X184828145Y-37797750D01*
X184723864Y-37545995D01*
X184512820Y-37482426D01*
X184502255Y-37471861D01*
X184490000Y-37475552D01*
X184477745Y-37471861D01*
X184467180Y-37482426D01*
X184256136Y-37545995D01*
X184173383Y-37776223D01*
X183649605Y-38300000D01*
X183663748Y-38314143D01*
X183484142Y-38493748D01*
X183470000Y-38479605D01*
X182641861Y-39307745D01*
X167304353Y-39307745D01*
X166816691Y-39105250D01*
X166594379Y-39105056D01*
X166763864Y-39054005D01*
X166956965Y-38516777D01*
X166936295Y-38083223D01*
X182023035Y-38083223D01*
X182050222Y-38653454D01*
X182216136Y-39054005D01*
X182462255Y-39128139D01*
X183290395Y-38300000D01*
X182462255Y-37471861D01*
X182216136Y-37545995D01*
X182023035Y-38083223D01*
X166936295Y-38083223D01*
X166929778Y-37946546D01*
X166763864Y-37545995D01*
X166517745Y-37471861D01*
X165689605Y-38300000D01*
X165703748Y-38314142D01*
X165524142Y-38493748D01*
X165510000Y-38479605D01*
X165495858Y-38493748D01*
X165316252Y-38314142D01*
X165330395Y-38300000D01*
X164828145Y-37797750D01*
X164723864Y-37545995D01*
X164512820Y-37482426D01*
X164502255Y-37471861D01*
X164490000Y-37475552D01*
X164477745Y-37471861D01*
X164467180Y-37482426D01*
X164256136Y-37545995D01*
X164173383Y-37776223D01*
X163649605Y-38300000D01*
X163663748Y-38314143D01*
X163484142Y-38493748D01*
X163470000Y-38479605D01*
X162641861Y-39307745D01*
X147304353Y-39307745D01*
X146816691Y-39105250D01*
X146594379Y-39105056D01*
X146763864Y-39054005D01*
X146956965Y-38516777D01*
X146936295Y-38083223D01*
X162023035Y-38083223D01*
X162050222Y-38653454D01*
X162216136Y-39054005D01*
X162462255Y-39128139D01*
X163290395Y-38300000D01*
X162462255Y-37471861D01*
X162216136Y-37545995D01*
X162023035Y-38083223D01*
X146936295Y-38083223D01*
X146929778Y-37946546D01*
X146763864Y-37545995D01*
X146517745Y-37471861D01*
X145689605Y-38300000D01*
X145703748Y-38314142D01*
X145524142Y-38493748D01*
X145510000Y-38479605D01*
X145495858Y-38493748D01*
X145316252Y-38314142D01*
X145330395Y-38300000D01*
X144828145Y-37797750D01*
X144723864Y-37545995D01*
X144512820Y-37482426D01*
X144502255Y-37471861D01*
X144490000Y-37475552D01*
X144477745Y-37471861D01*
X144467180Y-37482426D01*
X144256136Y-37545995D01*
X144173383Y-37776223D01*
X143649605Y-38300000D01*
X143663748Y-38314143D01*
X143484142Y-38493748D01*
X143470000Y-38479605D01*
X142641861Y-39307745D01*
X127304353Y-39307745D01*
X126816691Y-39105250D01*
X126594379Y-39105056D01*
X126763864Y-39054005D01*
X126956965Y-38516777D01*
X126936295Y-38083223D01*
X142023035Y-38083223D01*
X142050222Y-38653454D01*
X142216136Y-39054005D01*
X142462255Y-39128139D01*
X143290395Y-38300000D01*
X142462255Y-37471861D01*
X142216136Y-37545995D01*
X142023035Y-38083223D01*
X126936295Y-38083223D01*
X126929778Y-37946546D01*
X126763864Y-37545995D01*
X126517745Y-37471861D01*
X125689605Y-38300000D01*
X125703748Y-38314142D01*
X125524142Y-38493748D01*
X125510000Y-38479605D01*
X125495858Y-38493748D01*
X125316252Y-38314142D01*
X125330395Y-38300000D01*
X124828145Y-37797750D01*
X124723864Y-37545995D01*
X124512820Y-37482426D01*
X124502255Y-37471861D01*
X124490000Y-37475552D01*
X124477745Y-37471861D01*
X124467180Y-37482426D01*
X124256136Y-37545995D01*
X124173383Y-37776223D01*
X123649605Y-38300000D01*
X123663748Y-38314143D01*
X123484142Y-38493748D01*
X123470000Y-38479605D01*
X122641861Y-39307745D01*
X117284483Y-39307745D01*
X117334750Y-39186691D01*
X117335248Y-38615813D01*
X117117243Y-38088200D01*
X117112275Y-38083223D01*
X122023035Y-38083223D01*
X122050222Y-38653454D01*
X122216136Y-39054005D01*
X122462255Y-39128139D01*
X123290395Y-38300000D01*
X122462255Y-37471861D01*
X122216136Y-37545995D01*
X122023035Y-38083223D01*
X117112275Y-38083223D01*
X116713923Y-37684176D01*
X116186691Y-37465250D01*
X115615813Y-37464752D01*
X115088200Y-37682757D01*
X114684176Y-38086077D01*
X114465250Y-38613309D01*
X114464752Y-39184187D01*
X100710000Y-39184187D01*
X100710000Y-35620854D01*
X101864457Y-35620854D01*
X102340727Y-36773515D01*
X103221847Y-37656174D01*
X104373674Y-38134454D01*
X105620854Y-38135543D01*
X106773515Y-37659273D01*
X107656174Y-36778153D01*
X107830037Y-36359442D01*
X118184686Y-36359442D01*
X118460421Y-37026772D01*
X118970543Y-37537785D01*
X119637390Y-37814684D01*
X120359442Y-37815314D01*
X121026772Y-37539579D01*
X121274527Y-37292255D01*
X122641861Y-37292255D01*
X123470000Y-38120395D01*
X124298139Y-37292255D01*
X124681861Y-37292255D01*
X125510000Y-38120395D01*
X126338139Y-37292255D01*
X126264005Y-37046136D01*
X125726777Y-36853035D01*
X125156546Y-36880222D01*
X124755995Y-37046136D01*
X124681861Y-37292255D01*
X124298139Y-37292255D01*
X124224005Y-37046136D01*
X123686777Y-36853035D01*
X123116546Y-36880222D01*
X122715995Y-37046136D01*
X122641861Y-37292255D01*
X121274527Y-37292255D01*
X121537785Y-37029457D01*
X121814684Y-36362610D01*
X121814686Y-36359442D01*
X128184686Y-36359442D01*
X128460421Y-37026772D01*
X128970543Y-37537785D01*
X129637390Y-37814684D01*
X130359442Y-37815314D01*
X131026772Y-37539579D01*
X131537785Y-37029457D01*
X131814684Y-36362610D01*
X131814686Y-36359442D01*
X138184686Y-36359442D01*
X138460421Y-37026772D01*
X138970543Y-37537785D01*
X139637390Y-37814684D01*
X140359442Y-37815314D01*
X141026772Y-37539579D01*
X141274527Y-37292255D01*
X142641861Y-37292255D01*
X143470000Y-38120395D01*
X144298139Y-37292255D01*
X144681861Y-37292255D01*
X145510000Y-38120395D01*
X146338139Y-37292255D01*
X146264005Y-37046136D01*
X145726777Y-36853035D01*
X145156546Y-36880222D01*
X144755995Y-37046136D01*
X144681861Y-37292255D01*
X144298139Y-37292255D01*
X144224005Y-37046136D01*
X143686777Y-36853035D01*
X143116546Y-36880222D01*
X142715995Y-37046136D01*
X142641861Y-37292255D01*
X141274527Y-37292255D01*
X141537785Y-37029457D01*
X141814684Y-36362610D01*
X141814686Y-36359442D01*
X148184686Y-36359442D01*
X148460421Y-37026772D01*
X148970543Y-37537785D01*
X149637390Y-37814684D01*
X150359442Y-37815314D01*
X151026772Y-37539579D01*
X151537785Y-37029457D01*
X151814684Y-36362610D01*
X151814686Y-36359442D01*
X158184686Y-36359442D01*
X158460421Y-37026772D01*
X158970543Y-37537785D01*
X159637390Y-37814684D01*
X160359442Y-37815314D01*
X161026772Y-37539579D01*
X161274527Y-37292255D01*
X162641861Y-37292255D01*
X163470000Y-38120395D01*
X164298139Y-37292255D01*
X164681861Y-37292255D01*
X165510000Y-38120395D01*
X166338139Y-37292255D01*
X166264005Y-37046136D01*
X165726777Y-36853035D01*
X165156546Y-36880222D01*
X164755995Y-37046136D01*
X164681861Y-37292255D01*
X164298139Y-37292255D01*
X164224005Y-37046136D01*
X163686777Y-36853035D01*
X163116546Y-36880222D01*
X162715995Y-37046136D01*
X162641861Y-37292255D01*
X161274527Y-37292255D01*
X161537785Y-37029457D01*
X161814684Y-36362610D01*
X161814686Y-36359442D01*
X168184686Y-36359442D01*
X168460421Y-37026772D01*
X168970543Y-37537785D01*
X169637390Y-37814684D01*
X170359442Y-37815314D01*
X171026772Y-37539579D01*
X171537785Y-37029457D01*
X171814684Y-36362610D01*
X171814686Y-36359442D01*
X178184686Y-36359442D01*
X178460421Y-37026772D01*
X178970543Y-37537785D01*
X179637390Y-37814684D01*
X180359442Y-37815314D01*
X181026772Y-37539579D01*
X181274527Y-37292255D01*
X182641861Y-37292255D01*
X183470000Y-38120395D01*
X184298139Y-37292255D01*
X184681861Y-37292255D01*
X185510000Y-38120395D01*
X186338139Y-37292255D01*
X186264005Y-37046136D01*
X185726777Y-36853035D01*
X185156546Y-36880222D01*
X184755995Y-37046136D01*
X184681861Y-37292255D01*
X184298139Y-37292255D01*
X184224005Y-37046136D01*
X183686777Y-36853035D01*
X183116546Y-36880222D01*
X182715995Y-37046136D01*
X182641861Y-37292255D01*
X181274527Y-37292255D01*
X181537785Y-37029457D01*
X181814684Y-36362610D01*
X181814686Y-36359442D01*
X188184686Y-36359442D01*
X188460421Y-37026772D01*
X188970543Y-37537785D01*
X189637390Y-37814684D01*
X190359442Y-37815314D01*
X191026772Y-37539579D01*
X191537785Y-37029457D01*
X191814684Y-36362610D01*
X191814686Y-36359442D01*
X198184686Y-36359442D01*
X198460421Y-37026772D01*
X198970543Y-37537785D01*
X199637390Y-37814684D01*
X200359442Y-37815314D01*
X201026772Y-37539579D01*
X201274527Y-37292255D01*
X202641861Y-37292255D01*
X203470000Y-38120395D01*
X204298139Y-37292255D01*
X204681861Y-37292255D01*
X205510000Y-38120395D01*
X206338139Y-37292255D01*
X206264005Y-37046136D01*
X205726777Y-36853035D01*
X205156546Y-36880222D01*
X204755995Y-37046136D01*
X204681861Y-37292255D01*
X204298139Y-37292255D01*
X204224005Y-37046136D01*
X203686777Y-36853035D01*
X203116546Y-36880222D01*
X202715995Y-37046136D01*
X202641861Y-37292255D01*
X201274527Y-37292255D01*
X201537785Y-37029457D01*
X201814684Y-36362610D01*
X201814686Y-36359442D01*
X208184686Y-36359442D01*
X208460421Y-37026772D01*
X208970543Y-37537785D01*
X209637390Y-37814684D01*
X210359442Y-37815314D01*
X211026772Y-37539579D01*
X211537785Y-37029457D01*
X211814684Y-36362610D01*
X211815314Y-35640558D01*
X211807173Y-35620854D01*
X221864457Y-35620854D01*
X222340727Y-36773515D01*
X223221847Y-37656174D01*
X224373674Y-38134454D01*
X225620854Y-38135543D01*
X226773515Y-37659273D01*
X227656174Y-36778153D01*
X228134454Y-35626326D01*
X228135543Y-34379146D01*
X227659273Y-33226485D01*
X226778153Y-32343826D01*
X225626326Y-31865546D01*
X224379146Y-31864457D01*
X223226485Y-32340727D01*
X222343826Y-33221847D01*
X221865546Y-34373674D01*
X221864457Y-35620854D01*
X211807173Y-35620854D01*
X211539579Y-34973228D01*
X211029457Y-34462215D01*
X210362610Y-34185316D01*
X209640558Y-34184686D01*
X208973228Y-34460421D01*
X208462215Y-34970543D01*
X208185316Y-35637390D01*
X208184686Y-36359442D01*
X201814686Y-36359442D01*
X201815314Y-35640558D01*
X201539579Y-34973228D01*
X201029457Y-34462215D01*
X200362610Y-34185316D01*
X199640558Y-34184686D01*
X198973228Y-34460421D01*
X198462215Y-34970543D01*
X198185316Y-35637390D01*
X198184686Y-36359442D01*
X191814686Y-36359442D01*
X191815314Y-35640558D01*
X191539579Y-34973228D01*
X191029457Y-34462215D01*
X190362610Y-34185316D01*
X189640558Y-34184686D01*
X188973228Y-34460421D01*
X188462215Y-34970543D01*
X188185316Y-35637390D01*
X188184686Y-36359442D01*
X181814686Y-36359442D01*
X181815314Y-35640558D01*
X181539579Y-34973228D01*
X181029457Y-34462215D01*
X180362610Y-34185316D01*
X179640558Y-34184686D01*
X178973228Y-34460421D01*
X178462215Y-34970543D01*
X178185316Y-35637390D01*
X178184686Y-36359442D01*
X171814686Y-36359442D01*
X171815314Y-35640558D01*
X171539579Y-34973228D01*
X171029457Y-34462215D01*
X170362610Y-34185316D01*
X169640558Y-34184686D01*
X168973228Y-34460421D01*
X168462215Y-34970543D01*
X168185316Y-35637390D01*
X168184686Y-36359442D01*
X161814686Y-36359442D01*
X161815314Y-35640558D01*
X161539579Y-34973228D01*
X161029457Y-34462215D01*
X160362610Y-34185316D01*
X159640558Y-34184686D01*
X158973228Y-34460421D01*
X158462215Y-34970543D01*
X158185316Y-35637390D01*
X158184686Y-36359442D01*
X151814686Y-36359442D01*
X151815314Y-35640558D01*
X151539579Y-34973228D01*
X151029457Y-34462215D01*
X150362610Y-34185316D01*
X149640558Y-34184686D01*
X148973228Y-34460421D01*
X148462215Y-34970543D01*
X148185316Y-35637390D01*
X148184686Y-36359442D01*
X141814686Y-36359442D01*
X141815314Y-35640558D01*
X141539579Y-34973228D01*
X141029457Y-34462215D01*
X140362610Y-34185316D01*
X139640558Y-34184686D01*
X138973228Y-34460421D01*
X138462215Y-34970543D01*
X138185316Y-35637390D01*
X138184686Y-36359442D01*
X131814686Y-36359442D01*
X131815314Y-35640558D01*
X131539579Y-34973228D01*
X131029457Y-34462215D01*
X130362610Y-34185316D01*
X129640558Y-34184686D01*
X128973228Y-34460421D01*
X128462215Y-34970543D01*
X128185316Y-35637390D01*
X128184686Y-36359442D01*
X121814686Y-36359442D01*
X121815314Y-35640558D01*
X121539579Y-34973228D01*
X121029457Y-34462215D01*
X120362610Y-34185316D01*
X119640558Y-34184686D01*
X118973228Y-34460421D01*
X118462215Y-34970543D01*
X118185316Y-35637390D01*
X118184686Y-36359442D01*
X107830037Y-36359442D01*
X108134454Y-35626326D01*
X108135543Y-34379146D01*
X108013669Y-34084187D01*
X132064752Y-34084187D01*
X132282757Y-34611800D01*
X132686077Y-35015824D01*
X133213309Y-35234750D01*
X133784187Y-35235248D01*
X134311800Y-35017243D01*
X134715824Y-34613923D01*
X134934750Y-34086691D01*
X134934752Y-34084187D01*
X152164752Y-34084187D01*
X152382757Y-34611800D01*
X152786077Y-35015824D01*
X153313309Y-35234750D01*
X153884187Y-35235248D01*
X154411800Y-35017243D01*
X154815824Y-34613923D01*
X155034750Y-34086691D01*
X155034752Y-34084187D01*
X172364752Y-34084187D01*
X172582757Y-34611800D01*
X172986077Y-35015824D01*
X173513309Y-35234750D01*
X174084187Y-35235248D01*
X174611800Y-35017243D01*
X175015824Y-34613923D01*
X175234750Y-34086691D01*
X175234752Y-34084187D01*
X192264752Y-34084187D01*
X192482757Y-34611800D01*
X192886077Y-35015824D01*
X193413309Y-35234750D01*
X193984187Y-35235248D01*
X194511800Y-35017243D01*
X194915824Y-34613923D01*
X195134750Y-34086691D01*
X195135248Y-33515813D01*
X194917243Y-32988200D01*
X194513923Y-32584176D01*
X193986691Y-32365250D01*
X193415813Y-32364752D01*
X192888200Y-32582757D01*
X192484176Y-32986077D01*
X192265250Y-33513309D01*
X192264752Y-34084187D01*
X175234752Y-34084187D01*
X175235248Y-33515813D01*
X175017243Y-32988200D01*
X174613923Y-32584176D01*
X174086691Y-32365250D01*
X173515813Y-32364752D01*
X172988200Y-32582757D01*
X172584176Y-32986077D01*
X172365250Y-33513309D01*
X172364752Y-34084187D01*
X155034752Y-34084187D01*
X155035248Y-33515813D01*
X154817243Y-32988200D01*
X154413923Y-32584176D01*
X153886691Y-32365250D01*
X153315813Y-32364752D01*
X152788200Y-32582757D01*
X152384176Y-32986077D01*
X152165250Y-33513309D01*
X152164752Y-34084187D01*
X134934752Y-34084187D01*
X134935248Y-33515813D01*
X134717243Y-32988200D01*
X134313923Y-32584176D01*
X133786691Y-32365250D01*
X133215813Y-32364752D01*
X132688200Y-32582757D01*
X132284176Y-32986077D01*
X132065250Y-33513309D01*
X132064752Y-34084187D01*
X108013669Y-34084187D01*
X107659273Y-33226485D01*
X106778153Y-32343826D01*
X105626326Y-31865546D01*
X104379146Y-31864457D01*
X103226485Y-32340727D01*
X102343826Y-33221847D01*
X101865546Y-34373674D01*
X101864457Y-35620854D01*
X100710000Y-35620854D01*
X100710000Y-30710000D01*
X229290000Y-30710000D01*
X229290000Y-139290000D01*
X229290000Y-139290000D01*
G37*
X229290000Y-139290000D02*
X100710000Y-139290000D01*
X100710000Y-135620854D01*
X101864457Y-135620854D01*
X102340727Y-136773515D01*
X103221847Y-137656174D01*
X104373674Y-138134454D01*
X105620854Y-138135543D01*
X106773515Y-137659273D01*
X107656174Y-136778153D01*
X108134454Y-135626326D01*
X108134458Y-135620854D01*
X221864457Y-135620854D01*
X222340727Y-136773515D01*
X223221847Y-137656174D01*
X224373674Y-138134454D01*
X225620854Y-138135543D01*
X226773515Y-137659273D01*
X227656174Y-136778153D01*
X228134454Y-135626326D01*
X228135543Y-134379146D01*
X227659273Y-133226485D01*
X226778153Y-132343826D01*
X225626326Y-131865546D01*
X224379146Y-131864457D01*
X223226485Y-132340727D01*
X222343826Y-133221847D01*
X221865546Y-134373674D01*
X221864457Y-135620854D01*
X108134458Y-135620854D01*
X108135543Y-134379146D01*
X107835313Y-133652532D01*
X139027073Y-133652532D01*
X139125736Y-133919387D01*
X139735461Y-134145908D01*
X140385460Y-134121856D01*
X140874264Y-133919387D01*
X140972927Y-133652532D01*
X145527073Y-133652532D01*
X145625736Y-133919387D01*
X146235461Y-134145908D01*
X146885460Y-134121856D01*
X147374264Y-133919387D01*
X147472927Y-133652532D01*
X160902073Y-133652532D01*
X161000736Y-133919387D01*
X161610461Y-134145908D01*
X162260460Y-134121856D01*
X162749264Y-133919387D01*
X162847927Y-133652532D01*
X167402073Y-133652532D01*
X167500736Y-133919387D01*
X168110461Y-134145908D01*
X168760460Y-134121856D01*
X169249264Y-133919387D01*
X169347927Y-133652532D01*
X182777073Y-133652532D01*
X182875736Y-133919387D01*
X183485461Y-134145908D01*
X184135460Y-134121856D01*
X184624264Y-133919387D01*
X184722927Y-133652532D01*
X189277073Y-133652532D01*
X189375736Y-133919387D01*
X189985461Y-134145908D01*
X190635460Y-134121856D01*
X191124264Y-133919387D01*
X191222927Y-133652532D01*
X190250000Y-132679605D01*
X189277073Y-133652532D01*
X184722927Y-133652532D01*
X183750000Y-132679605D01*
X182777073Y-133652532D01*
X169347927Y-133652532D01*
X168375000Y-132679605D01*
X167402073Y-133652532D01*
X162847927Y-133652532D01*
X161875000Y-132679605D01*
X160902073Y-133652532D01*
X147472927Y-133652532D01*
X146500000Y-132679605D01*
X145527073Y-133652532D01*
X140972927Y-133652532D01*
X140000000Y-132679605D01*
X139027073Y-133652532D01*
X107835313Y-133652532D01*
X107659273Y-133226485D01*
X106778153Y-132343826D01*
X106517181Y-132235461D01*
X138354092Y-132235461D01*
X138378144Y-132885460D01*
X138580613Y-133374264D01*
X138847468Y-133472927D01*
X139820395Y-132500000D01*
X140179605Y-132500000D01*
X141152532Y-133472927D01*
X141419387Y-133374264D01*
X141645908Y-132764539D01*
X141626331Y-132235461D01*
X144854092Y-132235461D01*
X144878144Y-132885460D01*
X145080613Y-133374264D01*
X145347468Y-133472927D01*
X146320395Y-132500000D01*
X146679605Y-132500000D01*
X147652532Y-133472927D01*
X147919387Y-133374264D01*
X148145908Y-132764539D01*
X148126331Y-132235461D01*
X160229092Y-132235461D01*
X160253144Y-132885460D01*
X160455613Y-133374264D01*
X160722468Y-133472927D01*
X161695395Y-132500000D01*
X162054605Y-132500000D01*
X163027532Y-133472927D01*
X163294387Y-133374264D01*
X163520908Y-132764539D01*
X163501331Y-132235461D01*
X166729092Y-132235461D01*
X166753144Y-132885460D01*
X166955613Y-133374264D01*
X167222468Y-133472927D01*
X168195395Y-132500000D01*
X168554605Y-132500000D01*
X169527532Y-133472927D01*
X169794387Y-133374264D01*
X170020908Y-132764539D01*
X170001331Y-132235461D01*
X182104092Y-132235461D01*
X182128144Y-132885460D01*
X182330613Y-133374264D01*
X182597468Y-133472927D01*
X183570395Y-132500000D01*
X183929605Y-132500000D01*
X184902532Y-133472927D01*
X185169387Y-133374264D01*
X185395908Y-132764539D01*
X185376331Y-132235461D01*
X188604092Y-132235461D01*
X188628144Y-132885460D01*
X188830613Y-133374264D01*
X189097468Y-133472927D01*
X190070395Y-132500000D01*
X190429605Y-132500000D01*
X191402532Y-133472927D01*
X191669387Y-133374264D01*
X191895908Y-132764539D01*
X191871856Y-132114540D01*
X191669387Y-131625736D01*
X191402532Y-131527073D01*
X190429605Y-132500000D01*
X190070395Y-132500000D01*
X189097468Y-131527073D01*
X188830613Y-131625736D01*
X188604092Y-132235461D01*
X185376331Y-132235461D01*
X185371856Y-132114540D01*
X185169387Y-131625736D01*
X184902532Y-131527073D01*
X183929605Y-132500000D01*
X183570395Y-132500000D01*
X182597468Y-131527073D01*
X182330613Y-131625736D01*
X182104092Y-132235461D01*
X170001331Y-132235461D01*
X169996856Y-132114540D01*
X169794387Y-131625736D01*
X169527532Y-131527073D01*
X168554605Y-132500000D01*
X168195395Y-132500000D01*
X167222468Y-131527073D01*
X166955613Y-131625736D01*
X166729092Y-132235461D01*
X163501331Y-132235461D01*
X163496856Y-132114540D01*
X163294387Y-131625736D01*
X163027532Y-131527073D01*
X162054605Y-132500000D01*
X161695395Y-132500000D01*
X160722468Y-131527073D01*
X160455613Y-131625736D01*
X160229092Y-132235461D01*
X148126331Y-132235461D01*
X148121856Y-132114540D01*
X147919387Y-131625736D01*
X147652532Y-131527073D01*
X146679605Y-132500000D01*
X146320395Y-132500000D01*
X145347468Y-131527073D01*
X145080613Y-131625736D01*
X144854092Y-132235461D01*
X141626331Y-132235461D01*
X141621856Y-132114540D01*
X141419387Y-131625736D01*
X141152532Y-131527073D01*
X140179605Y-132500000D01*
X139820395Y-132500000D01*
X138847468Y-131527073D01*
X138580613Y-131625736D01*
X138354092Y-132235461D01*
X106517181Y-132235461D01*
X105626326Y-131865546D01*
X104379146Y-131864457D01*
X103226485Y-132340727D01*
X102343826Y-133221847D01*
X101865546Y-134373674D01*
X101864457Y-135620854D01*
X100710000Y-135620854D01*
X100710000Y-131347468D01*
X139027073Y-131347468D01*
X140000000Y-132320395D01*
X140972927Y-131347468D01*
X145527073Y-131347468D01*
X146500000Y-132320395D01*
X147472927Y-131347468D01*
X160902073Y-131347468D01*
X161875000Y-132320395D01*
X162847927Y-131347468D01*
X167402073Y-131347468D01*
X168375000Y-132320395D01*
X169347927Y-131347468D01*
X182777073Y-131347468D01*
X183750000Y-132320395D01*
X184722927Y-131347468D01*
X189277073Y-131347468D01*
X190250000Y-132320395D01*
X191222927Y-131347468D01*
X191124264Y-131080613D01*
X190514539Y-130854092D01*
X189864540Y-130878144D01*
X189375736Y-131080613D01*
X189277073Y-131347468D01*
X184722927Y-131347468D01*
X184624264Y-131080613D01*
X184014539Y-130854092D01*
X183364540Y-130878144D01*
X182875736Y-131080613D01*
X182777073Y-131347468D01*
X169347927Y-131347468D01*
X169249264Y-131080613D01*
X168639539Y-130854092D01*
X167989540Y-130878144D01*
X167500736Y-131080613D01*
X167402073Y-131347468D01*
X162847927Y-131347468D01*
X162749264Y-131080613D01*
X162139539Y-130854092D01*
X161489540Y-130878144D01*
X161000736Y-131080613D01*
X160902073Y-131347468D01*
X147472927Y-131347468D01*
X147374264Y-131080613D01*
X146764539Y-130854092D01*
X146114540Y-130878144D01*
X145625736Y-131080613D01*
X145527073Y-131347468D01*
X140972927Y-131347468D01*
X140874264Y-131080613D01*
X140264539Y-130854092D01*
X139614540Y-130878144D01*
X139125736Y-131080613D01*
X139027073Y-131347468D01*
X100710000Y-131347468D01*
X100710000Y-122260000D01*
X112428275Y-122260000D01*
X112609822Y-123172700D01*
X113126825Y-123946450D01*
X113900575Y-124463453D01*
X114813275Y-124645000D01*
X114906725Y-124645000D01*
X115819425Y-124463453D01*
X116593175Y-123946450D01*
X117110178Y-123172700D01*
X117291725Y-122260000D01*
X117110178Y-121347300D01*
X116593175Y-120573550D01*
X115819425Y-120056547D01*
X114906725Y-119875000D01*
X114813275Y-119875000D01*
X113900575Y-120056547D01*
X113126825Y-120573550D01*
X112609822Y-121347300D01*
X112428275Y-122260000D01*
X100710000Y-122260000D01*
X100710000Y-105964740D01*
X110828964Y-105964740D01*
X111007760Y-106396417D01*
X111412424Y-106837966D01*
X111955258Y-107091046D01*
X112193000Y-106970997D01*
X112193000Y-105727000D01*
X110949622Y-105727000D01*
X110828964Y-105964740D01*
X100710000Y-105964740D01*
X100710000Y-105235260D01*
X110828964Y-105235260D01*
X110949622Y-105473000D01*
X112193000Y-105473000D01*
X112193000Y-104229003D01*
X112447000Y-104229003D01*
X112447000Y-105473000D01*
X112467000Y-105473000D01*
X112467000Y-105727000D01*
X112447000Y-105727000D01*
X112447000Y-106970997D01*
X112684742Y-107091046D01*
X113227576Y-106837966D01*
X113585499Y-106447418D01*
X113744519Y-106685409D01*
X114242509Y-107018155D01*
X114829928Y-107135000D01*
X114890072Y-107135000D01*
X115477491Y-107018155D01*
X115898026Y-106737163D01*
X116035910Y-106951441D01*
X116248110Y-107096431D01*
X116500000Y-107147440D01*
X118300000Y-107147440D01*
X118535317Y-107103162D01*
X118751441Y-106964090D01*
X118896431Y-106751890D01*
X118947440Y-106500000D01*
X118947440Y-104700000D01*
X118903162Y-104464683D01*
X118764090Y-104248559D01*
X118551890Y-104103569D01*
X118300000Y-104052560D01*
X116500000Y-104052560D01*
X116264683Y-104096838D01*
X116048559Y-104235910D01*
X115903569Y-104448110D01*
X115900281Y-104464344D01*
X115477491Y-104181845D01*
X114890072Y-104065000D01*
X114829928Y-104065000D01*
X114242509Y-104181845D01*
X113744519Y-104514591D01*
X113585499Y-104752582D01*
X113227576Y-104362034D01*
X112684742Y-104108954D01*
X112447000Y-104229003D01*
X112193000Y-104229003D01*
X111955258Y-104108954D01*
X111412424Y-104362034D01*
X111007760Y-104803583D01*
X110828964Y-105235260D01*
X100710000Y-105235260D01*
X100710000Y-100349039D01*
X105748096Y-100349039D01*
X105908959Y-100737423D01*
X106284866Y-101152389D01*
X106790959Y-101391914D01*
X107013000Y-101270629D01*
X107013000Y-100127000D01*
X107267000Y-100127000D01*
X107267000Y-101270629D01*
X107489041Y-101391914D01*
X107995134Y-101152389D01*
X108371041Y-100737423D01*
X108531904Y-100349039D01*
X108496275Y-100284187D01*
X115864752Y-100284187D01*
X116082757Y-100811800D01*
X116486077Y-101215824D01*
X117013309Y-101434750D01*
X117584187Y-101435248D01*
X118111800Y-101217243D01*
X118515824Y-100813923D01*
X118734750Y-100286691D01*
X118735248Y-99715813D01*
X118517243Y-99188200D01*
X118113923Y-98784176D01*
X118060000Y-98761785D01*
X118060000Y-69400000D01*
X120640000Y-69400000D01*
X120640000Y-109000000D01*
X120697852Y-109290839D01*
X120862599Y-109537401D01*
X138551087Y-127225889D01*
X138365284Y-127673352D01*
X138364716Y-128323795D01*
X138613106Y-128924943D01*
X139072637Y-129385278D01*
X139673352Y-129634716D01*
X140323795Y-129635284D01*
X140924943Y-129386894D01*
X141385278Y-128927363D01*
X141634716Y-128326648D01*
X141634718Y-128323795D01*
X144864716Y-128323795D01*
X145113106Y-128924943D01*
X145572637Y-129385278D01*
X146173352Y-129634716D01*
X146823795Y-129635284D01*
X147424943Y-129386894D01*
X147885278Y-128927363D01*
X148134716Y-128326648D01*
X148135284Y-127676205D01*
X147886894Y-127075057D01*
X147427363Y-126614722D01*
X146826648Y-126365284D01*
X146176205Y-126364716D01*
X145575057Y-126613106D01*
X145114722Y-127072637D01*
X144865284Y-127673352D01*
X144864716Y-128323795D01*
X141634718Y-128323795D01*
X141635284Y-127676205D01*
X141386894Y-127075057D01*
X140927363Y-126614722D01*
X140326648Y-126365284D01*
X139839661Y-126364859D01*
X122160000Y-108685198D01*
X122160000Y-69714802D01*
X126867691Y-65007111D01*
X126865162Y-65013201D01*
X126865121Y-65060077D01*
X122562599Y-69362599D01*
X122397852Y-69609161D01*
X122340000Y-69900000D01*
X122340000Y-108200000D01*
X122397852Y-108490839D01*
X122562599Y-108737401D01*
X133262599Y-119437401D01*
X133509161Y-119602148D01*
X133800000Y-119660000D01*
X152460198Y-119660000D01*
X160308725Y-127508527D01*
X160240284Y-127673352D01*
X160239716Y-128323795D01*
X160488106Y-128924943D01*
X160947637Y-129385278D01*
X161548352Y-129634716D01*
X162198795Y-129635284D01*
X162799943Y-129386894D01*
X163260278Y-128927363D01*
X163509716Y-128326648D01*
X163510284Y-127676205D01*
X163261894Y-127075057D01*
X162802363Y-126614722D01*
X162201648Y-126365284D01*
X161551205Y-126364716D01*
X161383721Y-126433919D01*
X153312401Y-118362599D01*
X153065839Y-118197852D01*
X152775000Y-118140000D01*
X134114802Y-118140000D01*
X132088107Y-116113305D01*
X135614674Y-116113305D01*
X135901043Y-116806372D01*
X136430839Y-117337093D01*
X137123405Y-117624672D01*
X137873305Y-117625326D01*
X138566372Y-117338957D01*
X139097093Y-116809161D01*
X139384672Y-116116595D01*
X139385326Y-115366695D01*
X139098957Y-114673628D01*
X138569161Y-114142907D01*
X137876595Y-113855328D01*
X137126695Y-113854674D01*
X136433628Y-114141043D01*
X135902907Y-114670839D01*
X135615328Y-115363405D01*
X135614674Y-116113305D01*
X132088107Y-116113305D01*
X127048107Y-111073305D01*
X133114674Y-111073305D01*
X133401043Y-111766372D01*
X133930839Y-112297093D01*
X134623405Y-112584672D01*
X135373305Y-112585326D01*
X136066372Y-112298957D01*
X136332472Y-112033320D01*
X138846285Y-112033320D01*
X138975533Y-112326123D01*
X139675806Y-112594388D01*
X140425435Y-112574250D01*
X141024467Y-112326123D01*
X141153715Y-112033320D01*
X140000000Y-110879605D01*
X138846285Y-112033320D01*
X136332472Y-112033320D01*
X136597093Y-111769161D01*
X136884672Y-111076595D01*
X136885283Y-110375806D01*
X138105612Y-110375806D01*
X138125750Y-111125435D01*
X138373877Y-111724467D01*
X138666680Y-111853715D01*
X139820395Y-110700000D01*
X140179605Y-110700000D01*
X141333320Y-111853715D01*
X141626123Y-111724467D01*
X141894388Y-111024194D01*
X141874250Y-110274565D01*
X141626123Y-109675533D01*
X141333320Y-109546285D01*
X140179605Y-110700000D01*
X139820395Y-110700000D01*
X138666680Y-109546285D01*
X138373877Y-109675533D01*
X138105612Y-110375806D01*
X136885283Y-110375806D01*
X136885326Y-110326695D01*
X136598957Y-109633628D01*
X136332475Y-109366680D01*
X138846285Y-109366680D01*
X140000000Y-110520395D01*
X141153715Y-109366680D01*
X141024467Y-109073877D01*
X140324194Y-108805612D01*
X139574565Y-108825750D01*
X138975533Y-109073877D01*
X138846285Y-109366680D01*
X136332475Y-109366680D01*
X136069161Y-109102907D01*
X135376595Y-108815328D01*
X134626695Y-108814674D01*
X133933628Y-109101043D01*
X133402907Y-109630839D01*
X133115328Y-110323405D01*
X133114674Y-111073305D01*
X127048107Y-111073305D01*
X123860000Y-107885198D01*
X123860000Y-103813515D01*
X125207530Y-103813515D01*
X125531880Y-104598500D01*
X126131941Y-105199609D01*
X126916359Y-105525328D01*
X127765715Y-105526070D01*
X128550700Y-105201720D01*
X129151809Y-104601659D01*
X129477528Y-103817241D01*
X129478270Y-102967885D01*
X129153920Y-102182900D01*
X128553859Y-101581791D01*
X127769441Y-101256072D01*
X126920085Y-101255330D01*
X126135100Y-101579680D01*
X125533991Y-102179741D01*
X125208272Y-102964159D01*
X125207530Y-103813515D01*
X123860000Y-103813515D01*
X123860000Y-72812815D01*
X125207530Y-72812815D01*
X125531880Y-73597800D01*
X126131941Y-74198909D01*
X126916359Y-74524628D01*
X127765715Y-74525370D01*
X128550700Y-74201020D01*
X129151809Y-73600959D01*
X129477528Y-72816541D01*
X129477650Y-72675750D01*
X131307000Y-72675750D01*
X131307000Y-73816310D01*
X131403673Y-74049699D01*
X131582302Y-74228327D01*
X131815691Y-74325000D01*
X132556250Y-74325000D01*
X132715000Y-74166250D01*
X132715000Y-72517000D01*
X131465750Y-72517000D01*
X131307000Y-72675750D01*
X129477650Y-72675750D01*
X129478270Y-71967185D01*
X129153920Y-71182200D01*
X128935791Y-70963690D01*
X131307000Y-70963690D01*
X131307000Y-72104250D01*
X131465750Y-72263000D01*
X132715000Y-72263000D01*
X132715000Y-70613750D01*
X132969000Y-70613750D01*
X132969000Y-72263000D01*
X132989000Y-72263000D01*
X132989000Y-72517000D01*
X132969000Y-72517000D01*
X132969000Y-74166250D01*
X133127750Y-74325000D01*
X133868309Y-74325000D01*
X134101698Y-74228327D01*
X134280327Y-74049699D01*
X134328098Y-73934370D01*
X134794581Y-74246064D01*
X135382000Y-74362909D01*
X135969419Y-74246064D01*
X136467409Y-73913318D01*
X136652000Y-73637058D01*
X136836591Y-73913318D01*
X137334581Y-74246064D01*
X137922000Y-74362909D01*
X138509419Y-74246064D01*
X139007409Y-73913318D01*
X139192000Y-73637058D01*
X139376591Y-73913318D01*
X139874581Y-74246064D01*
X140462000Y-74362909D01*
X141049419Y-74246064D01*
X141547409Y-73913318D01*
X141738192Y-73627790D01*
X142006394Y-73965212D01*
X142531914Y-74256756D01*
X142637260Y-74281036D01*
X142875000Y-74160378D01*
X142875000Y-72517000D01*
X142855000Y-72517000D01*
X142855000Y-72263000D01*
X142875000Y-72263000D01*
X142875000Y-70619622D01*
X143129000Y-70619622D01*
X143129000Y-72263000D01*
X143149000Y-72263000D01*
X143149000Y-72517000D01*
X143129000Y-72517000D01*
X143129000Y-74160378D01*
X143366740Y-74281036D01*
X143472086Y-74256756D01*
X143997606Y-73965212D01*
X144265808Y-73627790D01*
X144456591Y-73913318D01*
X144954581Y-74246064D01*
X145542000Y-74362909D01*
X146129419Y-74246064D01*
X146627409Y-73913318D01*
X146812000Y-73637058D01*
X146996591Y-73913318D01*
X147494581Y-74246064D01*
X148082000Y-74362909D01*
X148669419Y-74246064D01*
X149167409Y-73913318D01*
X149352000Y-73637058D01*
X149536591Y-73913318D01*
X150034581Y-74246064D01*
X150622000Y-74362909D01*
X151209419Y-74246064D01*
X151707409Y-73913318D01*
X151892000Y-73637058D01*
X152076591Y-73913318D01*
X152574581Y-74246064D01*
X153162000Y-74362909D01*
X153749419Y-74246064D01*
X154247409Y-73913318D01*
X154432000Y-73637058D01*
X154616591Y-73913318D01*
X155114581Y-74246064D01*
X155702000Y-74362909D01*
X156289419Y-74246064D01*
X156787409Y-73913318D01*
X156972000Y-73637058D01*
X157156591Y-73913318D01*
X157654581Y-74246064D01*
X158242000Y-74362909D01*
X158829419Y-74246064D01*
X159327409Y-73913318D01*
X159512000Y-73637058D01*
X159696591Y-73913318D01*
X160194581Y-74246064D01*
X160782000Y-74362909D01*
X161369419Y-74246064D01*
X161867409Y-73913318D01*
X162052000Y-73637058D01*
X162236591Y-73913318D01*
X162734581Y-74246064D01*
X163322000Y-74362909D01*
X163909419Y-74246064D01*
X164407409Y-73913318D01*
X164592000Y-73637058D01*
X164776591Y-73913318D01*
X165274581Y-74246064D01*
X165862000Y-74362909D01*
X166449419Y-74246064D01*
X166947409Y-73913318D01*
X167132000Y-73637058D01*
X167316591Y-73913318D01*
X167814581Y-74246064D01*
X168402000Y-74362909D01*
X168989419Y-74246064D01*
X169487409Y-73913318D01*
X169678192Y-73627790D01*
X169946394Y-73965212D01*
X170471914Y-74256756D01*
X170577260Y-74281036D01*
X170815000Y-74160378D01*
X170815000Y-72517000D01*
X171069000Y-72517000D01*
X171069000Y-74160378D01*
X171306740Y-74281036D01*
X171412086Y-74256756D01*
X171937606Y-73965212D01*
X172311554Y-73494752D01*
X172477000Y-72917000D01*
X172477000Y-72517000D01*
X171069000Y-72517000D01*
X170815000Y-72517000D01*
X170795000Y-72517000D01*
X170795000Y-72263000D01*
X170815000Y-72263000D01*
X170815000Y-70619622D01*
X171069000Y-70619622D01*
X171069000Y-72263000D01*
X172477000Y-72263000D01*
X172477000Y-71863000D01*
X172311554Y-71285248D01*
X171937606Y-70814788D01*
X171412086Y-70523244D01*
X171306740Y-70498964D01*
X171069000Y-70619622D01*
X170815000Y-70619622D01*
X170577260Y-70498964D01*
X170471914Y-70523244D01*
X169946394Y-70814788D01*
X169678192Y-71152210D01*
X169487409Y-70866682D01*
X168989419Y-70533936D01*
X168402000Y-70417091D01*
X167814581Y-70533936D01*
X167316591Y-70866682D01*
X167132000Y-71142942D01*
X166947409Y-70866682D01*
X166449419Y-70533936D01*
X165862000Y-70417091D01*
X165274581Y-70533936D01*
X164776591Y-70866682D01*
X164592000Y-71142942D01*
X164407409Y-70866682D01*
X163909419Y-70533936D01*
X163322000Y-70417091D01*
X162734581Y-70533936D01*
X162236591Y-70866682D01*
X162052000Y-71142942D01*
X161867409Y-70866682D01*
X161369419Y-70533936D01*
X160782000Y-70417091D01*
X160194581Y-70533936D01*
X159696591Y-70866682D01*
X159512000Y-71142942D01*
X159327409Y-70866682D01*
X158829419Y-70533936D01*
X158242000Y-70417091D01*
X157654581Y-70533936D01*
X157156591Y-70866682D01*
X156972000Y-71142942D01*
X156787409Y-70866682D01*
X156289419Y-70533936D01*
X155702000Y-70417091D01*
X155114581Y-70533936D01*
X154616591Y-70866682D01*
X154432000Y-71142942D01*
X154247409Y-70866682D01*
X153749419Y-70533936D01*
X153162000Y-70417091D01*
X152574581Y-70533936D01*
X152076591Y-70866682D01*
X151892000Y-71142942D01*
X151707409Y-70866682D01*
X151209419Y-70533936D01*
X150622000Y-70417091D01*
X150034581Y-70533936D01*
X149536591Y-70866682D01*
X149352000Y-71142942D01*
X149167409Y-70866682D01*
X148669419Y-70533936D01*
X148082000Y-70417091D01*
X147494581Y-70533936D01*
X146996591Y-70866682D01*
X146812000Y-71142942D01*
X146627409Y-70866682D01*
X146129419Y-70533936D01*
X145542000Y-70417091D01*
X144954581Y-70533936D01*
X144456591Y-70866682D01*
X144265808Y-71152210D01*
X143997606Y-70814788D01*
X143472086Y-70523244D01*
X143366740Y-70498964D01*
X143129000Y-70619622D01*
X142875000Y-70619622D01*
X142637260Y-70498964D01*
X142531914Y-70523244D01*
X142006394Y-70814788D01*
X141738192Y-71152210D01*
X141547409Y-70866682D01*
X141049419Y-70533936D01*
X140462000Y-70417091D01*
X139874581Y-70533936D01*
X139376591Y-70866682D01*
X139192000Y-71142942D01*
X139007409Y-70866682D01*
X138509419Y-70533936D01*
X137922000Y-70417091D01*
X137334581Y-70533936D01*
X136836591Y-70866682D01*
X136652000Y-71142942D01*
X136467409Y-70866682D01*
X135969419Y-70533936D01*
X135382000Y-70417091D01*
X134794581Y-70533936D01*
X134328098Y-70845630D01*
X134280327Y-70730301D01*
X134101698Y-70551673D01*
X133868309Y-70455000D01*
X133127750Y-70455000D01*
X132969000Y-70613750D01*
X132715000Y-70613750D01*
X132556250Y-70455000D01*
X131815691Y-70455000D01*
X131582302Y-70551673D01*
X131403673Y-70730301D01*
X131307000Y-70963690D01*
X128935791Y-70963690D01*
X128553859Y-70581091D01*
X127769441Y-70255372D01*
X126920085Y-70254630D01*
X126135100Y-70578980D01*
X125533991Y-71179041D01*
X125208272Y-71963459D01*
X125207530Y-72812815D01*
X123860000Y-72812815D01*
X123860000Y-70214802D01*
X125067057Y-69007745D01*
X131971861Y-69007745D01*
X132045995Y-69253864D01*
X132583223Y-69446965D01*
X133153454Y-69419778D01*
X133554005Y-69253864D01*
X133628139Y-69007745D01*
X132800000Y-68179605D01*
X131971861Y-69007745D01*
X125067057Y-69007745D01*
X126291579Y-67783223D01*
X131353035Y-67783223D01*
X131380222Y-68353454D01*
X131546136Y-68754005D01*
X131792255Y-68828139D01*
X132620395Y-68000000D01*
X132979605Y-68000000D01*
X133807745Y-68828139D01*
X134053864Y-68754005D01*
X134056196Y-68747517D01*
X134082757Y-68811800D01*
X134486077Y-69215824D01*
X135013309Y-69434750D01*
X135584187Y-69435248D01*
X136111800Y-69217243D01*
X136515824Y-68813923D01*
X136734750Y-68286691D01*
X136735248Y-67715813D01*
X136517243Y-67188200D01*
X136113923Y-66784176D01*
X135586691Y-66565250D01*
X135015813Y-66564752D01*
X134488200Y-66782757D01*
X134084176Y-67186077D01*
X134056577Y-67252544D01*
X134053864Y-67245995D01*
X133807745Y-67171861D01*
X132979605Y-68000000D01*
X132620395Y-68000000D01*
X131792255Y-67171861D01*
X131546136Y-67245995D01*
X131353035Y-67783223D01*
X126291579Y-67783223D01*
X127082547Y-66992255D01*
X131971861Y-66992255D01*
X132800000Y-67820395D01*
X133628139Y-66992255D01*
X133554005Y-66746136D01*
X133016777Y-66553035D01*
X132446546Y-66580222D01*
X132045995Y-66746136D01*
X131971861Y-66992255D01*
X127082547Y-66992255D01*
X127939680Y-66135122D01*
X127985167Y-66135162D01*
X128328943Y-65993117D01*
X128362118Y-65960000D01*
X135900000Y-65960000D01*
X136190839Y-65902148D01*
X136437401Y-65737401D01*
X141719614Y-60455188D01*
X141860000Y-60483113D01*
X142150522Y-60425324D01*
X150662599Y-68937401D01*
X150909161Y-69102148D01*
X151200000Y-69160000D01*
X173485198Y-69160000D01*
X174440000Y-70114802D01*
X174440000Y-108485198D01*
X167837599Y-115087599D01*
X167672852Y-115334161D01*
X167615000Y-115625000D01*
X167615000Y-126544953D01*
X167450057Y-126613106D01*
X166989722Y-127072637D01*
X166740284Y-127673352D01*
X166739716Y-128323795D01*
X166988106Y-128924943D01*
X167447637Y-129385278D01*
X168048352Y-129634716D01*
X168698795Y-129635284D01*
X169299943Y-129386894D01*
X169760278Y-128927363D01*
X170009716Y-128326648D01*
X170010284Y-127676205D01*
X169761894Y-127075057D01*
X169302363Y-126614722D01*
X169135000Y-126545227D01*
X169135000Y-122300000D01*
X179876887Y-122300000D01*
X179986120Y-122849151D01*
X180297189Y-123314698D01*
X180762736Y-123625767D01*
X181311887Y-123735000D01*
X181368113Y-123735000D01*
X181917264Y-123625767D01*
X182382811Y-123314698D01*
X182693880Y-122849151D01*
X182803113Y-122300000D01*
X182693880Y-121750849D01*
X182382811Y-121285302D01*
X181917264Y-120974233D01*
X181368113Y-120865000D01*
X181311887Y-120865000D01*
X180762736Y-120974233D01*
X180297189Y-121285302D01*
X179986120Y-121750849D01*
X179876887Y-122300000D01*
X169135000Y-122300000D01*
X169135000Y-115939802D01*
X175737401Y-109337401D01*
X175902148Y-109090839D01*
X175960000Y-108800000D01*
X175960000Y-69800000D01*
X175902148Y-69509161D01*
X175737401Y-69262599D01*
X174337401Y-67862599D01*
X174090839Y-67697852D01*
X173800000Y-67640000D01*
X151514802Y-67640000D01*
X144347465Y-60472663D01*
X144400000Y-60483113D01*
X144723886Y-60418688D01*
X151042599Y-66737401D01*
X151289160Y-66902148D01*
X151580000Y-66960000D01*
X179285198Y-66960000D01*
X182990000Y-70664802D01*
X182990000Y-126544953D01*
X182825057Y-126613106D01*
X182364722Y-127072637D01*
X182115284Y-127673352D01*
X182114716Y-128323795D01*
X182363106Y-128924943D01*
X182822637Y-129385278D01*
X183423352Y-129634716D01*
X184073795Y-129635284D01*
X184674943Y-129386894D01*
X185135278Y-128927363D01*
X185384716Y-128326648D01*
X185384718Y-128323795D01*
X188614716Y-128323795D01*
X188863106Y-128924943D01*
X189322637Y-129385278D01*
X189923352Y-129634716D01*
X190573795Y-129635284D01*
X191174943Y-129386894D01*
X191635278Y-128927363D01*
X191884716Y-128326648D01*
X191885284Y-127676205D01*
X191636894Y-127075057D01*
X191177363Y-126614722D01*
X190576648Y-126365284D01*
X189926205Y-126364716D01*
X189325057Y-126613106D01*
X188864722Y-127072637D01*
X188615284Y-127673352D01*
X188614716Y-128323795D01*
X185384718Y-128323795D01*
X185385284Y-127676205D01*
X185136894Y-127075057D01*
X184677363Y-126614722D01*
X184510000Y-126545227D01*
X184510000Y-122584187D01*
X190064752Y-122584187D01*
X190282757Y-123111800D01*
X190686077Y-123515824D01*
X191213309Y-123734750D01*
X191784187Y-123735248D01*
X192311800Y-123517243D01*
X192715824Y-123113923D01*
X192869596Y-122743599D01*
X202164699Y-122743599D01*
X202428281Y-123381515D01*
X202915918Y-123870004D01*
X203553373Y-124134699D01*
X204243599Y-124135301D01*
X204881515Y-123871719D01*
X205370004Y-123384082D01*
X205634699Y-122746627D01*
X205634701Y-122743599D01*
X217164699Y-122743599D01*
X217428281Y-123381515D01*
X217915918Y-123870004D01*
X218553373Y-124134699D01*
X219243599Y-124135301D01*
X219881515Y-123871719D01*
X220370004Y-123384082D01*
X220634699Y-122746627D01*
X220635301Y-122056401D01*
X220371719Y-121418485D01*
X219884082Y-120929996D01*
X219246627Y-120665301D01*
X218556401Y-120664699D01*
X217918485Y-120928281D01*
X217429996Y-121415918D01*
X217165301Y-122053373D01*
X217164699Y-122743599D01*
X205634701Y-122743599D01*
X205635301Y-122056401D01*
X205371719Y-121418485D01*
X204884082Y-120929996D01*
X204246627Y-120665301D01*
X203556401Y-120664699D01*
X202918485Y-120928281D01*
X202429996Y-121415918D01*
X202165301Y-122053373D01*
X202164699Y-122743599D01*
X192869596Y-122743599D01*
X192934750Y-122586691D01*
X192935248Y-122015813D01*
X192717243Y-121488200D01*
X192313923Y-121084176D01*
X191786691Y-120865250D01*
X191215813Y-120864752D01*
X190688200Y-121082757D01*
X190284176Y-121486077D01*
X190065250Y-122013309D01*
X190064752Y-122584187D01*
X184510000Y-122584187D01*
X184510000Y-116113305D01*
X188914674Y-116113305D01*
X189201043Y-116806372D01*
X189730839Y-117337093D01*
X190423405Y-117624672D01*
X191173305Y-117625326D01*
X191866372Y-117338957D01*
X192397093Y-116809161D01*
X192684672Y-116116595D01*
X192685326Y-115366695D01*
X192398957Y-114673628D01*
X191869161Y-114142907D01*
X191176595Y-113855328D01*
X190426695Y-113854674D01*
X189733628Y-114141043D01*
X189202907Y-114670839D01*
X188915328Y-115363405D01*
X188914674Y-116113305D01*
X184510000Y-116113305D01*
X184510000Y-111073305D01*
X186414674Y-111073305D01*
X186701043Y-111766372D01*
X187230839Y-112297093D01*
X187923405Y-112584672D01*
X188673305Y-112585326D01*
X189366372Y-112298957D01*
X189632472Y-112033320D01*
X192146285Y-112033320D01*
X192275533Y-112326123D01*
X192975806Y-112594388D01*
X193725435Y-112574250D01*
X194324467Y-112326123D01*
X194453715Y-112033320D01*
X193300000Y-110879605D01*
X192146285Y-112033320D01*
X189632472Y-112033320D01*
X189897093Y-111769161D01*
X190184672Y-111076595D01*
X190185283Y-110375806D01*
X191405612Y-110375806D01*
X191425750Y-111125435D01*
X191673877Y-111724467D01*
X191966680Y-111853715D01*
X193120395Y-110700000D01*
X193479605Y-110700000D01*
X194633320Y-111853715D01*
X194926123Y-111724467D01*
X195194388Y-111024194D01*
X195174250Y-110274565D01*
X194926123Y-109675533D01*
X194633320Y-109546285D01*
X193479605Y-110700000D01*
X193120395Y-110700000D01*
X191966680Y-109546285D01*
X191673877Y-109675533D01*
X191405612Y-110375806D01*
X190185283Y-110375806D01*
X190185326Y-110326695D01*
X189898957Y-109633628D01*
X189632475Y-109366680D01*
X192146285Y-109366680D01*
X193300000Y-110520395D01*
X194453715Y-109366680D01*
X194324467Y-109073877D01*
X193624194Y-108805612D01*
X192874565Y-108825750D01*
X192275533Y-109073877D01*
X192146285Y-109366680D01*
X189632475Y-109366680D01*
X189369161Y-109102907D01*
X188676595Y-108815328D01*
X187926695Y-108814674D01*
X187233628Y-109101043D01*
X186702907Y-109630839D01*
X186415328Y-110323405D01*
X186414674Y-111073305D01*
X184510000Y-111073305D01*
X184510000Y-103813515D01*
X200206110Y-103813515D01*
X200530460Y-104598500D01*
X201130521Y-105199609D01*
X201914939Y-105525328D01*
X202764295Y-105526070D01*
X203549280Y-105201720D01*
X204150389Y-104601659D01*
X204476108Y-103817241D01*
X204476850Y-102967885D01*
X204152500Y-102182900D01*
X203552439Y-101581791D01*
X202768021Y-101256072D01*
X201918665Y-101255330D01*
X201133680Y-101579680D01*
X200532571Y-102179741D01*
X200206852Y-102964159D01*
X200206110Y-103813515D01*
X184510000Y-103813515D01*
X184510000Y-70350000D01*
X184452148Y-70059161D01*
X184452148Y-70059160D01*
X184287401Y-69812599D01*
X180137401Y-65662599D01*
X179890839Y-65497852D01*
X179600000Y-65440000D01*
X156611580Y-65440000D01*
X158251579Y-63800000D01*
X166976887Y-63800000D01*
X167086120Y-64349151D01*
X167397189Y-64814698D01*
X167862736Y-65125767D01*
X168411887Y-65235000D01*
X168468113Y-65235000D01*
X169017264Y-65125767D01*
X169482811Y-64814698D01*
X169793880Y-64349151D01*
X169903113Y-63800000D01*
X169793880Y-63250849D01*
X169482811Y-62785302D01*
X169017264Y-62474233D01*
X168468113Y-62365000D01*
X168411887Y-62365000D01*
X167862736Y-62474233D01*
X167397189Y-62785302D01*
X167086120Y-63250849D01*
X166976887Y-63800000D01*
X158251579Y-63800000D01*
X159966579Y-62085000D01*
X177333420Y-62085000D01*
X177715000Y-62466579D01*
X177715000Y-62655829D01*
X177384176Y-62986077D01*
X177165250Y-63513309D01*
X177164752Y-64084187D01*
X177382757Y-64611800D01*
X177786077Y-65015824D01*
X178313309Y-65234750D01*
X178884187Y-65235248D01*
X179411800Y-65017243D01*
X179815824Y-64613923D01*
X180034750Y-64086691D01*
X180035248Y-63515813D01*
X179817243Y-62988200D01*
X179485000Y-62655377D01*
X179485000Y-62100005D01*
X179485001Y-62100000D01*
X179417633Y-61761325D01*
X179376657Y-61700000D01*
X179225790Y-61474210D01*
X179225787Y-61474208D01*
X178325790Y-60574210D01*
X178282319Y-60545164D01*
X178038675Y-60382367D01*
X177982484Y-60371190D01*
X177700000Y-60314999D01*
X177699995Y-60315000D01*
X170437271Y-60315000D01*
X170814698Y-60062811D01*
X171125767Y-59597264D01*
X171235000Y-59048113D01*
X171235000Y-58991887D01*
X171125767Y-58442736D01*
X170814698Y-57977189D01*
X170349151Y-57666120D01*
X170318384Y-57660000D01*
X175485198Y-57660000D01*
X218140000Y-100314802D01*
X218140000Y-101282666D01*
X218064683Y-101296838D01*
X217848559Y-101435910D01*
X217703569Y-101648110D01*
X217652560Y-101900000D01*
X217652560Y-103100000D01*
X217696838Y-103335317D01*
X217783099Y-103469370D01*
X217665215Y-103753266D01*
X217664786Y-104244579D01*
X217852408Y-104698657D01*
X218199515Y-105046371D01*
X218653266Y-105234785D01*
X219144579Y-105235214D01*
X219598657Y-105047592D01*
X219946371Y-104700485D01*
X220134785Y-104246734D01*
X220135214Y-103755421D01*
X220016696Y-103468586D01*
X220096431Y-103351890D01*
X220147440Y-103100000D01*
X220147440Y-101900000D01*
X220103162Y-101664683D01*
X219964090Y-101448559D01*
X219751890Y-101303569D01*
X219660000Y-101284961D01*
X219660000Y-100000000D01*
X219602148Y-99709161D01*
X219437401Y-99462599D01*
X192787617Y-72812815D01*
X200206630Y-72812815D01*
X200530980Y-73597800D01*
X201131041Y-74198909D01*
X201915459Y-74524628D01*
X202764815Y-74525370D01*
X203549800Y-74201020D01*
X204150909Y-73600959D01*
X204476628Y-72816541D01*
X204477370Y-71967185D01*
X204153020Y-71182200D01*
X203552959Y-70581091D01*
X202768541Y-70255372D01*
X201919185Y-70254630D01*
X201134200Y-70578980D01*
X200533091Y-71179041D01*
X200207372Y-71963459D01*
X200206630Y-72812815D01*
X192787617Y-72812815D01*
X179950395Y-59975593D01*
X218074012Y-59975593D01*
X218215478Y-60278782D01*
X218951955Y-60563737D01*
X219741418Y-60545164D01*
X220384522Y-60278782D01*
X220525988Y-59975593D01*
X219300000Y-58749605D01*
X218074012Y-59975593D01*
X179950395Y-59975593D01*
X178196757Y-58221955D01*
X217306263Y-58221955D01*
X217324836Y-59011418D01*
X217591218Y-59654522D01*
X217894407Y-59795988D01*
X219120395Y-58570000D01*
X219479605Y-58570000D01*
X220705593Y-59795988D01*
X221008782Y-59654522D01*
X221293737Y-58918045D01*
X221275164Y-58128582D01*
X221008782Y-57485478D01*
X220705593Y-57344012D01*
X219479605Y-58570000D01*
X219120395Y-58570000D01*
X217894407Y-57344012D01*
X217591218Y-57485478D01*
X217306263Y-58221955D01*
X178196757Y-58221955D01*
X177139209Y-57164407D01*
X218074012Y-57164407D01*
X219300000Y-58390395D01*
X220525988Y-57164407D01*
X220384522Y-56861218D01*
X219648045Y-56576263D01*
X218858582Y-56594836D01*
X218215478Y-56861218D01*
X218074012Y-57164407D01*
X177139209Y-57164407D01*
X176337401Y-56362599D01*
X176090839Y-56197852D01*
X175800000Y-56140000D01*
X138900000Y-56140000D01*
X138609161Y-56197852D01*
X138362599Y-56362599D01*
X137103886Y-57621312D01*
X136780000Y-57556887D01*
X136230849Y-57666120D01*
X135765302Y-57977189D01*
X135454233Y-58442736D01*
X135345000Y-58991887D01*
X135345000Y-59048113D01*
X135454233Y-59597264D01*
X135765302Y-60062811D01*
X136230849Y-60373880D01*
X136780000Y-60483113D01*
X137107162Y-60418036D01*
X134585198Y-62940000D01*
X127100000Y-62940000D01*
X126809160Y-62997852D01*
X126562599Y-63162599D01*
X120862599Y-68862599D01*
X120697852Y-69109161D01*
X120640000Y-69400000D01*
X118060000Y-69400000D01*
X118060000Y-68714802D01*
X122437401Y-64337401D01*
X122602148Y-64090840D01*
X122643059Y-63885167D01*
X122964838Y-63885167D01*
X123106883Y-64228943D01*
X123369673Y-64492192D01*
X123713201Y-64634838D01*
X124085167Y-64635162D01*
X124428943Y-64493117D01*
X124692192Y-64230327D01*
X124834838Y-63886799D01*
X124834879Y-63839923D01*
X133814802Y-54860000D01*
X167100000Y-54860000D01*
X167390839Y-54802148D01*
X167637401Y-54637401D01*
X169427362Y-52847440D01*
X170600000Y-52847440D01*
X170835317Y-52803162D01*
X171051441Y-52664090D01*
X171196431Y-52451890D01*
X171247440Y-52200000D01*
X171247440Y-51684187D01*
X173064752Y-51684187D01*
X173282757Y-52211800D01*
X173686077Y-52615824D01*
X174213309Y-52834750D01*
X174784187Y-52835248D01*
X175311800Y-52617243D01*
X175715824Y-52213923D01*
X175934750Y-51686691D01*
X175935000Y-51400000D01*
X183196887Y-51400000D01*
X183306120Y-51949151D01*
X183617189Y-52414698D01*
X184082736Y-52725767D01*
X184631887Y-52835000D01*
X184688113Y-52835000D01*
X185237264Y-52725767D01*
X185702811Y-52414698D01*
X186013880Y-51949151D01*
X186088051Y-51576265D01*
X213204758Y-51576265D01*
X213416687Y-52089172D01*
X213808764Y-52481934D01*
X214020738Y-52569954D01*
X213810828Y-52656687D01*
X213418066Y-53048764D01*
X213205242Y-53561300D01*
X213204758Y-54116265D01*
X213416687Y-54629172D01*
X213808764Y-55021934D01*
X214321300Y-55234758D01*
X214876265Y-55235242D01*
X215389172Y-55023313D01*
X215600024Y-54812829D01*
X215808764Y-55021934D01*
X216321300Y-55234758D01*
X216876265Y-55235242D01*
X217389172Y-55023313D01*
X217781934Y-54631236D01*
X217994758Y-54118700D01*
X217995242Y-53563735D01*
X217783313Y-53050828D01*
X217391236Y-52658066D01*
X217195066Y-52576609D01*
X217329941Y-52520742D01*
X217399159Y-52278764D01*
X216600000Y-51479605D01*
X215800841Y-52278764D01*
X215870059Y-52520742D01*
X216014862Y-52572382D01*
X215810828Y-52656687D01*
X215599976Y-52867171D01*
X215391236Y-52658066D01*
X215179262Y-52570046D01*
X215389172Y-52483313D01*
X215781934Y-52091236D01*
X215890419Y-51829976D01*
X216420395Y-51300000D01*
X216779605Y-51300000D01*
X217578764Y-52099159D01*
X217820742Y-52029941D01*
X218007155Y-51507220D01*
X217979341Y-50952951D01*
X217820742Y-50570059D01*
X217578764Y-50500841D01*
X216779605Y-51300000D01*
X216420395Y-51300000D01*
X215890405Y-50770010D01*
X215783313Y-50510828D01*
X215594052Y-50321236D01*
X215800841Y-50321236D01*
X216600000Y-51120395D01*
X217399159Y-50321236D01*
X217329941Y-50079258D01*
X216807220Y-49892845D01*
X216252951Y-49920659D01*
X215870059Y-50079258D01*
X215800841Y-50321236D01*
X215594052Y-50321236D01*
X215391236Y-50118066D01*
X214878700Y-49905242D01*
X214323735Y-49904758D01*
X213810828Y-50116687D01*
X213418066Y-50508764D01*
X213205242Y-51021300D01*
X213204758Y-51576265D01*
X186088051Y-51576265D01*
X186123113Y-51400000D01*
X186013880Y-50850849D01*
X185702811Y-50385302D01*
X185237264Y-50074233D01*
X184688113Y-49965000D01*
X184631887Y-49965000D01*
X184082736Y-50074233D01*
X183617189Y-50385302D01*
X183306120Y-50850849D01*
X183196887Y-51400000D01*
X175935000Y-51400000D01*
X175935248Y-51115813D01*
X175717243Y-50588200D01*
X175313923Y-50184176D01*
X174786691Y-49965250D01*
X174215813Y-49964752D01*
X173688200Y-50182757D01*
X173284176Y-50586077D01*
X173065250Y-51113309D01*
X173064752Y-51684187D01*
X171247440Y-51684187D01*
X171247440Y-50600000D01*
X171203162Y-50364683D01*
X171064090Y-50148559D01*
X170851890Y-50003569D01*
X170600000Y-49952560D01*
X169000000Y-49952560D01*
X168764683Y-49996838D01*
X168548559Y-50135910D01*
X168403569Y-50348110D01*
X168372185Y-50503089D01*
X168274698Y-50357189D01*
X167809151Y-50046120D01*
X167260000Y-49936887D01*
X166710849Y-50046120D01*
X166245302Y-50357189D01*
X165990000Y-50739275D01*
X165734698Y-50357189D01*
X165269151Y-50046120D01*
X164720000Y-49936887D01*
X164170849Y-50046120D01*
X163705302Y-50357189D01*
X163450000Y-50739275D01*
X163194698Y-50357189D01*
X162729151Y-50046120D01*
X162180000Y-49936887D01*
X161630849Y-50046120D01*
X161165302Y-50357189D01*
X160910000Y-50739275D01*
X160654698Y-50357189D01*
X160189151Y-50046120D01*
X159640000Y-49936887D01*
X159090849Y-50046120D01*
X158625302Y-50357189D01*
X158370000Y-50739275D01*
X158114698Y-50357189D01*
X157649151Y-50046120D01*
X157100000Y-49936887D01*
X156550849Y-50046120D01*
X156085302Y-50357189D01*
X155830000Y-50739275D01*
X155574698Y-50357189D01*
X155109151Y-50046120D01*
X154560000Y-49936887D01*
X154010849Y-50046120D01*
X153545302Y-50357189D01*
X153275014Y-50761703D01*
X153172389Y-50544866D01*
X152757423Y-50168959D01*
X152369039Y-50008096D01*
X152147000Y-50130085D01*
X152147000Y-51273000D01*
X152167000Y-51273000D01*
X152167000Y-51527000D01*
X152147000Y-51527000D01*
X152147000Y-52669915D01*
X152369039Y-52791904D01*
X152757423Y-52631041D01*
X153172389Y-52255134D01*
X153275014Y-52038297D01*
X153545302Y-52442811D01*
X154010849Y-52753880D01*
X154560000Y-52863113D01*
X155109151Y-52753880D01*
X155574698Y-52442811D01*
X155830000Y-52060725D01*
X156085302Y-52442811D01*
X156550849Y-52753880D01*
X157100000Y-52863113D01*
X157649151Y-52753880D01*
X158114698Y-52442811D01*
X158370000Y-52060725D01*
X158625302Y-52442811D01*
X159090849Y-52753880D01*
X159640000Y-52863113D01*
X160189151Y-52753880D01*
X160654698Y-52442811D01*
X160910000Y-52060725D01*
X161165302Y-52442811D01*
X161630849Y-52753880D01*
X162180000Y-52863113D01*
X162729151Y-52753880D01*
X163194698Y-52442811D01*
X163450000Y-52060725D01*
X163705302Y-52442811D01*
X164170849Y-52753880D01*
X164720000Y-52863113D01*
X165269151Y-52753880D01*
X165734698Y-52442811D01*
X165990000Y-52060725D01*
X166245302Y-52442811D01*
X166710849Y-52753880D01*
X167260000Y-52863113D01*
X167262603Y-52862595D01*
X166785198Y-53340000D01*
X133500000Y-53340000D01*
X133209160Y-53397852D01*
X132962599Y-53562599D01*
X123760320Y-62764878D01*
X123714833Y-62764838D01*
X123371057Y-62906883D01*
X123107808Y-63169673D01*
X122965162Y-63513201D01*
X122964838Y-63885167D01*
X122643059Y-63885167D01*
X122660000Y-63800000D01*
X122660000Y-55714802D01*
X126214802Y-52160000D01*
X135576333Y-52160000D01*
X135765302Y-52442811D01*
X136230849Y-52753880D01*
X136780000Y-52863113D01*
X137329151Y-52753880D01*
X137794698Y-52442811D01*
X138050000Y-52060725D01*
X138305302Y-52442811D01*
X138770849Y-52753880D01*
X139320000Y-52863113D01*
X139869151Y-52753880D01*
X140334698Y-52442811D01*
X140590000Y-52060725D01*
X140845302Y-52442811D01*
X141310849Y-52753880D01*
X141860000Y-52863113D01*
X142409151Y-52753880D01*
X142874698Y-52442811D01*
X143130000Y-52060725D01*
X143385302Y-52442811D01*
X143850849Y-52753880D01*
X144400000Y-52863113D01*
X144949151Y-52753880D01*
X145414698Y-52442811D01*
X145670000Y-52060725D01*
X145925302Y-52442811D01*
X146390849Y-52753880D01*
X146940000Y-52863113D01*
X147489151Y-52753880D01*
X147954698Y-52442811D01*
X148210000Y-52060725D01*
X148465302Y-52442811D01*
X148930849Y-52753880D01*
X149480000Y-52863113D01*
X150029151Y-52753880D01*
X150494698Y-52442811D01*
X150764986Y-52038297D01*
X150867611Y-52255134D01*
X151282577Y-52631041D01*
X151670961Y-52791904D01*
X151893000Y-52669915D01*
X151893000Y-51527000D01*
X151873000Y-51527000D01*
X151873000Y-51273000D01*
X151893000Y-51273000D01*
X151893000Y-50130085D01*
X151670961Y-50008096D01*
X151282577Y-50168959D01*
X150867611Y-50544866D01*
X150764986Y-50761703D01*
X150494698Y-50357189D01*
X150029151Y-50046120D01*
X149480000Y-49936887D01*
X148930849Y-50046120D01*
X148465302Y-50357189D01*
X148210000Y-50739275D01*
X147954698Y-50357189D01*
X147489151Y-50046120D01*
X146940000Y-49936887D01*
X146390849Y-50046120D01*
X145925302Y-50357189D01*
X145670000Y-50739275D01*
X145414698Y-50357189D01*
X144949151Y-50046120D01*
X144400000Y-49936887D01*
X143850849Y-50046120D01*
X143385302Y-50357189D01*
X143130000Y-50739275D01*
X142874698Y-50357189D01*
X142409151Y-50046120D01*
X141860000Y-49936887D01*
X141310849Y-50046120D01*
X140845302Y-50357189D01*
X140590000Y-50739275D01*
X140334698Y-50357189D01*
X139869151Y-50046120D01*
X139320000Y-49936887D01*
X138770849Y-50046120D01*
X138305302Y-50357189D01*
X138050000Y-50739275D01*
X137794698Y-50357189D01*
X137329151Y-50046120D01*
X136780000Y-49936887D01*
X136230849Y-50046120D01*
X135765302Y-50357189D01*
X135576333Y-50640000D01*
X125900000Y-50640000D01*
X125609160Y-50697852D01*
X125362599Y-50862599D01*
X121362599Y-54862599D01*
X121197852Y-55109161D01*
X121140000Y-55400000D01*
X121140000Y-63485198D01*
X116762599Y-67862599D01*
X116597852Y-68109161D01*
X116540000Y-68400000D01*
X116540000Y-98761354D01*
X116488200Y-98782757D01*
X116084176Y-99186077D01*
X115865250Y-99713309D01*
X115864752Y-100284187D01*
X108496275Y-100284187D01*
X108409915Y-100127000D01*
X107267000Y-100127000D01*
X107013000Y-100127000D01*
X105870085Y-100127000D01*
X105748096Y-100349039D01*
X100710000Y-100349039D01*
X100710000Y-99650961D01*
X105748096Y-99650961D01*
X105870085Y-99873000D01*
X107013000Y-99873000D01*
X107013000Y-98729371D01*
X107267000Y-98729371D01*
X107267000Y-99873000D01*
X108409915Y-99873000D01*
X108531904Y-99650961D01*
X108371041Y-99262577D01*
X107995134Y-98847611D01*
X107489041Y-98608086D01*
X107267000Y-98729371D01*
X107013000Y-98729371D01*
X106790959Y-98608086D01*
X106284866Y-98847611D01*
X105908959Y-99262577D01*
X105748096Y-99650961D01*
X100710000Y-99650961D01*
X100710000Y-94873970D01*
X109195635Y-94873970D01*
X109355418Y-95192739D01*
X110146187Y-95502723D01*
X110995387Y-95486497D01*
X111704582Y-95192739D01*
X111864365Y-94873970D01*
X110530000Y-93539605D01*
X109195635Y-94873970D01*
X100710000Y-94873970D01*
X100710000Y-92976187D01*
X108387277Y-92976187D01*
X108403503Y-93825387D01*
X108697261Y-94534582D01*
X109016030Y-94694365D01*
X110350395Y-93360000D01*
X110709605Y-93360000D01*
X112043970Y-94694365D01*
X112362739Y-94534582D01*
X112672723Y-93743813D01*
X112656497Y-92894613D01*
X112362739Y-92185418D01*
X112043970Y-92025635D01*
X110709605Y-93360000D01*
X110350395Y-93360000D01*
X109016030Y-92025635D01*
X108697261Y-92185418D01*
X108387277Y-92976187D01*
X100710000Y-92976187D01*
X100710000Y-91846030D01*
X109195635Y-91846030D01*
X110530000Y-93180395D01*
X111864365Y-91846030D01*
X111704582Y-91527261D01*
X110913813Y-91217277D01*
X110064613Y-91233503D01*
X109355418Y-91527261D01*
X109195635Y-91846030D01*
X100710000Y-91846030D01*
X100710000Y-83474285D01*
X111814760Y-83474285D01*
X112025169Y-83983515D01*
X112414436Y-84373461D01*
X112646870Y-84469976D01*
X112416485Y-84565169D01*
X112026539Y-84954436D01*
X111815241Y-85463298D01*
X111814760Y-86014285D01*
X112025169Y-86523515D01*
X112256313Y-86755062D01*
X112026539Y-86984436D01*
X111815241Y-87493298D01*
X111814760Y-88044285D01*
X112025169Y-88553515D01*
X112414436Y-88943461D01*
X112646870Y-89039976D01*
X112416485Y-89135169D01*
X112026539Y-89524436D01*
X111815241Y-90033298D01*
X111814760Y-90584285D01*
X112025169Y-91093515D01*
X112414436Y-91483461D01*
X112923298Y-91694759D01*
X113474285Y-91695240D01*
X113983515Y-91484831D01*
X114373461Y-91095564D01*
X114584759Y-90586702D01*
X114585240Y-90035715D01*
X114374831Y-89526485D01*
X113985564Y-89136539D01*
X113753130Y-89040024D01*
X113983515Y-88944831D01*
X114373461Y-88555564D01*
X114584759Y-88046702D01*
X114585240Y-87495715D01*
X114374831Y-86986485D01*
X114143687Y-86754938D01*
X114373461Y-86525564D01*
X114584759Y-86016702D01*
X114585240Y-85465715D01*
X114374831Y-84956485D01*
X113985564Y-84566539D01*
X113753130Y-84470024D01*
X113983515Y-84374831D01*
X114373461Y-83985564D01*
X114584759Y-83476702D01*
X114585240Y-82925715D01*
X114374831Y-82416485D01*
X113985564Y-82026539D01*
X113476702Y-81815241D01*
X112925715Y-81814760D01*
X112416485Y-82025169D01*
X112026539Y-82414436D01*
X111815241Y-82923298D01*
X111814760Y-83474285D01*
X100710000Y-83474285D01*
X100710000Y-81153970D01*
X109195635Y-81153970D01*
X109355418Y-81472739D01*
X110146187Y-81782723D01*
X110995387Y-81766497D01*
X111704582Y-81472739D01*
X111864365Y-81153970D01*
X110530000Y-79819605D01*
X109195635Y-81153970D01*
X100710000Y-81153970D01*
X100710000Y-79256187D01*
X108387277Y-79256187D01*
X108403503Y-80105387D01*
X108697261Y-80814582D01*
X109016030Y-80974365D01*
X110350395Y-79640000D01*
X110709605Y-79640000D01*
X112043970Y-80974365D01*
X112362739Y-80814582D01*
X112672723Y-80023813D01*
X112656497Y-79174613D01*
X112362739Y-78465418D01*
X112043970Y-78305635D01*
X110709605Y-79640000D01*
X110350395Y-79640000D01*
X109016030Y-78305635D01*
X108697261Y-78465418D01*
X108387277Y-79256187D01*
X100710000Y-79256187D01*
X100710000Y-78126030D01*
X109195635Y-78126030D01*
X110530000Y-79460395D01*
X111864365Y-78126030D01*
X111704582Y-77807261D01*
X110913813Y-77497277D01*
X110064613Y-77513503D01*
X109355418Y-77807261D01*
X109195635Y-78126030D01*
X100710000Y-78126030D01*
X100710000Y-69219027D01*
X106805032Y-69219027D01*
X107053179Y-69748490D01*
X107485053Y-70142688D01*
X107900974Y-70314958D01*
X108133000Y-70193817D01*
X108133000Y-68987000D01*
X106925531Y-68987000D01*
X106805032Y-69219027D01*
X100710000Y-69219027D01*
X100710000Y-66679027D01*
X106805032Y-66679027D01*
X107053179Y-67208490D01*
X107471152Y-67590000D01*
X107053179Y-67971510D01*
X106805032Y-68500973D01*
X106925531Y-68733000D01*
X108133000Y-68733000D01*
X108133000Y-66447000D01*
X106925531Y-66447000D01*
X106805032Y-66679027D01*
X100710000Y-66679027D01*
X100710000Y-64139027D01*
X106805032Y-64139027D01*
X107053179Y-64668490D01*
X107471152Y-65050000D01*
X107053179Y-65431510D01*
X106805032Y-65960973D01*
X106925531Y-66193000D01*
X108133000Y-66193000D01*
X108133000Y-63907000D01*
X106925531Y-63907000D01*
X106805032Y-64139027D01*
X100710000Y-64139027D01*
X100710000Y-61599027D01*
X106805032Y-61599027D01*
X107053179Y-62128490D01*
X107471152Y-62510000D01*
X107053179Y-62891510D01*
X106805032Y-63420973D01*
X106925531Y-63653000D01*
X108133000Y-63653000D01*
X108133000Y-61367000D01*
X106925531Y-61367000D01*
X106805032Y-61599027D01*
X100710000Y-61599027D01*
X100710000Y-58670641D01*
X106761400Y-58670641D01*
X106761400Y-58729359D01*
X106875474Y-59302848D01*
X107200330Y-59789029D01*
X107471161Y-59969992D01*
X107053179Y-60351510D01*
X106805032Y-60880973D01*
X106925531Y-61113000D01*
X108133000Y-61113000D01*
X108133000Y-61093000D01*
X108387000Y-61093000D01*
X108387000Y-61113000D01*
X108407000Y-61113000D01*
X108407000Y-61367000D01*
X108387000Y-61367000D01*
X108387000Y-63653000D01*
X108407000Y-63653000D01*
X108407000Y-63907000D01*
X108387000Y-63907000D01*
X108387000Y-66193000D01*
X108407000Y-66193000D01*
X108407000Y-66447000D01*
X108387000Y-66447000D01*
X108387000Y-68733000D01*
X108407000Y-68733000D01*
X108407000Y-68987000D01*
X108387000Y-68987000D01*
X108387000Y-70193817D01*
X108619026Y-70314958D01*
X109034947Y-70142688D01*
X109466821Y-69748490D01*
X109524336Y-69625772D01*
X109740330Y-69949029D01*
X110226511Y-70273885D01*
X110800000Y-70387959D01*
X111373489Y-70273885D01*
X111859670Y-69949029D01*
X112184526Y-69462848D01*
X112298600Y-68889359D01*
X112298600Y-68830641D01*
X112184526Y-68257152D01*
X111859670Y-67770971D01*
X111588828Y-67590000D01*
X111859670Y-67409029D01*
X112184526Y-66922848D01*
X112298600Y-66349359D01*
X112298600Y-66290641D01*
X112184526Y-65717152D01*
X111859670Y-65230971D01*
X111588828Y-65050000D01*
X111859670Y-64869029D01*
X112184526Y-64382848D01*
X112298600Y-63809359D01*
X112298600Y-63750641D01*
X112184526Y-63177152D01*
X111859670Y-62690971D01*
X111588828Y-62510000D01*
X111859670Y-62329029D01*
X112184526Y-61842848D01*
X112298600Y-61269359D01*
X112298600Y-61210641D01*
X112184526Y-60637152D01*
X111873426Y-60171558D01*
X111898917Y-60166762D01*
X112115041Y-60027690D01*
X112260031Y-59815490D01*
X112311040Y-59563600D01*
X112311040Y-57836400D01*
X112266762Y-57601083D01*
X112127690Y-57384959D01*
X111915490Y-57239969D01*
X111663600Y-57188960D01*
X109936400Y-57188960D01*
X109701083Y-57233238D01*
X109484959Y-57372310D01*
X109339969Y-57584510D01*
X109331136Y-57628131D01*
X109319670Y-57610971D01*
X108833489Y-57286115D01*
X108260000Y-57172041D01*
X107686511Y-57286115D01*
X107200330Y-57610971D01*
X106875474Y-58097152D01*
X106761400Y-58670641D01*
X100710000Y-58670641D01*
X100710000Y-49031887D01*
X114465000Y-49031887D01*
X114465000Y-49088113D01*
X114574233Y-49637264D01*
X114885302Y-50102811D01*
X115350849Y-50413880D01*
X115900000Y-50523113D01*
X116449151Y-50413880D01*
X116914698Y-50102811D01*
X117225767Y-49637264D01*
X117271421Y-49407745D01*
X151271861Y-49407745D01*
X151345995Y-49653864D01*
X151883223Y-49846965D01*
X152453454Y-49819778D01*
X152854005Y-49653864D01*
X152928139Y-49407745D01*
X152100000Y-48579605D01*
X151271861Y-49407745D01*
X117271421Y-49407745D01*
X117335000Y-49088113D01*
X117335000Y-49031887D01*
X117225767Y-48482736D01*
X117025639Y-48183223D01*
X150653035Y-48183223D01*
X150680222Y-48753454D01*
X150846136Y-49154005D01*
X151092255Y-49228139D01*
X151920395Y-48400000D01*
X152279605Y-48400000D01*
X153107745Y-49228139D01*
X153353864Y-49154005D01*
X153356196Y-49147517D01*
X153382757Y-49211800D01*
X153786077Y-49615824D01*
X154313309Y-49834750D01*
X154884187Y-49835248D01*
X155411800Y-49617243D01*
X155815824Y-49213923D01*
X156034750Y-48686691D01*
X156035248Y-48115813D01*
X155977311Y-47975593D01*
X218074012Y-47975593D01*
X218215478Y-48278782D01*
X218951955Y-48563737D01*
X219741418Y-48545164D01*
X220384522Y-48278782D01*
X220525988Y-47975593D01*
X219300000Y-46749605D01*
X218074012Y-47975593D01*
X155977311Y-47975593D01*
X155817243Y-47588200D01*
X155413923Y-47184176D01*
X154886691Y-46965250D01*
X154315813Y-46964752D01*
X153788200Y-47182757D01*
X153384176Y-47586077D01*
X153356577Y-47652544D01*
X153353864Y-47645995D01*
X153107745Y-47571861D01*
X152279605Y-48400000D01*
X151920395Y-48400000D01*
X151092255Y-47571861D01*
X150846136Y-47645995D01*
X150653035Y-48183223D01*
X117025639Y-48183223D01*
X116914698Y-48017189D01*
X116449151Y-47706120D01*
X115900000Y-47596887D01*
X115350849Y-47706120D01*
X114885302Y-48017189D01*
X114574233Y-48482736D01*
X114465000Y-49031887D01*
X100710000Y-49031887D01*
X100710000Y-47392255D01*
X151271861Y-47392255D01*
X152100000Y-48220395D01*
X152928139Y-47392255D01*
X152854005Y-47146136D01*
X152316777Y-46953035D01*
X151746546Y-46980222D01*
X151345995Y-47146136D01*
X151271861Y-47392255D01*
X100710000Y-47392255D01*
X100710000Y-46221955D01*
X217306263Y-46221955D01*
X217324836Y-47011418D01*
X217591218Y-47654522D01*
X217894407Y-47795988D01*
X219120395Y-46570000D01*
X219479605Y-46570000D01*
X220705593Y-47795988D01*
X221008782Y-47654522D01*
X221293737Y-46918045D01*
X221275164Y-46128582D01*
X221008782Y-45485478D01*
X220705593Y-45344012D01*
X219479605Y-46570000D01*
X219120395Y-46570000D01*
X217894407Y-45344012D01*
X217591218Y-45485478D01*
X217306263Y-46221955D01*
X100710000Y-46221955D01*
X100710000Y-43931887D01*
X132065000Y-43931887D01*
X132065000Y-43988113D01*
X132174233Y-44537264D01*
X132485302Y-45002811D01*
X132950849Y-45313880D01*
X133500000Y-45423113D01*
X134049151Y-45313880D01*
X134514698Y-45002811D01*
X134825767Y-44537264D01*
X134935000Y-43988113D01*
X134935000Y-43931887D01*
X152165000Y-43931887D01*
X152165000Y-43988113D01*
X152274233Y-44537264D01*
X152585302Y-45002811D01*
X153050849Y-45313880D01*
X153600000Y-45423113D01*
X154149151Y-45313880D01*
X154614698Y-45002811D01*
X154925767Y-44537264D01*
X155035000Y-43988113D01*
X155035000Y-43931887D01*
X172365000Y-43931887D01*
X172365000Y-43988113D01*
X172474233Y-44537264D01*
X172785302Y-45002811D01*
X173250849Y-45313880D01*
X173800000Y-45423113D01*
X174349151Y-45313880D01*
X174814698Y-45002811D01*
X175125767Y-44537264D01*
X175235000Y-43988113D01*
X175235000Y-43931887D01*
X192265000Y-43931887D01*
X192265000Y-43988113D01*
X192374233Y-44537264D01*
X192685302Y-45002811D01*
X193150849Y-45313880D01*
X193700000Y-45423113D01*
X194249151Y-45313880D01*
X194472852Y-45164407D01*
X218074012Y-45164407D01*
X219300000Y-46390395D01*
X220525988Y-45164407D01*
X220384522Y-44861218D01*
X219648045Y-44576263D01*
X218858582Y-44594836D01*
X218215478Y-44861218D01*
X218074012Y-45164407D01*
X194472852Y-45164407D01*
X194714698Y-45002811D01*
X195025767Y-44537264D01*
X195135000Y-43988113D01*
X195135000Y-43931887D01*
X195025767Y-43382736D01*
X194714698Y-42917189D01*
X194249151Y-42606120D01*
X193700000Y-42496887D01*
X193150849Y-42606120D01*
X192685302Y-42917189D01*
X192374233Y-43382736D01*
X192265000Y-43931887D01*
X175235000Y-43931887D01*
X175125767Y-43382736D01*
X174814698Y-42917189D01*
X174349151Y-42606120D01*
X173800000Y-42496887D01*
X173250849Y-42606120D01*
X172785302Y-42917189D01*
X172474233Y-43382736D01*
X172365000Y-43931887D01*
X155035000Y-43931887D01*
X154925767Y-43382736D01*
X154614698Y-42917189D01*
X154149151Y-42606120D01*
X153600000Y-42496887D01*
X153050849Y-42606120D01*
X152585302Y-42917189D01*
X152274233Y-43382736D01*
X152165000Y-43931887D01*
X134935000Y-43931887D01*
X134825767Y-43382736D01*
X134514698Y-42917189D01*
X134049151Y-42606120D01*
X133500000Y-42496887D01*
X132950849Y-42606120D01*
X132485302Y-42917189D01*
X132174233Y-43382736D01*
X132065000Y-43931887D01*
X100710000Y-43931887D01*
X100710000Y-39184187D01*
X114464752Y-39184187D01*
X114682757Y-39711800D01*
X115086077Y-40115824D01*
X115613309Y-40334750D01*
X116184187Y-40335248D01*
X116711800Y-40117243D01*
X117115824Y-39713923D01*
X117284483Y-39307745D01*
X122641861Y-39307745D01*
X122715995Y-39553864D01*
X123253223Y-39746965D01*
X123265751Y-39746368D01*
X123055250Y-40253309D01*
X123054752Y-40824187D01*
X123272757Y-41351800D01*
X123676077Y-41755824D01*
X124203309Y-41974750D01*
X124774187Y-41975248D01*
X125301800Y-41757243D01*
X125510009Y-41549397D01*
X125716077Y-41755824D01*
X126243309Y-41974750D01*
X126814187Y-41975248D01*
X127341800Y-41757243D01*
X127745824Y-41353923D01*
X127964750Y-40826691D01*
X127965248Y-40255813D01*
X127747243Y-39728200D01*
X127343923Y-39324176D01*
X127304353Y-39307745D01*
X142641861Y-39307745D01*
X142715995Y-39553864D01*
X143253223Y-39746965D01*
X143265751Y-39746368D01*
X143055250Y-40253309D01*
X143054752Y-40824187D01*
X143272757Y-41351800D01*
X143676077Y-41755824D01*
X144203309Y-41974750D01*
X144774187Y-41975248D01*
X145301800Y-41757243D01*
X145510009Y-41549397D01*
X145716077Y-41755824D01*
X146243309Y-41974750D01*
X146814187Y-41975248D01*
X147341800Y-41757243D01*
X147745824Y-41353923D01*
X147964750Y-40826691D01*
X147965248Y-40255813D01*
X147747243Y-39728200D01*
X147343923Y-39324176D01*
X147304353Y-39307745D01*
X162641861Y-39307745D01*
X162715995Y-39553864D01*
X163253223Y-39746965D01*
X163265751Y-39746368D01*
X163055250Y-40253309D01*
X163054752Y-40824187D01*
X163272757Y-41351800D01*
X163676077Y-41755824D01*
X164203309Y-41974750D01*
X164774187Y-41975248D01*
X165301800Y-41757243D01*
X165510009Y-41549397D01*
X165716077Y-41755824D01*
X166243309Y-41974750D01*
X166814187Y-41975248D01*
X167341800Y-41757243D01*
X167745824Y-41353923D01*
X167964750Y-40826691D01*
X167965248Y-40255813D01*
X167747243Y-39728200D01*
X167343923Y-39324176D01*
X167304353Y-39307745D01*
X182641861Y-39307745D01*
X182715995Y-39553864D01*
X183253223Y-39746965D01*
X183265751Y-39746368D01*
X183055250Y-40253309D01*
X183054752Y-40824187D01*
X183272757Y-41351800D01*
X183676077Y-41755824D01*
X184203309Y-41974750D01*
X184774187Y-41975248D01*
X185301800Y-41757243D01*
X185510009Y-41549397D01*
X185716077Y-41755824D01*
X186243309Y-41974750D01*
X186814187Y-41975248D01*
X187341800Y-41757243D01*
X187745824Y-41353923D01*
X187964750Y-40826691D01*
X187965248Y-40255813D01*
X187747243Y-39728200D01*
X187343923Y-39324176D01*
X187304353Y-39307745D01*
X202641861Y-39307745D01*
X202715995Y-39553864D01*
X203253223Y-39746965D01*
X203265751Y-39746368D01*
X203055250Y-40253309D01*
X203054752Y-40824187D01*
X203272757Y-41351800D01*
X203676077Y-41755824D01*
X204203309Y-41974750D01*
X204774187Y-41975248D01*
X205301800Y-41757243D01*
X205510009Y-41549397D01*
X205716077Y-41755824D01*
X206243309Y-41974750D01*
X206814187Y-41975248D01*
X207341800Y-41757243D01*
X207745824Y-41353923D01*
X207964750Y-40826691D01*
X207965248Y-40255813D01*
X207747243Y-39728200D01*
X207343923Y-39324176D01*
X206816691Y-39105250D01*
X206594379Y-39105056D01*
X206763864Y-39054005D01*
X206956965Y-38516777D01*
X206929778Y-37946546D01*
X206763864Y-37545995D01*
X206517745Y-37471861D01*
X205689605Y-38300000D01*
X205703748Y-38314142D01*
X205524142Y-38493748D01*
X205510000Y-38479605D01*
X205495858Y-38493748D01*
X205316252Y-38314142D01*
X205330395Y-38300000D01*
X204828145Y-37797750D01*
X204723864Y-37545995D01*
X204512820Y-37482426D01*
X204502255Y-37471861D01*
X204490000Y-37475552D01*
X204477745Y-37471861D01*
X204467180Y-37482426D01*
X204256136Y-37545995D01*
X204173383Y-37776223D01*
X203649605Y-38300000D01*
X203663748Y-38314143D01*
X203484142Y-38493748D01*
X203470000Y-38479605D01*
X202641861Y-39307745D01*
X187304353Y-39307745D01*
X186816691Y-39105250D01*
X186594379Y-39105056D01*
X186763864Y-39054005D01*
X186956965Y-38516777D01*
X186936295Y-38083223D01*
X202023035Y-38083223D01*
X202050222Y-38653454D01*
X202216136Y-39054005D01*
X202462255Y-39128139D01*
X203290395Y-38300000D01*
X202462255Y-37471861D01*
X202216136Y-37545995D01*
X202023035Y-38083223D01*
X186936295Y-38083223D01*
X186929778Y-37946546D01*
X186763864Y-37545995D01*
X186517745Y-37471861D01*
X185689605Y-38300000D01*
X185703748Y-38314142D01*
X185524142Y-38493748D01*
X185510000Y-38479605D01*
X185495858Y-38493748D01*
X185316252Y-38314142D01*
X185330395Y-38300000D01*
X184828145Y-37797750D01*
X184723864Y-37545995D01*
X184512820Y-37482426D01*
X184502255Y-37471861D01*
X184490000Y-37475552D01*
X184477745Y-37471861D01*
X184467180Y-37482426D01*
X184256136Y-37545995D01*
X184173383Y-37776223D01*
X183649605Y-38300000D01*
X183663748Y-38314143D01*
X183484142Y-38493748D01*
X183470000Y-38479605D01*
X182641861Y-39307745D01*
X167304353Y-39307745D01*
X166816691Y-39105250D01*
X166594379Y-39105056D01*
X166763864Y-39054005D01*
X166956965Y-38516777D01*
X166936295Y-38083223D01*
X182023035Y-38083223D01*
X182050222Y-38653454D01*
X182216136Y-39054005D01*
X182462255Y-39128139D01*
X183290395Y-38300000D01*
X182462255Y-37471861D01*
X182216136Y-37545995D01*
X182023035Y-38083223D01*
X166936295Y-38083223D01*
X166929778Y-37946546D01*
X166763864Y-37545995D01*
X166517745Y-37471861D01*
X165689605Y-38300000D01*
X165703748Y-38314142D01*
X165524142Y-38493748D01*
X165510000Y-38479605D01*
X165495858Y-38493748D01*
X165316252Y-38314142D01*
X165330395Y-38300000D01*
X164828145Y-37797750D01*
X164723864Y-37545995D01*
X164512820Y-37482426D01*
X164502255Y-37471861D01*
X164490000Y-37475552D01*
X164477745Y-37471861D01*
X164467180Y-37482426D01*
X164256136Y-37545995D01*
X164173383Y-37776223D01*
X163649605Y-38300000D01*
X163663748Y-38314143D01*
X163484142Y-38493748D01*
X163470000Y-38479605D01*
X162641861Y-39307745D01*
X147304353Y-39307745D01*
X146816691Y-39105250D01*
X146594379Y-39105056D01*
X146763864Y-39054005D01*
X146956965Y-38516777D01*
X146936295Y-38083223D01*
X162023035Y-38083223D01*
X162050222Y-38653454D01*
X162216136Y-39054005D01*
X162462255Y-39128139D01*
X163290395Y-38300000D01*
X162462255Y-37471861D01*
X162216136Y-37545995D01*
X162023035Y-38083223D01*
X146936295Y-38083223D01*
X146929778Y-37946546D01*
X146763864Y-37545995D01*
X146517745Y-37471861D01*
X145689605Y-38300000D01*
X145703748Y-38314142D01*
X145524142Y-38493748D01*
X145510000Y-38479605D01*
X145495858Y-38493748D01*
X145316252Y-38314142D01*
X145330395Y-38300000D01*
X144828145Y-37797750D01*
X144723864Y-37545995D01*
X144512820Y-37482426D01*
X144502255Y-37471861D01*
X144490000Y-37475552D01*
X144477745Y-37471861D01*
X144467180Y-37482426D01*
X144256136Y-37545995D01*
X144173383Y-37776223D01*
X143649605Y-38300000D01*
X143663748Y-38314143D01*
X143484142Y-38493748D01*
X143470000Y-38479605D01*
X142641861Y-39307745D01*
X127304353Y-39307745D01*
X126816691Y-39105250D01*
X126594379Y-39105056D01*
X126763864Y-39054005D01*
X126956965Y-38516777D01*
X126936295Y-38083223D01*
X142023035Y-38083223D01*
X142050222Y-38653454D01*
X142216136Y-39054005D01*
X142462255Y-39128139D01*
X143290395Y-38300000D01*
X142462255Y-37471861D01*
X142216136Y-37545995D01*
X142023035Y-38083223D01*
X126936295Y-38083223D01*
X126929778Y-37946546D01*
X126763864Y-37545995D01*
X126517745Y-37471861D01*
X125689605Y-38300000D01*
X125703748Y-38314142D01*
X125524142Y-38493748D01*
X125510000Y-38479605D01*
X125495858Y-38493748D01*
X125316252Y-38314142D01*
X125330395Y-38300000D01*
X124828145Y-37797750D01*
X124723864Y-37545995D01*
X124512820Y-37482426D01*
X124502255Y-37471861D01*
X124490000Y-37475552D01*
X124477745Y-37471861D01*
X124467180Y-37482426D01*
X124256136Y-37545995D01*
X124173383Y-37776223D01*
X123649605Y-38300000D01*
X123663748Y-38314143D01*
X123484142Y-38493748D01*
X123470000Y-38479605D01*
X122641861Y-39307745D01*
X117284483Y-39307745D01*
X117334750Y-39186691D01*
X117335248Y-38615813D01*
X117117243Y-38088200D01*
X117112275Y-38083223D01*
X122023035Y-38083223D01*
X122050222Y-38653454D01*
X122216136Y-39054005D01*
X122462255Y-39128139D01*
X123290395Y-38300000D01*
X122462255Y-37471861D01*
X122216136Y-37545995D01*
X122023035Y-38083223D01*
X117112275Y-38083223D01*
X116713923Y-37684176D01*
X116186691Y-37465250D01*
X115615813Y-37464752D01*
X115088200Y-37682757D01*
X114684176Y-38086077D01*
X114465250Y-38613309D01*
X114464752Y-39184187D01*
X100710000Y-39184187D01*
X100710000Y-35620854D01*
X101864457Y-35620854D01*
X102340727Y-36773515D01*
X103221847Y-37656174D01*
X104373674Y-38134454D01*
X105620854Y-38135543D01*
X106773515Y-37659273D01*
X107656174Y-36778153D01*
X107830037Y-36359442D01*
X118184686Y-36359442D01*
X118460421Y-37026772D01*
X118970543Y-37537785D01*
X119637390Y-37814684D01*
X120359442Y-37815314D01*
X121026772Y-37539579D01*
X121274527Y-37292255D01*
X122641861Y-37292255D01*
X123470000Y-38120395D01*
X124298139Y-37292255D01*
X124681861Y-37292255D01*
X125510000Y-38120395D01*
X126338139Y-37292255D01*
X126264005Y-37046136D01*
X125726777Y-36853035D01*
X125156546Y-36880222D01*
X124755995Y-37046136D01*
X124681861Y-37292255D01*
X124298139Y-37292255D01*
X124224005Y-37046136D01*
X123686777Y-36853035D01*
X123116546Y-36880222D01*
X122715995Y-37046136D01*
X122641861Y-37292255D01*
X121274527Y-37292255D01*
X121537785Y-37029457D01*
X121814684Y-36362610D01*
X121814686Y-36359442D01*
X128184686Y-36359442D01*
X128460421Y-37026772D01*
X128970543Y-37537785D01*
X129637390Y-37814684D01*
X130359442Y-37815314D01*
X131026772Y-37539579D01*
X131537785Y-37029457D01*
X131814684Y-36362610D01*
X131814686Y-36359442D01*
X138184686Y-36359442D01*
X138460421Y-37026772D01*
X138970543Y-37537785D01*
X139637390Y-37814684D01*
X140359442Y-37815314D01*
X141026772Y-37539579D01*
X141274527Y-37292255D01*
X142641861Y-37292255D01*
X143470000Y-38120395D01*
X144298139Y-37292255D01*
X144681861Y-37292255D01*
X145510000Y-38120395D01*
X146338139Y-37292255D01*
X146264005Y-37046136D01*
X145726777Y-36853035D01*
X145156546Y-36880222D01*
X144755995Y-37046136D01*
X144681861Y-37292255D01*
X144298139Y-37292255D01*
X144224005Y-37046136D01*
X143686777Y-36853035D01*
X143116546Y-36880222D01*
X142715995Y-37046136D01*
X142641861Y-37292255D01*
X141274527Y-37292255D01*
X141537785Y-37029457D01*
X141814684Y-36362610D01*
X141814686Y-36359442D01*
X148184686Y-36359442D01*
X148460421Y-37026772D01*
X148970543Y-37537785D01*
X149637390Y-37814684D01*
X150359442Y-37815314D01*
X151026772Y-37539579D01*
X151537785Y-37029457D01*
X151814684Y-36362610D01*
X151814686Y-36359442D01*
X158184686Y-36359442D01*
X158460421Y-37026772D01*
X158970543Y-37537785D01*
X159637390Y-37814684D01*
X160359442Y-37815314D01*
X161026772Y-37539579D01*
X161274527Y-37292255D01*
X162641861Y-37292255D01*
X163470000Y-38120395D01*
X164298139Y-37292255D01*
X164681861Y-37292255D01*
X165510000Y-38120395D01*
X166338139Y-37292255D01*
X166264005Y-37046136D01*
X165726777Y-36853035D01*
X165156546Y-36880222D01*
X164755995Y-37046136D01*
X164681861Y-37292255D01*
X164298139Y-37292255D01*
X164224005Y-37046136D01*
X163686777Y-36853035D01*
X163116546Y-36880222D01*
X162715995Y-37046136D01*
X162641861Y-37292255D01*
X161274527Y-37292255D01*
X161537785Y-37029457D01*
X161814684Y-36362610D01*
X161814686Y-36359442D01*
X168184686Y-36359442D01*
X168460421Y-37026772D01*
X168970543Y-37537785D01*
X169637390Y-37814684D01*
X170359442Y-37815314D01*
X171026772Y-37539579D01*
X171537785Y-37029457D01*
X171814684Y-36362610D01*
X171814686Y-36359442D01*
X178184686Y-36359442D01*
X178460421Y-37026772D01*
X178970543Y-37537785D01*
X179637390Y-37814684D01*
X180359442Y-37815314D01*
X181026772Y-37539579D01*
X181274527Y-37292255D01*
X182641861Y-37292255D01*
X183470000Y-38120395D01*
X184298139Y-37292255D01*
X184681861Y-37292255D01*
X185510000Y-38120395D01*
X186338139Y-37292255D01*
X186264005Y-37046136D01*
X185726777Y-36853035D01*
X185156546Y-36880222D01*
X184755995Y-37046136D01*
X184681861Y-37292255D01*
X184298139Y-37292255D01*
X184224005Y-37046136D01*
X183686777Y-36853035D01*
X183116546Y-36880222D01*
X182715995Y-37046136D01*
X182641861Y-37292255D01*
X181274527Y-37292255D01*
X181537785Y-37029457D01*
X181814684Y-36362610D01*
X181814686Y-36359442D01*
X188184686Y-36359442D01*
X188460421Y-37026772D01*
X188970543Y-37537785D01*
X189637390Y-37814684D01*
X190359442Y-37815314D01*
X191026772Y-37539579D01*
X191537785Y-37029457D01*
X191814684Y-36362610D01*
X191814686Y-36359442D01*
X198184686Y-36359442D01*
X198460421Y-37026772D01*
X198970543Y-37537785D01*
X199637390Y-37814684D01*
X200359442Y-37815314D01*
X201026772Y-37539579D01*
X201274527Y-37292255D01*
X202641861Y-37292255D01*
X203470000Y-38120395D01*
X204298139Y-37292255D01*
X204681861Y-37292255D01*
X205510000Y-38120395D01*
X206338139Y-37292255D01*
X206264005Y-37046136D01*
X205726777Y-36853035D01*
X205156546Y-36880222D01*
X204755995Y-37046136D01*
X204681861Y-37292255D01*
X204298139Y-37292255D01*
X204224005Y-37046136D01*
X203686777Y-36853035D01*
X203116546Y-36880222D01*
X202715995Y-37046136D01*
X202641861Y-37292255D01*
X201274527Y-37292255D01*
X201537785Y-37029457D01*
X201814684Y-36362610D01*
X201814686Y-36359442D01*
X208184686Y-36359442D01*
X208460421Y-37026772D01*
X208970543Y-37537785D01*
X209637390Y-37814684D01*
X210359442Y-37815314D01*
X211026772Y-37539579D01*
X211537785Y-37029457D01*
X211814684Y-36362610D01*
X211815314Y-35640558D01*
X211807173Y-35620854D01*
X221864457Y-35620854D01*
X222340727Y-36773515D01*
X223221847Y-37656174D01*
X224373674Y-38134454D01*
X225620854Y-38135543D01*
X226773515Y-37659273D01*
X227656174Y-36778153D01*
X228134454Y-35626326D01*
X228135543Y-34379146D01*
X227659273Y-33226485D01*
X226778153Y-32343826D01*
X225626326Y-31865546D01*
X224379146Y-31864457D01*
X223226485Y-32340727D01*
X222343826Y-33221847D01*
X221865546Y-34373674D01*
X221864457Y-35620854D01*
X211807173Y-35620854D01*
X211539579Y-34973228D01*
X211029457Y-34462215D01*
X210362610Y-34185316D01*
X209640558Y-34184686D01*
X208973228Y-34460421D01*
X208462215Y-34970543D01*
X208185316Y-35637390D01*
X208184686Y-36359442D01*
X201814686Y-36359442D01*
X201815314Y-35640558D01*
X201539579Y-34973228D01*
X201029457Y-34462215D01*
X200362610Y-34185316D01*
X199640558Y-34184686D01*
X198973228Y-34460421D01*
X198462215Y-34970543D01*
X198185316Y-35637390D01*
X198184686Y-36359442D01*
X191814686Y-36359442D01*
X191815314Y-35640558D01*
X191539579Y-34973228D01*
X191029457Y-34462215D01*
X190362610Y-34185316D01*
X189640558Y-34184686D01*
X188973228Y-34460421D01*
X188462215Y-34970543D01*
X188185316Y-35637390D01*
X188184686Y-36359442D01*
X181814686Y-36359442D01*
X181815314Y-35640558D01*
X181539579Y-34973228D01*
X181029457Y-34462215D01*
X180362610Y-34185316D01*
X179640558Y-34184686D01*
X178973228Y-34460421D01*
X178462215Y-34970543D01*
X178185316Y-35637390D01*
X178184686Y-36359442D01*
X171814686Y-36359442D01*
X171815314Y-35640558D01*
X171539579Y-34973228D01*
X171029457Y-34462215D01*
X170362610Y-34185316D01*
X169640558Y-34184686D01*
X168973228Y-34460421D01*
X168462215Y-34970543D01*
X168185316Y-35637390D01*
X168184686Y-36359442D01*
X161814686Y-36359442D01*
X161815314Y-35640558D01*
X161539579Y-34973228D01*
X161029457Y-34462215D01*
X160362610Y-34185316D01*
X159640558Y-34184686D01*
X158973228Y-34460421D01*
X158462215Y-34970543D01*
X158185316Y-35637390D01*
X158184686Y-36359442D01*
X151814686Y-36359442D01*
X151815314Y-35640558D01*
X151539579Y-34973228D01*
X151029457Y-34462215D01*
X150362610Y-34185316D01*
X149640558Y-34184686D01*
X148973228Y-34460421D01*
X148462215Y-34970543D01*
X148185316Y-35637390D01*
X148184686Y-36359442D01*
X141814686Y-36359442D01*
X141815314Y-35640558D01*
X141539579Y-34973228D01*
X141029457Y-34462215D01*
X140362610Y-34185316D01*
X139640558Y-34184686D01*
X138973228Y-34460421D01*
X138462215Y-34970543D01*
X138185316Y-35637390D01*
X138184686Y-36359442D01*
X131814686Y-36359442D01*
X131815314Y-35640558D01*
X131539579Y-34973228D01*
X131029457Y-34462215D01*
X130362610Y-34185316D01*
X129640558Y-34184686D01*
X128973228Y-34460421D01*
X128462215Y-34970543D01*
X128185316Y-35637390D01*
X128184686Y-36359442D01*
X121814686Y-36359442D01*
X121815314Y-35640558D01*
X121539579Y-34973228D01*
X121029457Y-34462215D01*
X120362610Y-34185316D01*
X119640558Y-34184686D01*
X118973228Y-34460421D01*
X118462215Y-34970543D01*
X118185316Y-35637390D01*
X118184686Y-36359442D01*
X107830037Y-36359442D01*
X108134454Y-35626326D01*
X108135543Y-34379146D01*
X108013669Y-34084187D01*
X132064752Y-34084187D01*
X132282757Y-34611800D01*
X132686077Y-35015824D01*
X133213309Y-35234750D01*
X133784187Y-35235248D01*
X134311800Y-35017243D01*
X134715824Y-34613923D01*
X134934750Y-34086691D01*
X134934752Y-34084187D01*
X152164752Y-34084187D01*
X152382757Y-34611800D01*
X152786077Y-35015824D01*
X153313309Y-35234750D01*
X153884187Y-35235248D01*
X154411800Y-35017243D01*
X154815824Y-34613923D01*
X155034750Y-34086691D01*
X155034752Y-34084187D01*
X172364752Y-34084187D01*
X172582757Y-34611800D01*
X172986077Y-35015824D01*
X173513309Y-35234750D01*
X174084187Y-35235248D01*
X174611800Y-35017243D01*
X175015824Y-34613923D01*
X175234750Y-34086691D01*
X175234752Y-34084187D01*
X192264752Y-34084187D01*
X192482757Y-34611800D01*
X192886077Y-35015824D01*
X193413309Y-35234750D01*
X193984187Y-35235248D01*
X194511800Y-35017243D01*
X194915824Y-34613923D01*
X195134750Y-34086691D01*
X195135248Y-33515813D01*
X194917243Y-32988200D01*
X194513923Y-32584176D01*
X193986691Y-32365250D01*
X193415813Y-32364752D01*
X192888200Y-32582757D01*
X192484176Y-32986077D01*
X192265250Y-33513309D01*
X192264752Y-34084187D01*
X175234752Y-34084187D01*
X175235248Y-33515813D01*
X175017243Y-32988200D01*
X174613923Y-32584176D01*
X174086691Y-32365250D01*
X173515813Y-32364752D01*
X172988200Y-32582757D01*
X172584176Y-32986077D01*
X172365250Y-33513309D01*
X172364752Y-34084187D01*
X155034752Y-34084187D01*
X155035248Y-33515813D01*
X154817243Y-32988200D01*
X154413923Y-32584176D01*
X153886691Y-32365250D01*
X153315813Y-32364752D01*
X152788200Y-32582757D01*
X152384176Y-32986077D01*
X152165250Y-33513309D01*
X152164752Y-34084187D01*
X134934752Y-34084187D01*
X134935248Y-33515813D01*
X134717243Y-32988200D01*
X134313923Y-32584176D01*
X133786691Y-32365250D01*
X133215813Y-32364752D01*
X132688200Y-32582757D01*
X132284176Y-32986077D01*
X132065250Y-33513309D01*
X132064752Y-34084187D01*
X108013669Y-34084187D01*
X107659273Y-33226485D01*
X106778153Y-32343826D01*
X105626326Y-31865546D01*
X104379146Y-31864457D01*
X103226485Y-32340727D01*
X102343826Y-33221847D01*
X101865546Y-34373674D01*
X101864457Y-35620854D01*
X100710000Y-35620854D01*
X100710000Y-30710000D01*
X229290000Y-30710000D01*
X229290000Y-139290000D01*
G36*
X154687000Y-58893000D02*
X154707000Y-58893000D01*
X154707000Y-59147000D01*
X154687000Y-59147000D01*
X154687000Y-60289915D01*
X154909039Y-60411904D01*
X155297423Y-60251041D01*
X155712389Y-59875134D01*
X155815014Y-59658297D01*
X156085302Y-60062811D01*
X156550849Y-60373880D01*
X157100000Y-60483113D01*
X157649151Y-60373880D01*
X158114698Y-60062811D01*
X158370000Y-59680725D01*
X158625302Y-60062811D01*
X159090849Y-60373880D01*
X159232005Y-60401958D01*
X158974210Y-60574210D01*
X158974208Y-60574213D01*
X155533420Y-64015000D01*
X153066579Y-64015000D01*
X152179644Y-63128065D01*
X152353454Y-63119778D01*
X152754005Y-62953864D01*
X152828139Y-62707745D01*
X152000000Y-61879605D01*
X151985858Y-61893748D01*
X151806252Y-61714142D01*
X151820395Y-61700000D01*
X152179605Y-61700000D01*
X153007745Y-62528139D01*
X153253864Y-62454005D01*
X153446965Y-61916777D01*
X153419778Y-61346546D01*
X153253864Y-60945995D01*
X153007745Y-60871861D01*
X152179605Y-61700000D01*
X151820395Y-61700000D01*
X150992255Y-60871861D01*
X150746136Y-60945995D01*
X150743804Y-60952483D01*
X150717243Y-60888200D01*
X150313923Y-60484176D01*
X150036491Y-60368976D01*
X150494698Y-60062811D01*
X150750000Y-59680725D01*
X151005302Y-60062811D01*
X151451557Y-60360989D01*
X151245995Y-60446136D01*
X151171861Y-60692255D01*
X152000000Y-61520395D01*
X152828139Y-60692255D01*
X152754005Y-60446136D01*
X152558742Y-60375951D01*
X152569151Y-60373880D01*
X153034698Y-60062811D01*
X153304986Y-59658297D01*
X153407611Y-59875134D01*
X153822577Y-60251041D01*
X154210961Y-60411904D01*
X154433000Y-60289915D01*
X154433000Y-59147000D01*
X154413000Y-59147000D01*
X154413000Y-58893000D01*
X154433000Y-58893000D01*
X154433000Y-58873000D01*
X154687000Y-58873000D01*
X154687000Y-58893000D01*
X154687000Y-58893000D01*
G37*
X154687000Y-58893000D02*
X154707000Y-58893000D01*
X154707000Y-59147000D01*
X154687000Y-59147000D01*
X154687000Y-60289915D01*
X154909039Y-60411904D01*
X155297423Y-60251041D01*
X155712389Y-59875134D01*
X155815014Y-59658297D01*
X156085302Y-60062811D01*
X156550849Y-60373880D01*
X157100000Y-60483113D01*
X157649151Y-60373880D01*
X158114698Y-60062811D01*
X158370000Y-59680725D01*
X158625302Y-60062811D01*
X159090849Y-60373880D01*
X159232005Y-60401958D01*
X158974210Y-60574210D01*
X158974208Y-60574213D01*
X155533420Y-64015000D01*
X153066579Y-64015000D01*
X152179644Y-63128065D01*
X152353454Y-63119778D01*
X152754005Y-62953864D01*
X152828139Y-62707745D01*
X152000000Y-61879605D01*
X151985858Y-61893748D01*
X151806252Y-61714142D01*
X151820395Y-61700000D01*
X152179605Y-61700000D01*
X153007745Y-62528139D01*
X153253864Y-62454005D01*
X153446965Y-61916777D01*
X153419778Y-61346546D01*
X153253864Y-60945995D01*
X153007745Y-60871861D01*
X152179605Y-61700000D01*
X151820395Y-61700000D01*
X150992255Y-60871861D01*
X150746136Y-60945995D01*
X150743804Y-60952483D01*
X150717243Y-60888200D01*
X150313923Y-60484176D01*
X150036491Y-60368976D01*
X150494698Y-60062811D01*
X150750000Y-59680725D01*
X151005302Y-60062811D01*
X151451557Y-60360989D01*
X151245995Y-60446136D01*
X151171861Y-60692255D01*
X152000000Y-61520395D01*
X152828139Y-60692255D01*
X152754005Y-60446136D01*
X152558742Y-60375951D01*
X152569151Y-60373880D01*
X153034698Y-60062811D01*
X153304986Y-59658297D01*
X153407611Y-59875134D01*
X153822577Y-60251041D01*
X154210961Y-60411904D01*
X154433000Y-60289915D01*
X154433000Y-59147000D01*
X154413000Y-59147000D01*
X154413000Y-58893000D01*
X154433000Y-58893000D01*
X154433000Y-58873000D01*
X154687000Y-58873000D01*
X154687000Y-58893000D01*
M02*
