G04 #@! TF.FileFunction,Soldermask,Top*
%FSLAX46Y46*%
G04 Gerber Fmt 4.6, Leading zero omitted, Abs format (unit mm)*
G04 Created by KiCad (PCBNEW 4.0.6) date Sunday, July 23, 2017 'AMt' 01:04:53 AM*
%MOMM*%
%LPD*%
G01*
G04 APERTURE LIST*
%ADD10C,0.100000*%
%ADD11C,5.400000*%
%ADD12C,2.000000*%
%ADD13R,2.200000X3.000000*%
%ADD14O,2.200000X3.000000*%
%ADD15C,3.400000*%
%ADD16C,2.760000*%
%ADD17C,2.600000*%
%ADD18O,2.000000X2.000000*%
%ADD19C,2.900000*%
%ADD20R,2.000000X2.000000*%
%ADD21C,1.920000*%
%ADD22C,3.100000*%
%ADD23C,1.900000*%
%ADD24C,2.400000*%
%ADD25O,3.900000X3.900000*%
%ADD26R,2.200000X2.200000*%
%ADD27O,2.200000X2.200000*%
%ADD28R,1.600000X1.600000*%
%ADD29C,1.600000*%
%ADD30R,2.127200X2.127200*%
%ADD31O,2.127200X2.127200*%
G04 APERTURE END LIST*
D10*
D11*
X225000000Y-35000000D03*
X225000000Y-135000000D03*
X105000000Y-135000000D03*
D12*
X154600000Y-48400000D03*
X152100000Y-48400000D03*
X135300000Y-68000000D03*
X132800000Y-68000000D03*
D13*
X132842000Y-72390000D03*
D14*
X135382000Y-72390000D03*
X137922000Y-72390000D03*
X140462000Y-72390000D03*
X143002000Y-72390000D03*
X145542000Y-72390000D03*
X148082000Y-72390000D03*
X150622000Y-72390000D03*
X153162000Y-72390000D03*
X155702000Y-72390000D03*
X158242000Y-72390000D03*
X160782000Y-72390000D03*
X163322000Y-72390000D03*
X165862000Y-72390000D03*
X168402000Y-72390000D03*
X170942000Y-72390000D03*
D15*
X127342900Y-72390000D03*
X127342900Y-103390700D03*
X202341480Y-103390700D03*
X202342000Y-72390000D03*
D12*
X203470000Y-38300000D03*
X204490000Y-40540000D03*
X205510000Y-38300000D03*
X206530000Y-40540000D03*
D16*
X200000000Y-36000000D03*
X210000000Y-36000000D03*
D12*
X183470000Y-38300000D03*
X184490000Y-40540000D03*
X185510000Y-38300000D03*
X186530000Y-40540000D03*
D16*
X180000000Y-36000000D03*
X190000000Y-36000000D03*
D12*
X163470000Y-38300000D03*
X164490000Y-40540000D03*
X165510000Y-38300000D03*
X166530000Y-40540000D03*
D16*
X160000000Y-36000000D03*
X170000000Y-36000000D03*
D12*
X143470000Y-38300000D03*
X144490000Y-40540000D03*
X145510000Y-38300000D03*
X146530000Y-40540000D03*
D16*
X140000000Y-36000000D03*
X150000000Y-36000000D03*
D12*
X123470000Y-38300000D03*
X124490000Y-40540000D03*
X125510000Y-38300000D03*
X126530000Y-40540000D03*
D16*
X120000000Y-36000000D03*
X130000000Y-36000000D03*
D17*
X218900000Y-122400000D03*
X203900000Y-122400000D03*
D12*
X174500000Y-51400000D03*
D18*
X184660000Y-51400000D03*
D12*
X117300000Y-100000000D03*
D18*
X107140000Y-100000000D03*
D12*
X191500000Y-122300000D03*
D18*
X181340000Y-122300000D03*
D12*
X178600000Y-63800000D03*
D18*
X168440000Y-63800000D03*
D12*
X193700000Y-33800000D03*
D18*
X193700000Y-43960000D03*
D12*
X173800000Y-33800000D03*
D18*
X173800000Y-43960000D03*
D12*
X153600000Y-33800000D03*
D18*
X153600000Y-43960000D03*
D12*
X133500000Y-33800000D03*
D18*
X133500000Y-43960000D03*
D12*
X115900000Y-38900000D03*
D18*
X115900000Y-49060000D03*
D19*
X190800000Y-115740000D03*
X193300000Y-110700000D03*
X188300000Y-110700000D03*
X137500000Y-115740000D03*
X140000000Y-110700000D03*
X135000000Y-110700000D03*
D20*
X169800000Y-51400000D03*
D18*
X136780000Y-59020000D03*
X167260000Y-51400000D03*
X139320000Y-59020000D03*
X164720000Y-51400000D03*
X141860000Y-59020000D03*
X162180000Y-51400000D03*
X144400000Y-59020000D03*
X159640000Y-51400000D03*
X146940000Y-59020000D03*
X157100000Y-51400000D03*
X149480000Y-59020000D03*
X154560000Y-51400000D03*
X152020000Y-59020000D03*
X152020000Y-51400000D03*
X154560000Y-59020000D03*
X149480000Y-51400000D03*
X157100000Y-59020000D03*
X146940000Y-51400000D03*
X159640000Y-59020000D03*
X144400000Y-51400000D03*
X162180000Y-59020000D03*
X141860000Y-51400000D03*
X164720000Y-59020000D03*
X139320000Y-51400000D03*
X167260000Y-59020000D03*
X136780000Y-51400000D03*
X169800000Y-59020000D03*
D21*
X214600000Y-53840000D03*
X214600000Y-51300000D03*
X216600000Y-51300000D03*
X216600000Y-53840000D03*
D22*
X219300000Y-58570000D03*
X219300000Y-46570000D03*
D23*
X113200000Y-90310000D03*
X113200000Y-87770000D03*
X113200000Y-85740000D03*
X113200000Y-83200000D03*
D15*
X110530000Y-93360000D03*
X110530000Y-79640000D03*
D12*
X152000000Y-61700000D03*
X149500000Y-61700000D03*
D24*
X140000000Y-132500000D03*
X140000000Y-128000000D03*
X146500000Y-132500000D03*
X146500000Y-128000000D03*
X161875000Y-132500000D03*
X161875000Y-128000000D03*
X168375000Y-132500000D03*
X168375000Y-128000000D03*
X183750000Y-132500000D03*
X183750000Y-128000000D03*
X190250000Y-132500000D03*
X190250000Y-128000000D03*
D25*
X114860000Y-122260000D03*
D26*
X117400000Y-105600000D03*
D27*
X114860000Y-105600000D03*
X112320000Y-105600000D03*
D11*
X105000000Y-35000000D03*
D28*
X218900000Y-102500000D03*
D29*
X218900000Y-104000000D03*
D30*
X110800000Y-58700000D03*
D31*
X108260000Y-58700000D03*
X110800000Y-61240000D03*
X108260000Y-61240000D03*
X110800000Y-63780000D03*
X108260000Y-63780000D03*
X110800000Y-66320000D03*
X108260000Y-66320000D03*
X110800000Y-68860000D03*
X108260000Y-68860000D03*
M02*
