%TF.GenerationSoftware,KiCad,Pcbnew,(6.0.8-1)-1*%
%TF.CreationDate,2022-10-24T08:07:35+03:00*%
%TF.ProjectId,kamaji_button_v1,6b616d61-6a69-45f6-9275-74746f6e5f76,rev?*%
%TF.SameCoordinates,PX2faf080PY2faf080*%
%TF.FileFunction,Copper,L1,Top*%
%TF.FilePolarity,Positive*%
%FSLAX46Y46*%
G04 Gerber Fmt 4.6, Leading zero omitted, Abs format (unit mm)*
G04 Created by KiCad (PCBNEW (6.0.8-1)-1) date 2022-10-24 08:07:35*
%MOMM*%
%LPD*%
G01*
G04 APERTURE LIST*
G04 Aperture macros list*
%AMHorizOval*
0 Thick line with rounded ends*
0 $1 width*
0 $2 $3 position (X,Y) of the first rounded end (center of the circle)*
0 $4 $5 position (X,Y) of the second rounded end (center of the circle)*
0 Add line between two ends*
20,1,$1,$2,$3,$4,$5,0*
0 Add two circle primitives to create the rounded ends*
1,1,$1,$2,$3*
1,1,$1,$4,$5*%
G04 Aperture macros list end*
%TA.AperFunction,ComponentPad*%
%ADD10HorizOval,2.250000X-0.655001X-0.730000X0.655001X0.730000X0*%
%TD*%
%TA.AperFunction,ComponentPad*%
%ADD11C,2.250000*%
%TD*%
%TA.AperFunction,ComponentPad*%
%ADD12HorizOval,2.250000X-0.020000X-0.290000X0.020000X0.290000X0*%
%TD*%
%TA.AperFunction,ComponentPad*%
%ADD13C,1.905000*%
%TD*%
%TA.AperFunction,ComponentPad*%
%ADD14R,1.905000X1.905000*%
%TD*%
%TA.AperFunction,ComponentPad*%
%ADD15C,1.600000*%
%TD*%
%TA.AperFunction,Conductor*%
%ADD16C,0.350000*%
%TD*%
G04 APERTURE END LIST*
D10*
%TO.P,SW2,1,1*%
%TO.N,GND*%
X18154999Y-24270000D03*
D11*
X17500000Y-25000000D03*
%TO.P,SW2,2,2*%
%TO.N,Net-(J1-Pad4)*%
X12460000Y-26080000D03*
D12*
X12480000Y-25790000D03*
D13*
%TO.P,SW2,3,K*%
%TO.N,GND*%
X16270000Y-15920000D03*
D14*
%TO.P,SW2,4,A*%
%TO.N,Net-(J1-Pad2)*%
X13730000Y-15920000D03*
%TD*%
D15*
%TO.P,J1,4*%
%TO.N,Net-(J1-Pad4)*%
X16530000Y-6727500D03*
%TO.P,J1,3*%
%TO.N,GND*%
X15510000Y-4487500D03*
%TO.P,J1,2*%
%TO.N,Net-(J1-Pad2)*%
X14490000Y-6727500D03*
%TO.P,J1,1*%
%TO.N,GND*%
X13470000Y-4487500D03*
%TD*%
D16*
%TO.N,Net-(J1-Pad4)*%
X19100006Y-26468374D02*
G75*
G02*
X15474152Y-26968825I-2367406J3767074D01*
G01*
X22199985Y-21100002D02*
G75*
G03*
X21408170Y-18207254I-11074085J-1476498D01*
G01*
X21649206Y-23913891D02*
G75*
G03*
X22199999Y-21100000I-3888506J2221991D01*
G01*
X19434772Y-26257994D02*
G75*
G03*
X21600000Y-24000000I-3427472J5453794D01*
G01*
X15474152Y-26968826D02*
X12460000Y-26080000D01*
X19099999Y-26468363D02*
X19434764Y-26257981D01*
X21408171Y-18207254D02*
X16530000Y-6727500D01*
X21649205Y-23913890D02*
X21600000Y-24000000D01*
%TO.N,Net-(J1-Pad2)*%
X14490000Y-6727500D02*
X13730000Y-15920000D01*
%TD*%
%TA.AperFunction,Conductor*%
%TO.N,GND*%
G36*
X9129277Y-528502D02*
G01*
X9175770Y-582158D01*
X9185874Y-652432D01*
X9156380Y-717012D01*
X9125012Y-743120D01*
X9033514Y-796909D01*
X8834293Y-959101D01*
X8661897Y-1149561D01*
X8520294Y-1363906D01*
X8518293Y-1368246D01*
X8518291Y-1368250D01*
X8444822Y-1527617D01*
X8412742Y-1597204D01*
X8411418Y-1601805D01*
X8411418Y-1601806D01*
X8362726Y-1771060D01*
X8341717Y-1844086D01*
X8308852Y-2098871D01*
X8314904Y-2355695D01*
X8359734Y-2608649D01*
X8442311Y-2851911D01*
X8560733Y-3079883D01*
X8712276Y-3287320D01*
X8778179Y-3353569D01*
X8890078Y-3466057D01*
X8890083Y-3466061D01*
X8893452Y-3469448D01*
X9100093Y-3622075D01*
X9327442Y-3741689D01*
X9331961Y-3743250D01*
X9331967Y-3743252D01*
X9565751Y-3823978D01*
X9570269Y-3825538D01*
X9822984Y-3871692D01*
X9905186Y-3876000D01*
X10065324Y-3876000D01*
X10067703Y-3875819D01*
X10067704Y-3875819D01*
X10251389Y-3861847D01*
X10251394Y-3861846D01*
X10256156Y-3861484D01*
X10260809Y-3860405D01*
X10260812Y-3860405D01*
X10501752Y-3804557D01*
X10501751Y-3804557D01*
X10506416Y-3803476D01*
X10745023Y-3708282D01*
X10966486Y-3578091D01*
X11165707Y-3415899D01*
X11179656Y-3400488D01*
X12748576Y-3400488D01*
X12755644Y-3413934D01*
X13457188Y-4115478D01*
X13471132Y-4123092D01*
X13472965Y-4122961D01*
X13479580Y-4118710D01*
X14185077Y-3413213D01*
X14191507Y-3401438D01*
X14190772Y-3400488D01*
X14788576Y-3400488D01*
X14795644Y-3413934D01*
X15497188Y-4115478D01*
X15511132Y-4123092D01*
X15512965Y-4122961D01*
X15519580Y-4118710D01*
X16225077Y-3413213D01*
X16231507Y-3401438D01*
X16222211Y-3389423D01*
X16171006Y-3353569D01*
X16161511Y-3348086D01*
X15964053Y-3256010D01*
X15953761Y-3252264D01*
X15743312Y-3195875D01*
X15732519Y-3193972D01*
X15515475Y-3174983D01*
X15504525Y-3174983D01*
X15287481Y-3193972D01*
X15276688Y-3195875D01*
X15066239Y-3252264D01*
X15055947Y-3256010D01*
X14858489Y-3348086D01*
X14848994Y-3353569D01*
X14796952Y-3390009D01*
X14788576Y-3400488D01*
X14190772Y-3400488D01*
X14182211Y-3389423D01*
X14131006Y-3353569D01*
X14121511Y-3348086D01*
X13924053Y-3256010D01*
X13913761Y-3252264D01*
X13703312Y-3195875D01*
X13692519Y-3193972D01*
X13475475Y-3174983D01*
X13464525Y-3174983D01*
X13247481Y-3193972D01*
X13236688Y-3195875D01*
X13026239Y-3252264D01*
X13015947Y-3256010D01*
X12818489Y-3348086D01*
X12808994Y-3353569D01*
X12756952Y-3390009D01*
X12748576Y-3400488D01*
X11179656Y-3400488D01*
X11338103Y-3225439D01*
X11479706Y-3011094D01*
X11551135Y-2856154D01*
X11585252Y-2782148D01*
X11585253Y-2782145D01*
X11587258Y-2777796D01*
X11635920Y-2608649D01*
X11656962Y-2535507D01*
X11656963Y-2535503D01*
X11658283Y-2530914D01*
X11691148Y-2276129D01*
X11685096Y-2019305D01*
X11640266Y-1766351D01*
X11557689Y-1523089D01*
X11439267Y-1295117D01*
X11287724Y-1087680D01*
X11156811Y-956079D01*
X11109922Y-908943D01*
X11109917Y-908939D01*
X11106548Y-905552D01*
X10899907Y-752925D01*
X10886758Y-746007D01*
X10835787Y-696589D01*
X10819624Y-627456D01*
X10843403Y-560560D01*
X10899574Y-517140D01*
X10945427Y-508500D01*
X19061156Y-508500D01*
X19129277Y-528502D01*
X19175770Y-582158D01*
X19185874Y-652432D01*
X19156380Y-717012D01*
X19125012Y-743120D01*
X19033514Y-796909D01*
X18834293Y-959101D01*
X18661897Y-1149561D01*
X18520294Y-1363906D01*
X18518293Y-1368246D01*
X18518291Y-1368250D01*
X18444822Y-1527617D01*
X18412742Y-1597204D01*
X18411418Y-1601805D01*
X18411418Y-1601806D01*
X18362726Y-1771060D01*
X18341717Y-1844086D01*
X18308852Y-2098871D01*
X18314904Y-2355695D01*
X18359734Y-2608649D01*
X18442311Y-2851911D01*
X18560733Y-3079883D01*
X18712276Y-3287320D01*
X18778179Y-3353569D01*
X18890078Y-3466057D01*
X18890083Y-3466061D01*
X18893452Y-3469448D01*
X19100093Y-3622075D01*
X19327442Y-3741689D01*
X19331961Y-3743250D01*
X19331967Y-3743252D01*
X19565751Y-3823978D01*
X19570269Y-3825538D01*
X19822984Y-3871692D01*
X19905186Y-3876000D01*
X20065324Y-3876000D01*
X20067703Y-3875819D01*
X20067704Y-3875819D01*
X20251389Y-3861847D01*
X20251394Y-3861846D01*
X20256156Y-3861484D01*
X20260809Y-3860405D01*
X20260812Y-3860405D01*
X20501752Y-3804557D01*
X20501751Y-3804557D01*
X20506416Y-3803476D01*
X20745023Y-3708282D01*
X20966486Y-3578091D01*
X21165707Y-3415899D01*
X21338103Y-3225439D01*
X21479706Y-3011094D01*
X21551135Y-2856154D01*
X21585252Y-2782148D01*
X21585253Y-2782145D01*
X21587258Y-2777796D01*
X21635920Y-2608649D01*
X21656962Y-2535507D01*
X21656963Y-2535503D01*
X21658283Y-2530914D01*
X21691148Y-2276129D01*
X21685096Y-2019305D01*
X21640266Y-1766351D01*
X21557689Y-1523089D01*
X21439267Y-1295117D01*
X21287724Y-1087680D01*
X21156811Y-956079D01*
X21109922Y-908943D01*
X21109917Y-908939D01*
X21106548Y-905552D01*
X20899907Y-752925D01*
X20886758Y-746007D01*
X20835787Y-696589D01*
X20819624Y-627456D01*
X20843403Y-560560D01*
X20899574Y-517140D01*
X20945427Y-508500D01*
X29365500Y-508500D01*
X29433621Y-528502D01*
X29480114Y-582158D01*
X29491500Y-634500D01*
X29491500Y-36365500D01*
X29471498Y-36433621D01*
X29417842Y-36480114D01*
X29365500Y-36491500D01*
X634500Y-36491500D01*
X566379Y-36471498D01*
X519886Y-36417842D01*
X508500Y-36365500D01*
X508500Y-33545471D01*
X12394955Y-33545471D01*
X12419914Y-33862607D01*
X12483336Y-34174338D01*
X12584276Y-34476016D01*
X12721229Y-34763143D01*
X12892153Y-35031440D01*
X13094500Y-35276907D01*
X13325254Y-35495884D01*
X13580975Y-35685108D01*
X13719412Y-35763432D01*
X13854492Y-35839857D01*
X13854496Y-35839859D01*
X13857849Y-35841756D01*
X14151751Y-35963494D01*
X14253083Y-35991596D01*
X14454582Y-36047477D01*
X14454590Y-36047479D01*
X14458298Y-36048507D01*
X14772921Y-36095528D01*
X14776219Y-36095672D01*
X14885427Y-36100440D01*
X14885432Y-36100440D01*
X14886804Y-36100500D01*
X15080799Y-36100500D01*
X15317524Y-36086021D01*
X15321307Y-36085320D01*
X15321314Y-36085319D01*
X15519931Y-36048507D01*
X15630313Y-36028049D01*
X15839732Y-35962020D01*
X15930035Y-35933548D01*
X15930038Y-35933547D01*
X15933707Y-35932390D01*
X15937204Y-35930796D01*
X15937210Y-35930794D01*
X16219673Y-35802068D01*
X16219677Y-35802066D01*
X16223181Y-35800469D01*
X16408334Y-35687007D01*
X16491142Y-35636262D01*
X16491145Y-35636260D01*
X16494420Y-35634253D01*
X16497424Y-35631863D01*
X16497429Y-35631860D01*
X16740370Y-35438616D01*
X16743381Y-35436221D01*
X16966352Y-35209324D01*
X17100572Y-35034405D01*
X17157674Y-34959989D01*
X17157679Y-34959981D01*
X17160009Y-34956945D01*
X17272257Y-34766386D01*
X17319513Y-34686162D01*
X17319515Y-34686159D01*
X17321466Y-34682846D01*
X17448315Y-34391114D01*
X17538665Y-34086097D01*
X17591169Y-33772343D01*
X17605045Y-33454529D01*
X17580086Y-33137393D01*
X17516664Y-32825662D01*
X17415724Y-32523984D01*
X17278771Y-32236857D01*
X17107847Y-31968560D01*
X16905500Y-31723093D01*
X16674746Y-31504116D01*
X16419025Y-31314892D01*
X16218680Y-31201542D01*
X16145508Y-31160143D01*
X16145504Y-31160141D01*
X16142151Y-31158244D01*
X15848249Y-31036506D01*
X15746917Y-31008404D01*
X15545418Y-30952523D01*
X15545410Y-30952521D01*
X15541702Y-30951493D01*
X15227079Y-30904472D01*
X15223781Y-30904328D01*
X15114573Y-30899560D01*
X15114568Y-30899560D01*
X15113196Y-30899500D01*
X14919201Y-30899500D01*
X14682476Y-30913979D01*
X14678693Y-30914680D01*
X14678686Y-30914681D01*
X14526081Y-30942965D01*
X14369687Y-30971951D01*
X14189997Y-31028606D01*
X14069965Y-31066452D01*
X14069962Y-31066453D01*
X14066293Y-31067610D01*
X14062796Y-31069204D01*
X14062790Y-31069206D01*
X13780327Y-31197932D01*
X13780323Y-31197934D01*
X13776819Y-31199531D01*
X13773540Y-31201541D01*
X13773537Y-31201542D01*
X13584826Y-31317185D01*
X13505580Y-31365747D01*
X13502576Y-31368137D01*
X13502571Y-31368140D01*
X13283962Y-31542030D01*
X13256619Y-31563779D01*
X13033648Y-31790676D01*
X13031307Y-31793727D01*
X13031306Y-31793728D01*
X12842326Y-32040011D01*
X12842321Y-32040019D01*
X12839991Y-32043055D01*
X12838042Y-32046364D01*
X12723792Y-32240322D01*
X12678534Y-32317154D01*
X12551685Y-32608886D01*
X12461335Y-32913903D01*
X12408831Y-33227657D01*
X12394955Y-33545471D01*
X508500Y-33545471D01*
X508500Y-26080000D01*
X10821449Y-26080000D01*
X10821837Y-26084930D01*
X10821837Y-26084931D01*
X10826781Y-26147753D01*
X10827163Y-26156418D01*
X10827821Y-26224371D01*
X10828643Y-26229254D01*
X10836269Y-26274559D01*
X10837629Y-26285588D01*
X10841622Y-26336326D01*
X10842778Y-26341141D01*
X10857487Y-26402411D01*
X10859220Y-26410908D01*
X10870501Y-26477922D01*
X10872073Y-26482606D01*
X10872074Y-26482609D01*
X10886694Y-26526163D01*
X10889763Y-26536846D01*
X10901645Y-26586340D01*
X10927659Y-26649144D01*
X10930692Y-26657244D01*
X10952319Y-26721676D01*
X10954608Y-26726063D01*
X10954611Y-26726070D01*
X10975859Y-26766791D01*
X10980561Y-26776861D01*
X10998143Y-26819309D01*
X10998147Y-26819316D01*
X11000040Y-26823887D01*
X11035556Y-26881843D01*
X11039820Y-26889372D01*
X11071261Y-26949629D01*
X11074212Y-26953609D01*
X11101572Y-26990510D01*
X11107791Y-26999720D01*
X11134384Y-27043116D01*
X11178532Y-27094807D01*
X11183905Y-27101555D01*
X11224398Y-27156169D01*
X11227922Y-27159625D01*
X11227926Y-27159630D01*
X11260734Y-27191808D01*
X11268315Y-27199930D01*
X11301369Y-27238631D01*
X11305125Y-27241839D01*
X11305130Y-27241844D01*
X11353047Y-27282769D01*
X11359445Y-27288626D01*
X11404427Y-27332745D01*
X11404435Y-27332752D01*
X11407961Y-27336210D01*
X11411986Y-27339075D01*
X11411987Y-27339076D01*
X11449421Y-27365723D01*
X11458182Y-27372561D01*
X11496884Y-27405616D01*
X11554828Y-27441124D01*
X11562055Y-27445903D01*
X11617427Y-27485319D01*
X11647305Y-27500180D01*
X11662987Y-27507980D01*
X11672709Y-27513362D01*
X11716113Y-27539960D01*
X11720683Y-27541853D01*
X11720691Y-27541857D01*
X11778907Y-27565970D01*
X11786784Y-27569555D01*
X11847642Y-27599825D01*
X11896198Y-27615084D01*
X11906635Y-27618877D01*
X11949089Y-27636462D01*
X11949093Y-27636463D01*
X11953660Y-27638355D01*
X12019769Y-27654227D01*
X12028077Y-27656526D01*
X12092934Y-27676907D01*
X12097828Y-27677634D01*
X12097834Y-27677635D01*
X12122924Y-27681360D01*
X12143282Y-27684383D01*
X12154185Y-27686497D01*
X12198852Y-27697221D01*
X12198860Y-27697222D01*
X12203674Y-27698378D01*
X12208606Y-27698766D01*
X12208611Y-27698767D01*
X12271432Y-27703711D01*
X12280050Y-27704689D01*
X12308942Y-27708978D01*
X12347264Y-27714668D01*
X12352220Y-27714620D01*
X12398148Y-27714175D01*
X12409256Y-27714557D01*
X12410667Y-27714668D01*
X12460000Y-27718551D01*
X12464930Y-27718163D01*
X12464931Y-27718163D01*
X12527754Y-27713219D01*
X12536419Y-27712837D01*
X12599420Y-27712227D01*
X12599421Y-27712227D01*
X12604371Y-27712179D01*
X12612231Y-27710856D01*
X12654559Y-27703731D01*
X12665588Y-27702371D01*
X12677793Y-27701410D01*
X12716326Y-27698378D01*
X12738601Y-27693030D01*
X12782411Y-27682513D01*
X12790908Y-27680780D01*
X12809590Y-27677635D01*
X12857922Y-27669499D01*
X12862606Y-27667927D01*
X12862609Y-27667926D01*
X12906163Y-27653306D01*
X12916846Y-27650237D01*
X12961533Y-27639509D01*
X12966340Y-27638355D01*
X13029144Y-27612341D01*
X13037247Y-27609307D01*
X13096982Y-27589257D01*
X13096987Y-27589255D01*
X13101676Y-27587681D01*
X13106063Y-27585392D01*
X13106070Y-27585389D01*
X13146791Y-27564141D01*
X13156861Y-27559439D01*
X13199309Y-27541857D01*
X13199316Y-27541853D01*
X13203887Y-27539960D01*
X13261843Y-27504444D01*
X13269372Y-27500180D01*
X13325237Y-27471031D01*
X13325240Y-27471029D01*
X13329629Y-27468739D01*
X13370510Y-27438428D01*
X13379720Y-27432209D01*
X13418899Y-27408200D01*
X13423116Y-27405616D01*
X13474807Y-27361468D01*
X13481555Y-27356095D01*
X13536169Y-27315602D01*
X13539625Y-27312078D01*
X13539630Y-27312074D01*
X13571808Y-27279266D01*
X13579931Y-27271684D01*
X13614875Y-27241839D01*
X13618631Y-27238631D01*
X13621839Y-27234875D01*
X13621847Y-27234867D01*
X13636771Y-27217394D01*
X13696222Y-27178586D01*
X13768218Y-27178371D01*
X15225631Y-27608139D01*
X15242290Y-27614361D01*
X15265618Y-27625007D01*
X15269558Y-27626214D01*
X15269564Y-27626216D01*
X15273738Y-27627494D01*
X15279406Y-27629230D01*
X15283458Y-27629910D01*
X15283470Y-27629913D01*
X15289410Y-27630910D01*
X15299503Y-27633033D01*
X15635385Y-27718163D01*
X15663430Y-27725271D01*
X15665811Y-27725683D01*
X15665818Y-27725684D01*
X15873057Y-27761502D01*
X16053448Y-27792681D01*
X16055856Y-27792908D01*
X16055862Y-27792909D01*
X16445079Y-27829632D01*
X16445087Y-27829632D01*
X16447499Y-27829860D01*
X16663531Y-27833532D01*
X16840816Y-27836545D01*
X16840822Y-27836545D01*
X16843243Y-27836586D01*
X17009379Y-27826593D01*
X17235910Y-27812967D01*
X17235921Y-27812966D01*
X17238330Y-27812821D01*
X17240721Y-27812491D01*
X17240731Y-27812490D01*
X17628024Y-27759034D01*
X17628027Y-27759033D01*
X17630414Y-27758704D01*
X17782181Y-27725684D01*
X18014801Y-27675073D01*
X18014807Y-27675072D01*
X18017167Y-27674558D01*
X18396293Y-27560882D01*
X18526915Y-27510461D01*
X18763293Y-27419218D01*
X18763307Y-27419212D01*
X18765540Y-27418350D01*
X18875761Y-27365723D01*
X19120525Y-27248856D01*
X19120532Y-27248852D01*
X19122715Y-27247810D01*
X19288724Y-27152200D01*
X19433849Y-27068618D01*
X19445385Y-27062741D01*
X19454069Y-27058866D01*
X19457576Y-27056713D01*
X19457580Y-27056711D01*
X19462840Y-27053482D01*
X19462844Y-27053479D01*
X19466358Y-27051322D01*
X19469558Y-27048726D01*
X19469564Y-27048722D01*
X19492910Y-27029784D01*
X19505241Y-27020957D01*
X19749723Y-26867313D01*
X19765422Y-26858931D01*
X19785067Y-26850165D01*
X19785071Y-26850163D01*
X19788838Y-26848482D01*
X19792351Y-26846325D01*
X19792355Y-26846323D01*
X19794659Y-26844908D01*
X19801127Y-26840937D01*
X19804324Y-26838344D01*
X19804332Y-26838338D01*
X19810803Y-26833089D01*
X19819895Y-26826367D01*
X19908539Y-26766791D01*
X20163000Y-26595773D01*
X20164519Y-26594611D01*
X20164530Y-26594603D01*
X20508577Y-26331390D01*
X20508584Y-26331384D01*
X20510115Y-26330213D01*
X20710529Y-26156418D01*
X20838844Y-26045146D01*
X20838858Y-26045133D01*
X20840303Y-26043880D01*
X21152324Y-25737849D01*
X21220080Y-25662709D01*
X21443718Y-25414698D01*
X21443731Y-25414682D01*
X21445003Y-25413272D01*
X21446185Y-25411787D01*
X21446199Y-25411771D01*
X21716048Y-25072868D01*
X21716057Y-25072856D01*
X21717241Y-25071369D01*
X21968015Y-24713425D01*
X22176154Y-24373791D01*
X22184086Y-24362324D01*
X22187987Y-24357303D01*
X22190519Y-24354044D01*
X22192603Y-24350484D01*
X22192607Y-24350478D01*
X22195720Y-24345160D01*
X22195723Y-24345154D01*
X22197804Y-24341599D01*
X22209502Y-24313831D01*
X22226120Y-24285444D01*
X22237187Y-24271199D01*
X22239724Y-24267934D01*
X22243115Y-24262141D01*
X22244926Y-24259049D01*
X22244929Y-24259043D01*
X22247009Y-24255490D01*
X22248610Y-24251689D01*
X22248687Y-24251536D01*
X22252824Y-24242715D01*
X22438910Y-23883889D01*
X22438915Y-23883878D01*
X22440083Y-23881626D01*
X22517253Y-23697539D01*
X22601754Y-23495964D01*
X22601755Y-23495962D01*
X22602747Y-23493595D01*
X22604712Y-23487577D01*
X22732504Y-23096045D01*
X22732505Y-23096042D01*
X22733297Y-23093615D01*
X22830867Y-22684338D01*
X22894809Y-22268479D01*
X22924701Y-21848796D01*
X22920343Y-21428073D01*
X22884717Y-21041166D01*
X22884191Y-21028497D01*
X22884237Y-21023318D01*
X22882481Y-21009005D01*
X22881450Y-21005015D01*
X22881448Y-21005007D01*
X22878785Y-20994707D01*
X22876284Y-20982619D01*
X22868781Y-20934593D01*
X22798305Y-20483518D01*
X22692657Y-19961975D01*
X22624480Y-19688991D01*
X22564067Y-19447092D01*
X22564063Y-19447077D01*
X22563718Y-19445696D01*
X22430934Y-19000109D01*
X22412159Y-18937104D01*
X22412157Y-18937097D01*
X22411747Y-18935722D01*
X22366286Y-18804918D01*
X22237508Y-18434394D01*
X22237051Y-18433079D01*
X22054919Y-17976246D01*
X22050210Y-17962032D01*
X22048417Y-17955303D01*
X22048414Y-17955295D01*
X22047353Y-17951313D01*
X22041853Y-17937983D01*
X22024796Y-17908346D01*
X22018039Y-17894776D01*
X17823680Y-8024233D01*
X17622788Y-7551476D01*
X17614555Y-7480958D01*
X17635539Y-7429927D01*
X17664366Y-7388758D01*
X17664367Y-7388756D01*
X17667523Y-7384249D01*
X17669846Y-7379267D01*
X17669849Y-7379262D01*
X17761961Y-7181725D01*
X17761961Y-7181724D01*
X17764284Y-7176743D01*
X17823543Y-6955587D01*
X17843498Y-6727500D01*
X17823543Y-6499413D01*
X17764284Y-6278257D01*
X17761961Y-6273275D01*
X17669849Y-6075738D01*
X17669846Y-6075733D01*
X17667523Y-6070751D01*
X17536198Y-5883200D01*
X17374300Y-5721302D01*
X17369792Y-5718145D01*
X17369789Y-5718143D01*
X17239500Y-5626914D01*
X17186749Y-5589977D01*
X17181767Y-5587654D01*
X17181762Y-5587651D01*
X16984225Y-5495539D01*
X16984224Y-5495539D01*
X16979243Y-5493216D01*
X16973935Y-5491794D01*
X16973933Y-5491793D01*
X16763402Y-5435381D01*
X16763400Y-5435381D01*
X16758087Y-5433957D01*
X16752611Y-5433478D01*
X16752606Y-5433477D01*
X16709295Y-5429688D01*
X16679592Y-5427090D01*
X16613475Y-5401227D01*
X16571835Y-5343724D01*
X16567894Y-5272836D01*
X16587360Y-5229299D01*
X16643932Y-5148504D01*
X16649414Y-5139011D01*
X16741490Y-4941553D01*
X16745236Y-4931261D01*
X16801625Y-4720812D01*
X16803528Y-4710019D01*
X16822517Y-4492975D01*
X16822517Y-4482025D01*
X16803528Y-4264981D01*
X16801625Y-4254188D01*
X16745236Y-4043739D01*
X16741490Y-4033447D01*
X16649414Y-3835989D01*
X16643931Y-3826494D01*
X16607491Y-3774452D01*
X16597012Y-3766076D01*
X16583566Y-3773144D01*
X15599095Y-4757615D01*
X15536783Y-4791641D01*
X15465968Y-4786576D01*
X15420905Y-4757615D01*
X14502812Y-3839522D01*
X14488868Y-3831908D01*
X14487035Y-3832039D01*
X14480420Y-3836290D01*
X12754923Y-5561787D01*
X12748493Y-5573562D01*
X12757789Y-5585577D01*
X12808994Y-5621431D01*
X12818489Y-5626914D01*
X13015947Y-5718990D01*
X13026239Y-5722736D01*
X13236688Y-5779125D01*
X13247480Y-5781028D01*
X13320163Y-5787387D01*
X13386281Y-5813250D01*
X13427921Y-5870754D01*
X13431862Y-5941641D01*
X13412395Y-5985179D01*
X13355634Y-6066242D01*
X13355633Y-6066244D01*
X13352477Y-6070751D01*
X13350154Y-6075733D01*
X13350151Y-6075738D01*
X13258039Y-6273275D01*
X13255716Y-6278257D01*
X13196457Y-6499413D01*
X13176502Y-6727500D01*
X13196457Y-6955587D01*
X13255716Y-7176743D01*
X13258039Y-7181724D01*
X13258039Y-7181725D01*
X13350151Y-7379262D01*
X13350154Y-7379267D01*
X13352477Y-7384249D01*
X13483802Y-7571800D01*
X13645700Y-7733698D01*
X13650210Y-7736856D01*
X13650216Y-7736861D01*
X13657597Y-7742029D01*
X13701926Y-7797486D01*
X13710899Y-7855624D01*
X13174517Y-14343382D01*
X13148970Y-14409623D01*
X13091666Y-14451537D01*
X13048945Y-14459000D01*
X12729366Y-14459000D01*
X12667184Y-14465755D01*
X12530795Y-14516885D01*
X12414239Y-14604239D01*
X12326885Y-14720795D01*
X12275755Y-14857184D01*
X12269000Y-14919366D01*
X12269000Y-16920634D01*
X12275755Y-16982816D01*
X12326885Y-17119205D01*
X12414239Y-17235761D01*
X12530795Y-17323115D01*
X12667184Y-17374245D01*
X12729366Y-17381000D01*
X14730634Y-17381000D01*
X14792816Y-17374245D01*
X14929205Y-17323115D01*
X15045761Y-17235761D01*
X15133115Y-17119205D01*
X15140905Y-17098426D01*
X15183546Y-17041661D01*
X15250108Y-17016961D01*
X15319457Y-17032168D01*
X15339372Y-17045711D01*
X15425446Y-17117171D01*
X15433878Y-17123076D01*
X15632318Y-17239035D01*
X15641601Y-17243482D01*
X15856306Y-17325470D01*
X15866208Y-17328347D01*
X16091402Y-17374163D01*
X16101654Y-17375386D01*
X16331316Y-17383807D01*
X16341602Y-17383340D01*
X16569565Y-17354137D01*
X16579651Y-17351994D01*
X16799779Y-17285952D01*
X16809374Y-17282191D01*
X17015750Y-17181089D01*
X17024616Y-17175804D01*
X17092737Y-17127213D01*
X17101138Y-17116513D01*
X17094150Y-17103360D01*
X15999885Y-16009095D01*
X15965859Y-15946783D01*
X15967694Y-15921132D01*
X16634408Y-15921132D01*
X16634539Y-15922965D01*
X16638790Y-15929580D01*
X17453922Y-16744712D01*
X17465932Y-16751271D01*
X17477671Y-16742303D01*
X17523165Y-16678991D01*
X17528476Y-16670152D01*
X17630298Y-16464129D01*
X17634097Y-16454534D01*
X17700904Y-16234650D01*
X17703083Y-16224569D01*
X17733318Y-15994912D01*
X17733837Y-15988237D01*
X17735423Y-15923364D01*
X17735229Y-15916647D01*
X17716250Y-15685796D01*
X17714567Y-15675634D01*
X17658578Y-15452729D01*
X17655259Y-15442981D01*
X17563616Y-15232213D01*
X17558749Y-15223136D01*
X17477191Y-15097069D01*
X17466505Y-15087867D01*
X17456940Y-15092270D01*
X16642022Y-15907188D01*
X16634408Y-15921132D01*
X15967694Y-15921132D01*
X15970924Y-15875968D01*
X15999885Y-15830905D01*
X17096370Y-14734420D01*
X17103390Y-14721564D01*
X17095615Y-14710894D01*
X17085061Y-14702558D01*
X17076468Y-14696849D01*
X16875278Y-14585786D01*
X16865866Y-14581556D01*
X16649232Y-14504841D01*
X16639261Y-14502207D01*
X16413005Y-14461905D01*
X16402752Y-14460936D01*
X16172942Y-14458128D01*
X16162658Y-14458848D01*
X15935484Y-14493610D01*
X15925457Y-14495999D01*
X15707012Y-14567398D01*
X15697503Y-14571395D01*
X15493656Y-14677511D01*
X15484939Y-14683000D01*
X15333901Y-14796402D01*
X15267416Y-14821307D01*
X15198020Y-14806314D01*
X15147747Y-14756184D01*
X15140268Y-14739875D01*
X15133115Y-14720795D01*
X15045761Y-14604239D01*
X14929205Y-14516885D01*
X14792816Y-14465755D01*
X14730634Y-14459000D01*
X14673470Y-14459000D01*
X14605349Y-14438998D01*
X14558856Y-14385342D01*
X14547898Y-14322618D01*
X15073154Y-7969429D01*
X15098701Y-7903188D01*
X15137919Y-7871690D01*
X15137000Y-7870098D01*
X15141764Y-7867348D01*
X15146749Y-7865023D01*
X15263140Y-7783525D01*
X15329789Y-7736857D01*
X15329792Y-7736855D01*
X15334300Y-7733698D01*
X15420905Y-7647093D01*
X15483217Y-7613067D01*
X15554032Y-7618132D01*
X15599095Y-7647093D01*
X15685700Y-7733698D01*
X15690208Y-7736855D01*
X15690211Y-7736857D01*
X15756860Y-7783525D01*
X15873251Y-7865023D01*
X15878233Y-7867346D01*
X15878238Y-7867349D01*
X16075775Y-7959461D01*
X16080757Y-7961784D01*
X16086065Y-7963206D01*
X16086067Y-7963207D01*
X16109288Y-7969429D01*
X16282206Y-8015762D01*
X16342828Y-8052714D01*
X16365558Y-8088191D01*
X20758258Y-18425494D01*
X20763698Y-18441050D01*
X20771704Y-18469874D01*
X20786041Y-18495399D01*
X20793432Y-18510965D01*
X20816930Y-18570681D01*
X20975649Y-18974036D01*
X20984662Y-18996942D01*
X20986973Y-19003312D01*
X21133623Y-19444314D01*
X21163055Y-19532823D01*
X21165016Y-19539302D01*
X21219330Y-19737727D01*
X21259193Y-19883359D01*
X21257886Y-19954343D01*
X21218408Y-20013352D01*
X21153295Y-20041651D01*
X21083219Y-20030254D01*
X21050489Y-20007419D01*
X21048015Y-20004568D01*
X20986761Y-19954343D01*
X20870584Y-19859083D01*
X20870578Y-19859079D01*
X20866456Y-19855699D01*
X20861820Y-19853060D01*
X20861817Y-19853058D01*
X20667053Y-19742192D01*
X20662410Y-19739549D01*
X20441711Y-19659439D01*
X20436462Y-19658490D01*
X20436459Y-19658489D01*
X20355385Y-19643829D01*
X20210670Y-19617660D01*
X20206531Y-19617465D01*
X20206524Y-19617464D01*
X20187560Y-19616570D01*
X20187551Y-19616570D01*
X20186071Y-19616500D01*
X20021050Y-19616500D01*
X19939701Y-19623403D01*
X19851363Y-19630898D01*
X19851359Y-19630899D01*
X19846052Y-19631349D01*
X19840897Y-19632687D01*
X19840891Y-19632688D01*
X19663177Y-19678814D01*
X19618794Y-19690333D01*
X19613928Y-19692525D01*
X19613925Y-19692526D01*
X19409583Y-19784576D01*
X19409580Y-19784577D01*
X19404722Y-19786766D01*
X19209959Y-19917888D01*
X19040073Y-20079951D01*
X18899922Y-20268321D01*
X18897506Y-20273072D01*
X18897504Y-20273076D01*
X18795931Y-20472856D01*
X18793513Y-20477612D01*
X18723889Y-20701840D01*
X18723188Y-20707129D01*
X18706092Y-20836116D01*
X18693039Y-20934593D01*
X18701848Y-21169216D01*
X18711859Y-21216928D01*
X18727794Y-21292871D01*
X18750062Y-21399001D01*
X18836302Y-21617377D01*
X18839071Y-21621940D01*
X18839074Y-21621946D01*
X18895274Y-21714561D01*
X18913513Y-21783174D01*
X18891761Y-21850757D01*
X18836925Y-21895851D01*
X18784476Y-21905888D01*
X18726386Y-21904468D01*
X18716513Y-21905003D01*
X18471562Y-21937684D01*
X18461896Y-21939756D01*
X18225066Y-22010356D01*
X18215847Y-22013913D01*
X17992973Y-22120695D01*
X17984439Y-22125642D01*
X17781009Y-22265976D01*
X17773343Y-22272206D01*
X17639181Y-22399965D01*
X17635760Y-22403488D01*
X17121274Y-22976885D01*
X17114428Y-22991214D01*
X17114659Y-22993041D01*
X17119258Y-22999413D01*
X18135576Y-23911315D01*
X18171585Y-23943625D01*
X18185915Y-23950471D01*
X18189534Y-23950014D01*
X18193434Y-23947356D01*
X18414290Y-23726500D01*
X18476602Y-23692474D01*
X18547417Y-23697539D01*
X18592480Y-23726500D01*
X18773500Y-23907520D01*
X18807526Y-23969832D01*
X18802461Y-24040647D01*
X18773500Y-24085710D01*
X17685657Y-25173553D01*
X17683331Y-25176008D01*
X16620549Y-26360481D01*
X16609418Y-26383779D01*
X16562004Y-26436622D01*
X16489273Y-26455296D01*
X16400944Y-26450765D01*
X16368746Y-26449114D01*
X16356945Y-26447949D01*
X16017836Y-26398272D01*
X16006198Y-26396004D01*
X15710654Y-26323786D01*
X15689455Y-26316556D01*
X15682748Y-26313580D01*
X15675803Y-26310498D01*
X15646470Y-26305257D01*
X15637934Y-26303732D01*
X15624458Y-26300551D01*
X14209933Y-25883429D01*
X14150251Y-25844976D01*
X14120833Y-25780361D01*
X14119870Y-25753905D01*
X14133874Y-25550844D01*
X14133874Y-25550836D01*
X14134045Y-25548360D01*
X14132179Y-25355629D01*
X14089499Y-25102078D01*
X14087926Y-25097391D01*
X14056891Y-25004932D01*
X15862338Y-25004932D01*
X15864920Y-25037746D01*
X15865270Y-25050707D01*
X15864466Y-25083614D01*
X15865001Y-25093487D01*
X15875049Y-25168802D01*
X15875768Y-25175579D01*
X15881729Y-25251313D01*
X15883274Y-25261067D01*
X15890954Y-25293060D01*
X15893328Y-25305807D01*
X15897684Y-25338451D01*
X15899751Y-25348094D01*
X15921467Y-25420941D01*
X15923237Y-25427523D01*
X15940967Y-25501373D01*
X15944015Y-25510753D01*
X15956606Y-25541151D01*
X15960946Y-25553375D01*
X15970354Y-25584935D01*
X15973909Y-25594150D01*
X16006756Y-25662709D01*
X16009532Y-25668931D01*
X16038590Y-25739081D01*
X16043068Y-25747870D01*
X16060261Y-25775925D01*
X16066461Y-25787322D01*
X16080688Y-25817018D01*
X16085643Y-25825566D01*
X16128807Y-25888137D01*
X16132524Y-25893850D01*
X16169340Y-25953928D01*
X16177401Y-25959190D01*
X16187607Y-25953183D01*
X17127978Y-25012812D01*
X17135592Y-24998868D01*
X17135461Y-24997035D01*
X17131210Y-24990420D01*
X16189066Y-24048276D01*
X16175529Y-24040884D01*
X16170259Y-24044570D01*
X16155012Y-24069452D01*
X16147674Y-24080149D01*
X16127671Y-24106311D01*
X16122311Y-24114596D01*
X16086157Y-24181460D01*
X16082755Y-24187364D01*
X16043077Y-24252114D01*
X16038595Y-24260911D01*
X16026005Y-24291305D01*
X16020432Y-24303015D01*
X16004761Y-24331997D01*
X16000765Y-24341015D01*
X15975514Y-24412718D01*
X15973077Y-24419083D01*
X15944014Y-24489248D01*
X15940968Y-24498621D01*
X15933285Y-24530621D01*
X15929614Y-24543054D01*
X15918675Y-24574119D01*
X15916134Y-24583666D01*
X15902413Y-24658425D01*
X15901001Y-24665094D01*
X15883274Y-24738931D01*
X15881729Y-24748686D01*
X15879147Y-24781488D01*
X15877465Y-24794347D01*
X15871520Y-24826738D01*
X15870505Y-24836563D01*
X15868648Y-24912537D01*
X15868298Y-24919344D01*
X15862338Y-24995071D01*
X15862338Y-25004932D01*
X14056891Y-25004932D01*
X14009256Y-24863015D01*
X14009254Y-24863010D01*
X14007681Y-24858324D01*
X13996327Y-24836563D01*
X13906857Y-24665094D01*
X13888739Y-24630371D01*
X13735602Y-24423830D01*
X13552039Y-24243789D01*
X13342573Y-24094680D01*
X13112358Y-23980175D01*
X13107630Y-23978689D01*
X13107627Y-23978688D01*
X12871795Y-23904578D01*
X12871794Y-23904578D01*
X12867066Y-23903092D01*
X12612736Y-23865332D01*
X12548949Y-23865950D01*
X12360580Y-23867773D01*
X12360579Y-23867773D01*
X12355629Y-23867821D01*
X12102078Y-23910500D01*
X12097394Y-23912072D01*
X12097391Y-23912073D01*
X12029110Y-23934992D01*
X11858324Y-23992318D01*
X11630371Y-24111261D01*
X11626393Y-24114211D01*
X11626389Y-24114213D01*
X11548278Y-24172128D01*
X11423831Y-24264398D01*
X11243790Y-24447961D01*
X11240915Y-24452000D01*
X11240914Y-24452001D01*
X11110817Y-24634760D01*
X11094681Y-24657427D01*
X11092474Y-24661863D01*
X11092474Y-24661864D01*
X10992424Y-24863015D01*
X10980175Y-24887641D01*
X10978692Y-24892359D01*
X10978692Y-24892360D01*
X10970212Y-24919344D01*
X10903093Y-25132933D01*
X10874787Y-25323584D01*
X10874617Y-25326054D01*
X10874616Y-25326060D01*
X10830963Y-25959029D01*
X10830874Y-25960245D01*
X10821449Y-26080000D01*
X508500Y-26080000D01*
X508500Y-23655118D01*
X16518732Y-23655118D01*
X16519189Y-23658739D01*
X16521843Y-23662633D01*
X17477198Y-24617988D01*
X17491142Y-24625602D01*
X17491160Y-24625601D01*
X17500208Y-24619434D01*
X17784217Y-24302905D01*
X17791063Y-24288576D01*
X17790832Y-24286749D01*
X17786233Y-24280377D01*
X16783397Y-23380572D01*
X16769068Y-23373726D01*
X16767241Y-23373957D01*
X16760869Y-23378556D01*
X16525578Y-23640789D01*
X16518732Y-23655118D01*
X508500Y-23655118D01*
X508500Y-20934593D01*
X8533039Y-20934593D01*
X8541848Y-21169216D01*
X8551859Y-21216928D01*
X8567794Y-21292871D01*
X8590062Y-21399001D01*
X8676302Y-21617377D01*
X8798104Y-21818100D01*
X8951985Y-21995432D01*
X8956117Y-21998820D01*
X9129416Y-22140917D01*
X9129422Y-22140921D01*
X9133544Y-22144301D01*
X9138180Y-22146940D01*
X9138183Y-22146942D01*
X9249408Y-22210255D01*
X9337590Y-22260451D01*
X9558289Y-22340561D01*
X9563538Y-22341510D01*
X9563541Y-22341511D01*
X9644615Y-22356171D01*
X9789330Y-22382340D01*
X9793469Y-22382535D01*
X9793476Y-22382536D01*
X9812440Y-22383430D01*
X9812449Y-22383430D01*
X9813929Y-22383500D01*
X9978950Y-22383500D01*
X10060327Y-22376595D01*
X10148637Y-22369102D01*
X10148641Y-22369101D01*
X10153948Y-22368651D01*
X10159103Y-22367313D01*
X10159109Y-22367312D01*
X10376035Y-22311009D01*
X10376034Y-22311009D01*
X10381206Y-22309667D01*
X10386072Y-22307475D01*
X10386075Y-22307474D01*
X10590417Y-22215424D01*
X10590420Y-22215423D01*
X10595278Y-22213234D01*
X10790041Y-22082112D01*
X10959927Y-21920049D01*
X11100078Y-21731679D01*
X11108782Y-21714561D01*
X11204069Y-21527144D01*
X11204069Y-21527143D01*
X11206487Y-21522388D01*
X11276111Y-21298160D01*
X11293202Y-21169216D01*
X11294763Y-21157438D01*
X12497600Y-21157438D01*
X12537064Y-21469830D01*
X12615370Y-21774813D01*
X12731284Y-22067577D01*
X12733186Y-22071036D01*
X12733187Y-22071039D01*
X12865112Y-22311009D01*
X12882976Y-22343504D01*
X13068055Y-22598244D01*
X13283602Y-22827778D01*
X13526218Y-23028487D01*
X13792076Y-23197206D01*
X13795655Y-23198890D01*
X13795662Y-23198894D01*
X14073394Y-23329584D01*
X14073398Y-23329586D01*
X14076984Y-23331273D01*
X14376448Y-23428575D01*
X14685746Y-23487577D01*
X14779300Y-23493463D01*
X14919358Y-23502275D01*
X14919374Y-23502276D01*
X14921353Y-23502400D01*
X15078647Y-23502400D01*
X15080626Y-23502276D01*
X15080642Y-23502275D01*
X15220700Y-23493463D01*
X15314254Y-23487577D01*
X15623552Y-23428575D01*
X15923016Y-23331273D01*
X15926602Y-23329586D01*
X15926606Y-23329584D01*
X16204338Y-23198894D01*
X16204345Y-23198890D01*
X16207924Y-23197206D01*
X16473782Y-23028487D01*
X16716398Y-22827778D01*
X16931945Y-22598244D01*
X17117024Y-22343504D01*
X17134889Y-22311009D01*
X17266813Y-22071039D01*
X17266814Y-22071036D01*
X17268716Y-22067577D01*
X17384630Y-21774813D01*
X17462936Y-21469830D01*
X17502400Y-21157438D01*
X17502400Y-20842562D01*
X17462936Y-20530170D01*
X17384630Y-20225187D01*
X17268716Y-19932423D01*
X17262749Y-19921569D01*
X17118933Y-19659968D01*
X17118931Y-19659965D01*
X17117024Y-19656496D01*
X17004351Y-19501415D01*
X16934273Y-19404960D01*
X16934272Y-19404958D01*
X16931945Y-19401756D01*
X16716398Y-19172222D01*
X16473782Y-18971513D01*
X16207924Y-18802794D01*
X16204345Y-18801110D01*
X16204338Y-18801106D01*
X15926606Y-18670416D01*
X15926602Y-18670414D01*
X15923016Y-18668727D01*
X15623552Y-18571425D01*
X15314254Y-18512423D01*
X15220700Y-18506537D01*
X15080642Y-18497725D01*
X15080626Y-18497724D01*
X15078647Y-18497600D01*
X14921353Y-18497600D01*
X14919374Y-18497724D01*
X14919358Y-18497725D01*
X14779300Y-18506537D01*
X14685746Y-18512423D01*
X14376448Y-18571425D01*
X14076984Y-18668727D01*
X14073398Y-18670414D01*
X14073394Y-18670416D01*
X13795662Y-18801106D01*
X13795655Y-18801110D01*
X13792076Y-18802794D01*
X13526218Y-18971513D01*
X13283602Y-19172222D01*
X13068055Y-19401756D01*
X13065728Y-19404958D01*
X13065727Y-19404960D01*
X12995649Y-19501415D01*
X12882976Y-19656496D01*
X12881069Y-19659965D01*
X12881067Y-19659968D01*
X12737251Y-19921569D01*
X12731284Y-19932423D01*
X12615370Y-20225187D01*
X12537064Y-20530170D01*
X12497600Y-20842562D01*
X12497600Y-21157438D01*
X11294763Y-21157438D01*
X11306261Y-21070690D01*
X11306261Y-21070687D01*
X11306961Y-21065407D01*
X11298152Y-20830784D01*
X11280358Y-20745978D01*
X11251035Y-20606226D01*
X11251034Y-20606223D01*
X11249938Y-20600999D01*
X11163698Y-20382623D01*
X11041896Y-20181900D01*
X10888015Y-20004568D01*
X10826761Y-19954343D01*
X10710584Y-19859083D01*
X10710578Y-19859079D01*
X10706456Y-19855699D01*
X10701820Y-19853060D01*
X10701817Y-19853058D01*
X10507053Y-19742192D01*
X10502410Y-19739549D01*
X10281711Y-19659439D01*
X10276462Y-19658490D01*
X10276459Y-19658489D01*
X10195385Y-19643829D01*
X10050670Y-19617660D01*
X10046531Y-19617465D01*
X10046524Y-19617464D01*
X10027560Y-19616570D01*
X10027551Y-19616570D01*
X10026071Y-19616500D01*
X9861050Y-19616500D01*
X9779701Y-19623403D01*
X9691363Y-19630898D01*
X9691359Y-19630899D01*
X9686052Y-19631349D01*
X9680897Y-19632687D01*
X9680891Y-19632688D01*
X9503177Y-19678814D01*
X9458794Y-19690333D01*
X9453928Y-19692525D01*
X9453925Y-19692526D01*
X9249583Y-19784576D01*
X9249580Y-19784577D01*
X9244722Y-19786766D01*
X9049959Y-19917888D01*
X8880073Y-20079951D01*
X8739922Y-20268321D01*
X8737506Y-20273072D01*
X8737504Y-20273076D01*
X8635931Y-20472856D01*
X8633513Y-20477612D01*
X8563889Y-20701840D01*
X8563188Y-20707129D01*
X8546092Y-20836116D01*
X8533039Y-20934593D01*
X508500Y-20934593D01*
X508500Y-4492975D01*
X12157483Y-4492975D01*
X12176472Y-4710019D01*
X12178375Y-4720812D01*
X12234764Y-4931261D01*
X12238510Y-4941553D01*
X12330586Y-5139011D01*
X12336069Y-5148506D01*
X12372509Y-5200548D01*
X12382988Y-5208924D01*
X12396434Y-5201856D01*
X13097978Y-4500312D01*
X13105592Y-4486368D01*
X13105461Y-4484535D01*
X13101210Y-4477920D01*
X12395713Y-3772423D01*
X12383938Y-3765993D01*
X12371923Y-3775289D01*
X12336069Y-3826494D01*
X12330586Y-3835989D01*
X12238510Y-4033447D01*
X12234764Y-4043739D01*
X12178375Y-4254188D01*
X12176472Y-4264981D01*
X12157483Y-4482025D01*
X12157483Y-4492975D01*
X508500Y-4492975D01*
X508500Y-634500D01*
X528502Y-566379D01*
X582158Y-519886D01*
X634500Y-508500D01*
X9061156Y-508500D01*
X9129277Y-528502D01*
G37*
%TD.AperFunction*%
%TD*%
M02*
