%TF.GenerationSoftware,KiCad,Pcbnew,(6.0.8-1)-1*%
%TF.CreationDate,2022-10-24T08:07:35+03:00*%
%TF.ProjectId,kamaji_button_v1,6b616d61-6a69-45f6-9275-74746f6e5f76,rev?*%
%TF.SameCoordinates,PX2faf080PY2faf080*%
%TF.FileFunction,Legend,Top*%
%TF.FilePolarity,Positive*%
%FSLAX46Y46*%
G04 Gerber Fmt 4.6, Leading zero omitted, Abs format (unit mm)*
G04 Created by KiCad (PCBNEW (6.0.8-1)-1) date 2022-10-24 08:07:35*
%MOMM*%
%LPD*%
G01*
G04 APERTURE LIST*
%ADD10C,0.200000*%
%ADD11C,0.150000*%
%ADD12C,3.200000*%
%ADD13C,1.750000*%
%ADD14C,3.987800*%
%ADD15C,1.600000*%
%ADD16C,2.360000*%
G04 APERTURE END LIST*
D10*
X26647380Y-25357142D02*
X25647380Y-25357142D01*
X26647380Y-24785714D02*
X26075952Y-25214285D01*
X25647380Y-24785714D02*
X26218809Y-25357142D01*
X26647380Y-23928571D02*
X26123571Y-23928571D01*
X26028333Y-23976190D01*
X25980714Y-24071428D01*
X25980714Y-24261904D01*
X26028333Y-24357142D01*
X26599761Y-23928571D02*
X26647380Y-24023809D01*
X26647380Y-24261904D01*
X26599761Y-24357142D01*
X26504523Y-24404761D01*
X26409285Y-24404761D01*
X26314047Y-24357142D01*
X26266428Y-24261904D01*
X26266428Y-24023809D01*
X26218809Y-23928571D01*
X26647380Y-23452380D02*
X25980714Y-23452380D01*
X26075952Y-23452380D02*
X26028333Y-23404761D01*
X25980714Y-23309523D01*
X25980714Y-23166666D01*
X26028333Y-23071428D01*
X26123571Y-23023809D01*
X26647380Y-23023809D01*
X26123571Y-23023809D02*
X26028333Y-22976190D01*
X25980714Y-22880952D01*
X25980714Y-22738095D01*
X26028333Y-22642857D01*
X26123571Y-22595238D01*
X26647380Y-22595238D01*
X26647380Y-21690476D02*
X26123571Y-21690476D01*
X26028333Y-21738095D01*
X25980714Y-21833333D01*
X25980714Y-22023809D01*
X26028333Y-22119047D01*
X26599761Y-21690476D02*
X26647380Y-21785714D01*
X26647380Y-22023809D01*
X26599761Y-22119047D01*
X26504523Y-22166666D01*
X26409285Y-22166666D01*
X26314047Y-22119047D01*
X26266428Y-22023809D01*
X26266428Y-21785714D01*
X26218809Y-21690476D01*
X25980714Y-21214285D02*
X26837857Y-21214285D01*
X26933095Y-21261904D01*
X26980714Y-21357142D01*
X26980714Y-21404761D01*
X25647380Y-21214285D02*
X25695000Y-21261904D01*
X25742619Y-21214285D01*
X25695000Y-21166666D01*
X25647380Y-21214285D01*
X25742619Y-21214285D01*
X26647380Y-20738095D02*
X25980714Y-20738095D01*
X25647380Y-20738095D02*
X25695000Y-20785714D01*
X25742619Y-20738095D01*
X25695000Y-20690476D01*
X25647380Y-20738095D01*
X25742619Y-20738095D01*
X26123571Y-19166666D02*
X26171190Y-19023809D01*
X26218809Y-18976190D01*
X26314047Y-18928571D01*
X26456904Y-18928571D01*
X26552142Y-18976190D01*
X26599761Y-19023809D01*
X26647380Y-19119047D01*
X26647380Y-19500000D01*
X25647380Y-19500000D01*
X25647380Y-19166666D01*
X25695000Y-19071428D01*
X25742619Y-19023809D01*
X25837857Y-18976190D01*
X25933095Y-18976190D01*
X26028333Y-19023809D01*
X26075952Y-19071428D01*
X26123571Y-19166666D01*
X26123571Y-19500000D01*
X25980714Y-18071428D02*
X26647380Y-18071428D01*
X25980714Y-18500000D02*
X26504523Y-18500000D01*
X26599761Y-18452380D01*
X26647380Y-18357142D01*
X26647380Y-18214285D01*
X26599761Y-18119047D01*
X26552142Y-18071428D01*
X25980714Y-17738095D02*
X25980714Y-17357142D01*
X25647380Y-17595238D02*
X26504523Y-17595238D01*
X26599761Y-17547619D01*
X26647380Y-17452380D01*
X26647380Y-17357142D01*
X25980714Y-17166666D02*
X25980714Y-16785714D01*
X25647380Y-17023809D02*
X26504523Y-17023809D01*
X26599761Y-16976190D01*
X26647380Y-16880952D01*
X26647380Y-16785714D01*
X26647380Y-16309523D02*
X26599761Y-16404761D01*
X26552142Y-16452380D01*
X26456904Y-16500000D01*
X26171190Y-16500000D01*
X26075952Y-16452380D01*
X26028333Y-16404761D01*
X25980714Y-16309523D01*
X25980714Y-16166666D01*
X26028333Y-16071428D01*
X26075952Y-16023809D01*
X26171190Y-15976190D01*
X26456904Y-15976190D01*
X26552142Y-16023809D01*
X26599761Y-16071428D01*
X26647380Y-16166666D01*
X26647380Y-16309523D01*
X25980714Y-15547619D02*
X26647380Y-15547619D01*
X26075952Y-15547619D02*
X26028333Y-15500000D01*
X25980714Y-15404761D01*
X25980714Y-15261904D01*
X26028333Y-15166666D01*
X26123571Y-15119047D01*
X26647380Y-15119047D01*
X25980714Y-13976190D02*
X26647380Y-13738095D01*
X25980714Y-13500000D01*
X26647380Y-12595238D02*
X26647380Y-13166666D01*
X26647380Y-12880952D02*
X25647380Y-12880952D01*
X25790238Y-12976190D01*
X25885476Y-13071428D01*
X25933095Y-13166666D01*
X27590714Y-27261904D02*
X28400238Y-27261904D01*
X28495476Y-27309523D01*
X28543095Y-27357142D01*
X28590714Y-27452380D01*
X28590714Y-27595238D01*
X28543095Y-27690476D01*
X28209761Y-27261904D02*
X28257380Y-27357142D01*
X28257380Y-27547619D01*
X28209761Y-27642857D01*
X28162142Y-27690476D01*
X28066904Y-27738095D01*
X27781190Y-27738095D01*
X27685952Y-27690476D01*
X27638333Y-27642857D01*
X27590714Y-27547619D01*
X27590714Y-27357142D01*
X27638333Y-27261904D01*
X28257380Y-26785714D02*
X27590714Y-26785714D01*
X27257380Y-26785714D02*
X27305000Y-26833333D01*
X27352619Y-26785714D01*
X27305000Y-26738095D01*
X27257380Y-26785714D01*
X27352619Y-26785714D01*
X27590714Y-26452380D02*
X27590714Y-26071428D01*
X27257380Y-26309523D02*
X28114523Y-26309523D01*
X28209761Y-26261904D01*
X28257380Y-26166666D01*
X28257380Y-26071428D01*
X28257380Y-25738095D02*
X27257380Y-25738095D01*
X28257380Y-25309523D02*
X27733571Y-25309523D01*
X27638333Y-25357142D01*
X27590714Y-25452380D01*
X27590714Y-25595238D01*
X27638333Y-25690476D01*
X27685952Y-25738095D01*
X27590714Y-24404761D02*
X28257380Y-24404761D01*
X27590714Y-24833333D02*
X28114523Y-24833333D01*
X28209761Y-24785714D01*
X28257380Y-24690476D01*
X28257380Y-24547619D01*
X28209761Y-24452380D01*
X28162142Y-24404761D01*
X28257380Y-23928571D02*
X27257380Y-23928571D01*
X27638333Y-23928571D02*
X27590714Y-23833333D01*
X27590714Y-23642857D01*
X27638333Y-23547619D01*
X27685952Y-23500000D01*
X27781190Y-23452380D01*
X28066904Y-23452380D01*
X28162142Y-23500000D01*
X28209761Y-23547619D01*
X28257380Y-23642857D01*
X28257380Y-23833333D01*
X28209761Y-23928571D01*
X28162142Y-23023809D02*
X28209761Y-22976190D01*
X28257380Y-23023809D01*
X28209761Y-23071428D01*
X28162142Y-23023809D01*
X28257380Y-23023809D01*
X28209761Y-22119047D02*
X28257380Y-22214285D01*
X28257380Y-22404761D01*
X28209761Y-22500000D01*
X28162142Y-22547619D01*
X28066904Y-22595238D01*
X27781190Y-22595238D01*
X27685952Y-22547619D01*
X27638333Y-22500000D01*
X27590714Y-22404761D01*
X27590714Y-22214285D01*
X27638333Y-22119047D01*
X28257380Y-21547619D02*
X28209761Y-21642857D01*
X28162142Y-21690476D01*
X28066904Y-21738095D01*
X27781190Y-21738095D01*
X27685952Y-21690476D01*
X27638333Y-21642857D01*
X27590714Y-21547619D01*
X27590714Y-21404761D01*
X27638333Y-21309523D01*
X27685952Y-21261904D01*
X27781190Y-21214285D01*
X28066904Y-21214285D01*
X28162142Y-21261904D01*
X28209761Y-21309523D01*
X28257380Y-21404761D01*
X28257380Y-21547619D01*
X28257380Y-20785714D02*
X27590714Y-20785714D01*
X27685952Y-20785714D02*
X27638333Y-20738095D01*
X27590714Y-20642857D01*
X27590714Y-20500000D01*
X27638333Y-20404761D01*
X27733571Y-20357142D01*
X28257380Y-20357142D01*
X27733571Y-20357142D02*
X27638333Y-20309523D01*
X27590714Y-20214285D01*
X27590714Y-20071428D01*
X27638333Y-19976190D01*
X27733571Y-19928571D01*
X28257380Y-19928571D01*
X27209761Y-18738095D02*
X28495476Y-19595238D01*
X28257380Y-18404761D02*
X27590714Y-18404761D01*
X27257380Y-18404761D02*
X27305000Y-18452380D01*
X27352619Y-18404761D01*
X27305000Y-18357142D01*
X27257380Y-18404761D01*
X27352619Y-18404761D01*
X28257380Y-17785714D02*
X28209761Y-17880952D01*
X28114523Y-17928571D01*
X27257380Y-17928571D01*
X28209761Y-17023809D02*
X28257380Y-17119047D01*
X28257380Y-17309523D01*
X28209761Y-17404761D01*
X28114523Y-17452380D01*
X27733571Y-17452380D01*
X27638333Y-17404761D01*
X27590714Y-17309523D01*
X27590714Y-17119047D01*
X27638333Y-17023809D01*
X27733571Y-16976190D01*
X27828809Y-16976190D01*
X27924047Y-17452380D01*
X27590714Y-16642857D02*
X28257380Y-16404761D01*
X27590714Y-16166666D02*
X28257380Y-16404761D01*
X28495476Y-16500000D01*
X28543095Y-16547619D01*
X28590714Y-16642857D01*
X27209761Y-15071428D02*
X28495476Y-15928571D01*
X28257380Y-14738095D02*
X27257380Y-14738095D01*
X27876428Y-14642857D02*
X28257380Y-14357142D01*
X27590714Y-14357142D02*
X27971666Y-14738095D01*
X28257380Y-13500000D02*
X27733571Y-13500000D01*
X27638333Y-13547619D01*
X27590714Y-13642857D01*
X27590714Y-13833333D01*
X27638333Y-13928571D01*
X28209761Y-13500000D02*
X28257380Y-13595238D01*
X28257380Y-13833333D01*
X28209761Y-13928571D01*
X28114523Y-13976190D01*
X28019285Y-13976190D01*
X27924047Y-13928571D01*
X27876428Y-13833333D01*
X27876428Y-13595238D01*
X27828809Y-13500000D01*
X28257380Y-13023809D02*
X27590714Y-13023809D01*
X27685952Y-13023809D02*
X27638333Y-12976190D01*
X27590714Y-12880952D01*
X27590714Y-12738095D01*
X27638333Y-12642857D01*
X27733571Y-12595238D01*
X28257380Y-12595238D01*
X27733571Y-12595238D02*
X27638333Y-12547619D01*
X27590714Y-12452380D01*
X27590714Y-12309523D01*
X27638333Y-12214285D01*
X27733571Y-12166666D01*
X28257380Y-12166666D01*
X28257380Y-11261904D02*
X27733571Y-11261904D01*
X27638333Y-11309523D01*
X27590714Y-11404761D01*
X27590714Y-11595238D01*
X27638333Y-11690476D01*
X28209761Y-11261904D02*
X28257380Y-11357142D01*
X28257380Y-11595238D01*
X28209761Y-11690476D01*
X28114523Y-11738095D01*
X28019285Y-11738095D01*
X27924047Y-11690476D01*
X27876428Y-11595238D01*
X27876428Y-11357142D01*
X27828809Y-11261904D01*
X27590714Y-10785714D02*
X28447857Y-10785714D01*
X28543095Y-10833333D01*
X28590714Y-10928571D01*
X28590714Y-10976190D01*
X27257380Y-10785714D02*
X27305000Y-10833333D01*
X27352619Y-10785714D01*
X27305000Y-10738095D01*
X27257380Y-10785714D01*
X27352619Y-10785714D01*
X28257380Y-10309523D02*
X27590714Y-10309523D01*
X27257380Y-10309523D02*
X27305000Y-10357142D01*
X27352619Y-10309523D01*
X27305000Y-10261904D01*
X27257380Y-10309523D01*
X27352619Y-10309523D01*
X15869047Y-18071428D02*
X16630952Y-18071428D01*
X13369047Y-18071428D02*
X14130952Y-18071428D01*
X13750000Y-18452380D02*
X13750000Y-17690476D01*
D11*
%TO.C,J1*%
X13976190Y-2139880D02*
X13642857Y-1663690D01*
X13404761Y-2139880D02*
X13404761Y-1139880D01*
X13785714Y-1139880D01*
X13880952Y-1187500D01*
X13928571Y-1235119D01*
X13976190Y-1330357D01*
X13976190Y-1473214D01*
X13928571Y-1568452D01*
X13880952Y-1616071D01*
X13785714Y-1663690D01*
X13404761Y-1663690D01*
X14690476Y-1139880D02*
X14690476Y-1854166D01*
X14642857Y-1997023D01*
X14547619Y-2092261D01*
X14404761Y-2139880D01*
X14309523Y-2139880D01*
X15690476Y-2139880D02*
X15119047Y-2139880D01*
X15404761Y-2139880D02*
X15404761Y-1139880D01*
X15309523Y-1282738D01*
X15214285Y-1377976D01*
X15119047Y-1425595D01*
X16309523Y-1139880D02*
X16404761Y-1139880D01*
X16500000Y-1187500D01*
X16547619Y-1235119D01*
X16595238Y-1330357D01*
X16642857Y-1520833D01*
X16642857Y-1758928D01*
X16595238Y-1949404D01*
X16547619Y-2044642D01*
X16500000Y-2092261D01*
X16404761Y-2139880D01*
X16309523Y-2139880D01*
X16214285Y-2092261D01*
X16166666Y-2044642D01*
X16119047Y-1949404D01*
X16071428Y-1758928D01*
X16071428Y-1520833D01*
X16119047Y-1330357D01*
X16166666Y-1235119D01*
X16214285Y-1187500D01*
X16309523Y-1139880D01*
X20000000Y-9187500D02*
X10000000Y-9187500D01*
X10000000Y-9187500D02*
X10000000Y-2187500D01*
X20000000Y-9187500D02*
X20000000Y-2187500D01*
%TD*%
%LPC*%
D12*
%TO.C,REF\u002A\u002A*%
X15000000Y-33500000D03*
%TD*%
D13*
%TO.C,SW2*%
X20080000Y-21000000D03*
X9920000Y-21000000D03*
D14*
X15000000Y-21000000D03*
%TD*%
D15*
%TO.C,J1*%
X16530000Y-6727500D03*
X15510000Y-4487500D03*
X14490000Y-6727500D03*
X13470000Y-4487500D03*
D16*
X10000000Y-2187500D03*
X20000000Y-2187500D03*
%TD*%
M02*
